<ttFont>
    <TTGlyph name=".notdef" xMin="62" yMin="-220" xMax="677" yMax="1030">
      <contour>
        <pt x="62" y="1030" on="1"/>
        <pt x="677" y="1030" on="1"/>
        <pt x="677" y="-220" on="1"/>
        <pt x="62" y="-220" on="1"/>
      </contour>
      <contour>
        <pt x="517" y="-72" on="1"/>
        <pt x="517" y="882" on="1"/>
        <pt x="222" y="882" on="1"/>
        <pt x="222" y="-72" on="1"/>
      </contour>
    </TTGlyph>
    <TTGlyph name="A" xMin="-4" yMin="0" xMax="694" yMax="740">
      <contour>
        <pt x="-4" y="8" on="1"/>
        <pt x="190" y="740" on="1"/>
        <pt x="500" y="740" on="1"/>
        <pt x="694" y="8" on="1"/>
        <pt x="694" y="0" on="1"/>
        <pt x="499" y="0" on="1"/>
        <pt x="459" y="156" on="1"/>
        <pt x="229" y="156" on="1"/>
        <pt x="190" y="0" on="1"/>
        <pt x="-4" y="0" on="1"/>
      </contour>
      <contour>
        <pt x="419" y="317" on="1"/>
        <pt x="382" y="471" on="1"/>
        <pt x="352" y="594" on="1"/>
        <pt x="338" y="594" on="1"/>
        <pt x="307" y="470" on="1"/>
        <pt x="270" y="317" on="1"/>
      </contour>
    </TTGlyph>
    <TTGlyph name="A.sc" xMin="-3" yMin="0" xMax="643" yMax="577">
      <contour>
        <pt x="-3" y="7" on="1"/>
        <pt x="175" y="577" on="1"/>
        <pt x="466" y="577" on="1"/>
        <pt x="643" y="7" on="1"/>
        <pt x="643" y="0" on="1"/>
        <pt x="459" y="0" on="1"/>
        <pt x="425" y="101" on="1"/>
        <pt x="214" y="101" on="1"/>
        <pt x="181" y="0" on="1"/>
        <pt x="-3" y="0" on="1"/>
      </contour>
      <contour>
        <pt x="394" y="228" on="1"/>
        <pt x="354" y="356" on="1"/>
        <pt x="328" y="443" on="1"/>
        <pt x="312" y="443" on="1"/>
        <pt x="285" y="355" on="1"/>
        <pt x="245" y="228" on="1"/>
      </contour>
    </TTGlyph>
    <TTGlyph name="AE" xMin="-7" yMin="0" xMax="885" yMax="740">
      <contour>
        <pt x="-7" y="8" on="1"/>
        <pt x="232" y="740" on="1"/>
        <pt x="874" y="740" on="1"/>
        <pt x="874" y="575" on="1"/>
        <pt x="615" y="575" on="1"/>
        <pt x="624" y="453" on="1"/>
        <pt x="865" y="453" on="1"/>
        <pt x="865" y="287" on="1"/>
        <pt x="636" y="287" on="1"/>
        <pt x="645" y="166" on="1"/>
        <pt x="885" y="166" on="1"/>
        <pt x="885" y="0" on="1"/>
        <pt x="445" y="0" on="1"/>
        <pt x="439" y="153" on="1"/>
        <pt x="248" y="153" on="1"/>
        <pt x="200" y="0" on="1"/>
        <pt x="-7" y="0" on="1"/>
      </contour>
      <contour>
        <pt x="301" y="321" on="1"/>
        <pt x="432" y="321" on="1"/>
        <pt x="421" y="591" on="1"/>
        <pt x="386" y="591" on="1"/>
      </contour>
    </TTGlyph>
    <TTGlyph name="AE.sc" xMin="-5" yMin="0" xMax="821" yMax="577">
      <contour>
        <pt x="-5" y="7" on="1"/>
        <pt x="216" y="577" on="1"/>
        <pt x="810" y="577" on="1"/>
        <pt x="810" y="429" on="1"/>
        <pt x="573" y="429" on="1"/>
        <pt x="579" y="358" on="1"/>
        <pt x="803" y="358" on="1"/>
        <pt x="803" y="219" on="1"/>
        <pt x="594" y="219" on="1"/>
        <pt x="600" y="149" on="1"/>
        <pt x="821" y="149" on="1"/>
        <pt x="821" y="0" on="1"/>
        <pt x="412" y="0" on="1"/>
        <pt x="407" y="101" on="1"/>
        <pt x="228" y="101" on="1"/>
        <pt x="189" y="0" on="1"/>
        <pt x="-5" y="0" on="1"/>
      </contour>
      <contour>
        <pt x="279" y="234" on="1"/>
        <pt x="399" y="234" on="1"/>
        <pt x="391" y="439" on="1"/>
        <pt x="360" y="439" on="1"/>
      </contour>
    </TTGlyph>
    <TTGlyph name="AEacute" xMin="-7" yMin="0" xMax="885" yMax="993">
      <contour>
        <pt x="435" y="804" on="1"/>
        <pt x="499" y="993" on="1"/>
        <pt x="703" y="993" on="1"/>
        <pt x="578" y="794" on="1"/>
      </contour>
      <contour>
        <pt x="-7" y="8" on="1"/>
        <pt x="232" y="740" on="1"/>
        <pt x="874" y="740" on="1"/>
        <pt x="874" y="575" on="1"/>
        <pt x="615" y="575" on="1"/>
        <pt x="624" y="453" on="1"/>
        <pt x="865" y="453" on="1"/>
        <pt x="865" y="287" on="1"/>
        <pt x="636" y="287" on="1"/>
        <pt x="645" y="166" on="1"/>
        <pt x="885" y="166" on="1"/>
        <pt x="885" y="0" on="1"/>
        <pt x="445" y="0" on="1"/>
        <pt x="439" y="153" on="1"/>
        <pt x="248" y="153" on="1"/>
        <pt x="200" y="0" on="1"/>
        <pt x="-7" y="0" on="1"/>
      </contour>
      <contour>
        <pt x="301" y="321" on="1"/>
        <pt x="432" y="321" on="1"/>
        <pt x="421" y="591" on="1"/>
        <pt x="386" y="591" on="1"/>
      </contour>
    </TTGlyph>
    <TTGlyph name="AEacute.sc" xMin="-5" yMin="0" xMax="821" yMax="790">
      <contour>
        <pt x="-5" y="7" on="1"/>
        <pt x="216" y="577" on="1"/>
        <pt x="810" y="577" on="1"/>
        <pt x="810" y="429" on="1"/>
        <pt x="573" y="429" on="1"/>
        <pt x="579" y="358" on="1"/>
        <pt x="803" y="358" on="1"/>
        <pt x="803" y="219" on="1"/>
        <pt x="594" y="219" on="1"/>
        <pt x="600" y="149" on="1"/>
        <pt x="821" y="149" on="1"/>
        <pt x="821" y="0" on="1"/>
        <pt x="412" y="0" on="1"/>
        <pt x="407" y="101" on="1"/>
        <pt x="228" y="101" on="1"/>
        <pt x="189" y="0" on="1"/>
        <pt x="-5" y="0" on="1"/>
      </contour>
      <contour>
        <pt x="399" y="234" on="1"/>
        <pt x="391" y="439" on="1"/>
        <pt x="360" y="439" on="1"/>
        <pt x="279" y="234" on="1"/>
      </contour>
      <contour>
        <pt x="399" y="630" on="1"/>
        <pt x="455" y="790" on="1"/>
        <pt x="647" y="790" on="1"/>
        <pt x="532" y="621" on="1"/>
      </contour>
    </TTGlyph>
    <TTGlyph name="Aacute" xMin="-4" yMin="0" xMax="694" yMax="993">
      <contour>
        <pt x="-4" y="8" on="1"/>
        <pt x="190" y="740" on="1"/>
        <pt x="500" y="740" on="1"/>
        <pt x="694" y="8" on="1"/>
        <pt x="694" y="0" on="1"/>
        <pt x="499" y="0" on="1"/>
        <pt x="459" y="156" on="1"/>
        <pt x="229" y="156" on="1"/>
        <pt x="190" y="0" on="1"/>
        <pt x="-4" y="0" on="1"/>
      </contour>
      <contour>
        <pt x="419" y="317" on="1"/>
        <pt x="382" y="471" on="1"/>
        <pt x="352" y="594" on="1"/>
        <pt x="338" y="594" on="1"/>
        <pt x="307" y="470" on="1"/>
        <pt x="270" y="317" on="1"/>
      </contour>
      <contour>
        <pt x="268" y="804" on="1"/>
        <pt x="332" y="993" on="1"/>
        <pt x="536" y="993" on="1"/>
        <pt x="411" y="794" on="1"/>
      </contour>
    </TTGlyph>
    <TTGlyph name="Aacute.sc" xMin="-3" yMin="0" xMax="643" yMax="790">
      <contour>
        <pt x="-3" y="7" on="1"/>
        <pt x="175" y="577" on="1"/>
        <pt x="466" y="577" on="1"/>
        <pt x="643" y="7" on="1"/>
        <pt x="643" y="0" on="1"/>
        <pt x="459" y="0" on="1"/>
        <pt x="425" y="101" on="1"/>
        <pt x="214" y="101" on="1"/>
        <pt x="181" y="0" on="1"/>
        <pt x="-3" y="0" on="1"/>
      </contour>
      <contour>
        <pt x="393" y="230" on="1"/>
        <pt x="354" y="356" on="1"/>
        <pt x="328" y="443" on="1"/>
        <pt x="312" y="443" on="1"/>
        <pt x="285" y="355" on="1"/>
        <pt x="246" y="230" on="1"/>
      </contour>
      <contour>
        <pt x="249" y="630" on="1"/>
        <pt x="305" y="790" on="1"/>
        <pt x="498" y="790" on="1"/>
        <pt x="383" y="621" on="1"/>
      </contour>
    </TTGlyph>
    <TTGlyph name="Abreve" xMin="-4" yMin="0" xMax="694" yMax="984">
      <contour>
        <pt x="-4" y="8" on="1"/>
        <pt x="190" y="740" on="1"/>
        <pt x="500" y="740" on="1"/>
        <pt x="694" y="8" on="1"/>
        <pt x="694" y="0" on="1"/>
        <pt x="499" y="0" on="1"/>
        <pt x="459" y="156" on="1"/>
        <pt x="229" y="156" on="1"/>
        <pt x="190" y="0" on="1"/>
        <pt x="-4" y="0" on="1"/>
      </contour>
      <contour>
        <pt x="419" y="317" on="1"/>
        <pt x="382" y="471" on="1"/>
        <pt x="352" y="594" on="1"/>
        <pt x="338" y="594" on="1"/>
        <pt x="307" y="470" on="1"/>
        <pt x="270" y="317" on="1"/>
      </contour>
      <contour>
        <pt x="346" y="795" on="1"/>
        <pt x="293" y="795" on="0"/>
        <pt x="215" y="822" on="0"/>
        <pt x="165" y="871" on="0"/>
        <pt x="141" y="941" on="0"/>
        <pt x="141" y="984" on="1"/>
        <pt x="273" y="984" on="1"/>
        <pt x="273" y="930" on="0"/>
        <pt x="302" y="886" on="0"/>
        <pt x="346" y="886" on="1"/>
        <pt x="390" y="886" on="0"/>
        <pt x="419" y="930" on="0"/>
        <pt x="419" y="984" on="1"/>
        <pt x="552" y="984" on="1"/>
        <pt x="552" y="898" on="0"/>
        <pt x="452" y="795" on="0"/>
      </contour>
    </TTGlyph>
    <TTGlyph name="Abreve.sc" xMin="-3" yMin="0" xMax="643" yMax="775">
      <contour>
        <pt x="320" y="618" on="1"/>
        <pt x="270" y="618" on="0"/>
        <pt x="197" y="641" on="0"/>
        <pt x="151" y="682" on="0"/>
        <pt x="129" y="740" on="0"/>
        <pt x="129" y="775" on="1"/>
        <pt x="253" y="775" on="1"/>
        <pt x="253" y="733" on="0"/>
        <pt x="279" y="700" on="0"/>
        <pt x="320" y="700" on="1"/>
        <pt x="361" y="700" on="0"/>
        <pt x="387" y="733" on="0"/>
        <pt x="387" y="775" on="1"/>
        <pt x="512" y="775" on="1"/>
        <pt x="512" y="704" on="0"/>
        <pt x="420" y="618" on="0"/>
      </contour>
      <contour>
        <pt x="-3" y="7" on="1"/>
        <pt x="175" y="577" on="1"/>
        <pt x="466" y="577" on="1"/>
        <pt x="643" y="7" on="1"/>
        <pt x="643" y="0" on="1"/>
        <pt x="459" y="0" on="1"/>
        <pt x="425" y="101" on="1"/>
        <pt x="214" y="101" on="1"/>
        <pt x="181" y="0" on="1"/>
        <pt x="-3" y="0" on="1"/>
      </contour>
      <contour>
        <pt x="393" y="230" on="1"/>
        <pt x="354" y="356" on="1"/>
        <pt x="328" y="443" on="1"/>
        <pt x="312" y="443" on="1"/>
        <pt x="285" y="355" on="1"/>
        <pt x="246" y="230" on="1"/>
      </contour>
    </TTGlyph>
    <TTGlyph name="Acircumflex" xMin="-4" yMin="0" xMax="694" yMax="993">
      <contour>
        <pt x="-4" y="8" on="1"/>
        <pt x="190" y="740" on="1"/>
        <pt x="500" y="740" on="1"/>
        <pt x="694" y="8" on="1"/>
        <pt x="694" y="0" on="1"/>
        <pt x="499" y="0" on="1"/>
        <pt x="459" y="156" on="1"/>
        <pt x="229" y="156" on="1"/>
        <pt x="190" y="0" on="1"/>
        <pt x="-4" y="0" on="1"/>
      </contour>
      <contour>
        <pt x="419" y="317" on="1"/>
        <pt x="382" y="471" on="1"/>
        <pt x="352" y="594" on="1"/>
        <pt x="338" y="594" on="1"/>
        <pt x="307" y="470" on="1"/>
        <pt x="270" y="317" on="1"/>
      </contour>
      <contour>
        <pt x="160" y="919" on="1"/>
        <pt x="347" y="993" on="1"/>
        <pt x="534" y="919" on="1"/>
        <pt x="534" y="789" on="1"/>
        <pt x="347" y="862" on="1"/>
        <pt x="160" y="789" on="1"/>
      </contour>
    </TTGlyph>
    <TTGlyph name="Acircumflex.sc" xMin="-3" yMin="0" xMax="643" yMax="788">
      <contour>
        <pt x="-3" y="7" on="1"/>
        <pt x="175" y="577" on="1"/>
        <pt x="466" y="577" on="1"/>
        <pt x="643" y="7" on="1"/>
        <pt x="643" y="0" on="1"/>
        <pt x="459" y="0" on="1"/>
        <pt x="425" y="101" on="1"/>
        <pt x="214" y="101" on="1"/>
        <pt x="181" y="0" on="1"/>
        <pt x="-3" y="0" on="1"/>
      </contour>
      <contour>
        <pt x="393" y="230" on="1"/>
        <pt x="354" y="356" on="1"/>
        <pt x="328" y="443" on="1"/>
        <pt x="312" y="443" on="1"/>
        <pt x="285" y="355" on="1"/>
        <pt x="246" y="230" on="1"/>
      </contour>
      <contour>
        <pt x="147" y="730" on="1"/>
        <pt x="322" y="788" on="1"/>
        <pt x="496" y="730" on="1"/>
        <pt x="496" y="611" on="1"/>
        <pt x="322" y="669" on="1"/>
        <pt x="147" y="611" on="1"/>
      </contour>
    </TTGlyph>
    <TTGlyph name="Adblgrave" xMin="-4" yMin="0" xMax="694" yMax="993">
      <contour>
        <pt x="-4" y="8" on="1"/>
        <pt x="190" y="740" on="1"/>
        <pt x="500" y="740" on="1"/>
        <pt x="694" y="8" on="1"/>
        <pt x="694" y="0" on="1"/>
        <pt x="499" y="0" on="1"/>
        <pt x="459" y="156" on="1"/>
        <pt x="229" y="156" on="1"/>
        <pt x="190" y="0" on="1"/>
        <pt x="-4" y="0" on="1"/>
      </contour>
      <contour>
        <pt x="419" y="317" on="1"/>
        <pt x="382" y="471" on="1"/>
        <pt x="352" y="594" on="1"/>
        <pt x="338" y="594" on="1"/>
        <pt x="307" y="470" on="1"/>
        <pt x="270" y="317" on="1"/>
      </contour>
      <contour>
        <pt x="188" y="794" on="1"/>
        <pt x="62" y="993" on="1"/>
        <pt x="237" y="993" on="1"/>
        <pt x="301" y="804" on="1"/>
      </contour>
      <contour>
        <pt x="400" y="794" on="1"/>
        <pt x="273" y="993" on="1"/>
        <pt x="449" y="993" on="1"/>
        <pt x="512" y="804" on="1"/>
      </contour>
    </TTGlyph>
    <TTGlyph name="Adblgrave.sc" xMin="-3" yMin="0" xMax="643" yMax="791">
      <contour>
        <pt x="-3" y="7" on="1"/>
        <pt x="175" y="577" on="1"/>
        <pt x="466" y="577" on="1"/>
        <pt x="643" y="7" on="1"/>
        <pt x="643" y="0" on="1"/>
        <pt x="459" y="0" on="1"/>
        <pt x="425" y="101" on="1"/>
        <pt x="214" y="101" on="1"/>
        <pt x="181" y="0" on="1"/>
        <pt x="-3" y="0" on="1"/>
      </contour>
      <contour>
        <pt x="393" y="230" on="1"/>
        <pt x="354" y="356" on="1"/>
        <pt x="328" y="443" on="1"/>
        <pt x="312" y="443" on="1"/>
        <pt x="285" y="355" on="1"/>
        <pt x="246" y="230" on="1"/>
      </contour>
      <contour>
        <pt x="55" y="791" on="1"/>
        <pt x="223" y="791" on="1"/>
        <pt x="279" y="629" on="1"/>
        <pt x="171" y="622" on="1"/>
      </contour>
      <contour>
        <pt x="252" y="791" on="1"/>
        <pt x="419" y="791" on="1"/>
        <pt x="475" y="629" on="1"/>
        <pt x="367" y="622" on="1"/>
      </contour>
    </TTGlyph>
    <TTGlyph name="Adieresis" xMin="-4" yMin="0" xMax="694" yMax="1005">
      <contour>
        <pt x="-4" y="8" on="1"/>
        <pt x="190" y="740" on="1"/>
        <pt x="500" y="740" on="1"/>
        <pt x="694" y="8" on="1"/>
        <pt x="694" y="0" on="1"/>
        <pt x="499" y="0" on="1"/>
        <pt x="459" y="156" on="1"/>
        <pt x="229" y="156" on="1"/>
        <pt x="190" y="0" on="1"/>
        <pt x="-4" y="0" on="1"/>
      </contour>
      <contour>
        <pt x="419" y="317" on="1"/>
        <pt x="382" y="471" on="1"/>
        <pt x="352" y="594" on="1"/>
        <pt x="338" y="594" on="1"/>
        <pt x="307" y="470" on="1"/>
        <pt x="270" y="317" on="1"/>
      </contour>
      <contour>
        <pt x="206" y="797" on="1"/>
        <pt x="149" y="797" on="0"/>
        <pt x="99" y="846" on="0"/>
        <pt x="99" y="902" on="1"/>
        <pt x="99" y="957" on="0"/>
        <pt x="149" y="1005" on="0"/>
        <pt x="206" y="1005" on="1"/>
        <pt x="263" y="1005" on="0"/>
        <pt x="314" y="956" on="0"/>
        <pt x="314" y="902" on="1"/>
        <pt x="314" y="847" on="0"/>
        <pt x="263" y="797" on="0"/>
      </contour>
      <contour>
        <pt x="485" y="797" on="1"/>
        <pt x="427" y="797" on="0"/>
        <pt x="378" y="846" on="0"/>
        <pt x="378" y="902" on="1"/>
        <pt x="378" y="957" on="0"/>
        <pt x="427" y="1005" on="0"/>
        <pt x="485" y="1005" on="1"/>
        <pt x="542" y="1005" on="0"/>
        <pt x="592" y="956" on="0"/>
        <pt x="592" y="902" on="1"/>
        <pt x="592" y="847" on="0"/>
        <pt x="542" y="797" on="0"/>
      </contour>
    </TTGlyph>
    <TTGlyph name="Adieresis.sc" xMin="-3" yMin="0" xMax="643" yMax="809">
      <contour>
        <pt x="193" y="617" on="1"/>
        <pt x="139" y="617" on="0"/>
        <pt x="93" y="663" on="0"/>
        <pt x="93" y="714" on="1"/>
        <pt x="93" y="764" on="0"/>
        <pt x="139" y="809" on="0"/>
        <pt x="193" y="809" on="1"/>
        <pt x="247" y="809" on="0"/>
        <pt x="293" y="764" on="0"/>
        <pt x="293" y="714" on="1"/>
        <pt x="293" y="663" on="0"/>
        <pt x="247" y="617" on="0"/>
      </contour>
      <contour>
        <pt x="449" y="617" on="1"/>
        <pt x="395" y="617" on="0"/>
        <pt x="350" y="663" on="0"/>
        <pt x="350" y="714" on="1"/>
        <pt x="350" y="764" on="0"/>
        <pt x="395" y="809" on="0"/>
        <pt x="449" y="809" on="1"/>
        <pt x="503" y="809" on="0"/>
        <pt x="550" y="764" on="0"/>
        <pt x="550" y="714" on="1"/>
        <pt x="550" y="663" on="0"/>
        <pt x="503" y="617" on="0"/>
      </contour>
      <contour>
        <pt x="-3" y="7" on="1"/>
        <pt x="175" y="577" on="1"/>
        <pt x="466" y="577" on="1"/>
        <pt x="643" y="7" on="1"/>
        <pt x="643" y="0" on="1"/>
        <pt x="459" y="0" on="1"/>
        <pt x="425" y="101" on="1"/>
        <pt x="214" y="101" on="1"/>
        <pt x="181" y="0" on="1"/>
        <pt x="-3" y="0" on="1"/>
      </contour>
      <contour>
        <pt x="393" y="230" on="1"/>
        <pt x="354" y="356" on="1"/>
        <pt x="328" y="443" on="1"/>
        <pt x="312" y="443" on="1"/>
        <pt x="285" y="355" on="1"/>
        <pt x="246" y="230" on="1"/>
      </contour>
    </TTGlyph>
    <TTGlyph name="Agrave" xMin="-4" yMin="0" xMax="694" yMax="993">
      <contour>
        <pt x="-4" y="8" on="1"/>
        <pt x="190" y="740" on="1"/>
        <pt x="500" y="740" on="1"/>
        <pt x="694" y="8" on="1"/>
        <pt x="694" y="0" on="1"/>
        <pt x="499" y="0" on="1"/>
        <pt x="459" y="156" on="1"/>
        <pt x="229" y="156" on="1"/>
        <pt x="190" y="0" on="1"/>
        <pt x="-4" y="0" on="1"/>
      </contour>
      <contour>
        <pt x="419" y="317" on="1"/>
        <pt x="382" y="471" on="1"/>
        <pt x="352" y="594" on="1"/>
        <pt x="338" y="594" on="1"/>
        <pt x="307" y="470" on="1"/>
        <pt x="270" y="317" on="1"/>
      </contour>
      <contour>
        <pt x="266" y="794" on="1"/>
        <pt x="141" y="993" on="1"/>
        <pt x="345" y="993" on="1"/>
        <pt x="409" y="804" on="1"/>
      </contour>
    </TTGlyph>
    <TTGlyph name="Agrave.sc" xMin="-3" yMin="0" xMax="643" yMax="790">
      <contour>
        <pt x="-3" y="7" on="1"/>
        <pt x="175" y="577" on="1"/>
        <pt x="466" y="577" on="1"/>
        <pt x="643" y="7" on="1"/>
        <pt x="643" y="0" on="1"/>
        <pt x="459" y="0" on="1"/>
        <pt x="425" y="101" on="1"/>
        <pt x="214" y="101" on="1"/>
        <pt x="181" y="0" on="1"/>
        <pt x="-3" y="0" on="1"/>
      </contour>
      <contour>
        <pt x="393" y="230" on="1"/>
        <pt x="354" y="356" on="1"/>
        <pt x="328" y="443" on="1"/>
        <pt x="312" y="443" on="1"/>
        <pt x="285" y="355" on="1"/>
        <pt x="246" y="230" on="1"/>
      </contour>
      <contour>
        <pt x="246" y="621" on="1"/>
        <pt x="131" y="790" on="1"/>
        <pt x="323" y="790" on="1"/>
        <pt x="380" y="628" on="1"/>
      </contour>
    </TTGlyph>
    <TTGlyph name="Ainvertedbreve" xMin="-4" yMin="0" xMax="694" yMax="994">
      <contour>
        <pt x="-4" y="8" on="1"/>
        <pt x="190" y="740" on="1"/>
        <pt x="500" y="740" on="1"/>
        <pt x="694" y="8" on="1"/>
        <pt x="694" y="0" on="1"/>
        <pt x="499" y="0" on="1"/>
        <pt x="459" y="156" on="1"/>
        <pt x="229" y="156" on="1"/>
        <pt x="190" y="0" on="1"/>
        <pt x="-4" y="0" on="1"/>
      </contour>
      <contour>
        <pt x="419" y="317" on="1"/>
        <pt x="382" y="471" on="1"/>
        <pt x="352" y="594" on="1"/>
        <pt x="338" y="594" on="1"/>
        <pt x="307" y="470" on="1"/>
        <pt x="270" y="317" on="1"/>
      </contour>
      <contour>
        <pt x="420" y="805" on="1"/>
        <pt x="420" y="859" on="0"/>
        <pt x="391" y="903" on="0"/>
        <pt x="347" y="903" on="1"/>
        <pt x="303" y="903" on="0"/>
        <pt x="274" y="858" on="0"/>
        <pt x="274" y="805" on="1"/>
        <pt x="142" y="805" on="1"/>
        <pt x="142" y="848" on="0"/>
        <pt x="166" y="917" on="0"/>
        <pt x="216" y="967" on="0"/>
        <pt x="294" y="994" on="0"/>
        <pt x="347" y="994" on="1"/>
        <pt x="453" y="994" on="0"/>
        <pt x="553" y="892" on="0"/>
        <pt x="553" y="805" on="1"/>
      </contour>
    </TTGlyph>
    <TTGlyph name="Ainvertedbreve.sc" xMin="-3" yMin="0" xMax="643" yMax="784">
      <contour>
        <pt x="131" y="627" on="1"/>
        <pt x="131" y="697" on="0"/>
        <pt x="222" y="784" on="0"/>
        <pt x="323" y="784" on="1"/>
        <pt x="423" y="784" on="0"/>
        <pt x="514" y="698" on="0"/>
        <pt x="514" y="627" on="1"/>
        <pt x="389" y="627" on="1"/>
        <pt x="389" y="669" on="0"/>
        <pt x="364" y="701" on="0"/>
        <pt x="323" y="701" on="1"/>
        <pt x="281" y="701" on="0"/>
        <pt x="255" y="668" on="0"/>
        <pt x="255" y="627" on="1"/>
      </contour>
      <contour>
        <pt x="-3" y="7" on="1"/>
        <pt x="175" y="577" on="1"/>
        <pt x="466" y="577" on="1"/>
        <pt x="643" y="7" on="1"/>
        <pt x="643" y="0" on="1"/>
        <pt x="459" y="0" on="1"/>
        <pt x="425" y="101" on="1"/>
        <pt x="214" y="101" on="1"/>
        <pt x="181" y="0" on="1"/>
        <pt x="-3" y="0" on="1"/>
      </contour>
      <contour>
        <pt x="393" y="230" on="1"/>
        <pt x="354" y="356" on="1"/>
        <pt x="328" y="443" on="1"/>
        <pt x="312" y="443" on="1"/>
        <pt x="285" y="355" on="1"/>
        <pt x="246" y="230" on="1"/>
      </contour>
    </TTGlyph>
    <TTGlyph name="Amacron" xMin="-4" yMin="0" xMax="694" yMax="968">
      <contour>
        <pt x="-4" y="8" on="1"/>
        <pt x="190" y="740" on="1"/>
        <pt x="500" y="740" on="1"/>
        <pt x="694" y="8" on="1"/>
        <pt x="694" y="0" on="1"/>
        <pt x="499" y="0" on="1"/>
        <pt x="459" y="156" on="1"/>
        <pt x="229" y="156" on="1"/>
        <pt x="190" y="0" on="1"/>
        <pt x="-4" y="0" on="1"/>
      </contour>
      <contour>
        <pt x="419" y="317" on="1"/>
        <pt x="382" y="471" on="1"/>
        <pt x="352" y="594" on="1"/>
        <pt x="338" y="594" on="1"/>
        <pt x="307" y="470" on="1"/>
        <pt x="270" y="317" on="1"/>
      </contour>
      <contour>
        <pt x="159" y="968" on="1"/>
        <pt x="533" y="968" on="1"/>
        <pt x="533" y="838" on="1"/>
        <pt x="159" y="838" on="1"/>
      </contour>
    </TTGlyph>
    <TTGlyph name="Amacron.sc" xMin="-3" yMin="0" xMax="643" yMax="774">
      <contour>
        <pt x="-3" y="7" on="1"/>
        <pt x="175" y="577" on="1"/>
        <pt x="466" y="577" on="1"/>
        <pt x="643" y="7" on="1"/>
        <pt x="643" y="0" on="1"/>
        <pt x="459" y="0" on="1"/>
        <pt x="425" y="101" on="1"/>
        <pt x="214" y="101" on="1"/>
        <pt x="181" y="0" on="1"/>
        <pt x="-3" y="0" on="1"/>
      </contour>
      <contour>
        <pt x="393" y="230" on="1"/>
        <pt x="354" y="356" on="1"/>
        <pt x="328" y="443" on="1"/>
        <pt x="312" y="443" on="1"/>
        <pt x="285" y="355" on="1"/>
        <pt x="246" y="230" on="1"/>
      </contour>
      <contour>
        <pt x="147" y="774" on="1"/>
        <pt x="496" y="774" on="1"/>
        <pt x="496" y="653" on="1"/>
        <pt x="147" y="653" on="1"/>
      </contour>
    </TTGlyph>
    <TTGlyph name="Aogonek" xMin="-4" yMin="-220" xMax="695" yMax="740">
      <contour>
        <pt x="599" y="-220" on="1"/>
        <pt x="455" y="-220" on="0"/>
        <pt x="455" y="-118" on="1"/>
        <pt x="455" y="-86" on="0"/>
        <pt x="490" y="-29" on="0"/>
        <pt x="529" y="0" on="1"/>
        <pt x="499" y="0" on="1"/>
        <pt x="459" y="156" on="1"/>
        <pt x="229" y="156" on="1"/>
        <pt x="190" y="0" on="1"/>
        <pt x="-4" y="0" on="1"/>
        <pt x="-4" y="8" on="1"/>
        <pt x="190" y="740" on="1"/>
        <pt x="500" y="740" on="1"/>
        <pt x="694" y="8" on="1"/>
        <pt x="694" y="-5" on="1"/>
        <pt x="661" y="-18" on="0"/>
        <pt x="618" y="-43" on="0"/>
        <pt x="592" y="-66" on="0"/>
        <pt x="581" y="-86" on="0"/>
        <pt x="581" y="-93" on="1"/>
        <pt x="581" y="-103" on="0"/>
        <pt x="599" y="-111" on="0"/>
        <pt x="614" y="-111" on="1"/>
        <pt x="631" y="-111" on="0"/>
        <pt x="677" y="-102" on="0"/>
        <pt x="695" y="-97" on="1"/>
        <pt x="695" y="-208" on="1"/>
        <pt x="669" y="-213" on="0"/>
        <pt x="625" y="-220" on="0"/>
      </contour>
      <contour>
        <pt x="419" y="317" on="1"/>
        <pt x="382" y="471" on="1"/>
        <pt x="352" y="594" on="1"/>
        <pt x="338" y="594" on="1"/>
        <pt x="307" y="470" on="1"/>
        <pt x="270" y="317" on="1"/>
      </contour>
    </TTGlyph>
    <TTGlyph name="Aogonek.sc" xMin="-3" yMin="-167" xMax="643" yMax="577">
      <contour>
        <pt x="554" y="-167" on="1"/>
        <pt x="488" y="-167" on="0"/>
        <pt x="420" y="-125" on="0"/>
        <pt x="420" y="-84" on="1"/>
        <pt x="420" y="-38" on="0"/>
        <pt x="477" y="0" on="1"/>
        <pt x="458" y="0" on="1"/>
        <pt x="425" y="101" on="1"/>
        <pt x="214" y="101" on="1"/>
        <pt x="181" y="0" on="1"/>
        <pt x="-3" y="0" on="1"/>
        <pt x="-3" y="7" on="1"/>
        <pt x="174" y="577" on="1"/>
        <pt x="465" y="577" on="1"/>
        <pt x="642" y="7" on="1"/>
        <pt x="642" y="-1" on="1"/>
        <pt x="609" y="-12" on="0"/>
        <pt x="568" y="-30" on="0"/>
        <pt x="546" y="-45" on="0"/>
        <pt x="539" y="-55" on="0"/>
        <pt x="539" y="-58" on="1"/>
        <pt x="539" y="-67" on="0"/>
        <pt x="566" y="-67" on="1"/>
        <pt x="583" y="-67" on="0"/>
        <pt x="628" y="-60" on="0"/>
        <pt x="643" y="-56" on="1"/>
        <pt x="643" y="-158" on="1"/>
        <pt x="619" y="-163" on="0"/>
        <pt x="577" y="-167" on="0"/>
      </contour>
      <contour>
        <pt x="392" y="230" on="1"/>
        <pt x="354" y="358" on="1"/>
        <pt x="328" y="443" on="1"/>
        <pt x="312" y="443" on="1"/>
        <pt x="285" y="358" on="1"/>
        <pt x="245" y="230" on="1"/>
      </contour>
    </TTGlyph>
    <TTGlyph name="Aring" xMin="-4" yMin="0" xMax="694" yMax="1003">
      <contour>
        <pt x="-4" y="8" on="1"/>
        <pt x="190" y="740" on="1"/>
        <pt x="500" y="740" on="1"/>
        <pt x="694" y="8" on="1"/>
        <pt x="694" y="0" on="1"/>
        <pt x="499" y="0" on="1"/>
        <pt x="459" y="156" on="1"/>
        <pt x="229" y="156" on="1"/>
        <pt x="190" y="0" on="1"/>
        <pt x="-4" y="0" on="1"/>
      </contour>
      <contour>
        <pt x="419" y="317" on="1"/>
        <pt x="382" y="471" on="1"/>
        <pt x="352" y="594" on="1"/>
        <pt x="338" y="594" on="1"/>
        <pt x="307" y="470" on="1"/>
        <pt x="270" y="317" on="1"/>
      </contour>
      <contour>
        <pt x="343" y="770" on="1"/>
        <pt x="287" y="770" on="0"/>
        <pt x="214" y="835" on="0"/>
        <pt x="214" y="886" on="1"/>
        <pt x="214" y="911" on="0"/>
        <pt x="233" y="954" on="0"/>
        <pt x="268" y="986" on="0"/>
        <pt x="315" y="1003" on="0"/>
        <pt x="343" y="1003" on="1"/>
        <pt x="400" y="1003" on="0"/>
        <pt x="473" y="937" on="0"/>
        <pt x="473" y="886" on="1"/>
        <pt x="473" y="861" on="0"/>
        <pt x="454" y="818" on="0"/>
        <pt x="419" y="787" on="0"/>
        <pt x="371" y="770" on="0"/>
      </contour>
      <contour>
        <pt x="343" y="834" on="1"/>
        <pt x="375" y="834" on="0"/>
        <pt x="400" y="858" on="0"/>
        <pt x="400" y="886" on="1"/>
        <pt x="400" y="915" on="0"/>
        <pt x="375" y="940" on="0"/>
        <pt x="343" y="940" on="1"/>
        <pt x="311" y="940" on="0"/>
        <pt x="287" y="915" on="0"/>
        <pt x="287" y="886" on="1"/>
        <pt x="287" y="858" on="0"/>
        <pt x="311" y="834" on="0"/>
      </contour>
    </TTGlyph>
    <TTGlyph name="Aring.sc" xMin="-3" yMin="0" xMax="643" yMax="796">
      <contour>
        <pt x="-3" y="7" on="1"/>
        <pt x="175" y="577" on="1"/>
        <pt x="466" y="577" on="1"/>
        <pt x="643" y="7" on="1"/>
        <pt x="643" y="0" on="1"/>
        <pt x="459" y="0" on="1"/>
        <pt x="425" y="101" on="1"/>
        <pt x="214" y="101" on="1"/>
        <pt x="181" y="0" on="1"/>
        <pt x="-3" y="0" on="1"/>
      </contour>
      <contour>
        <pt x="393" y="230" on="1"/>
        <pt x="354" y="356" on="1"/>
        <pt x="328" y="443" on="1"/>
        <pt x="312" y="443" on="1"/>
        <pt x="285" y="355" on="1"/>
        <pt x="245" y="230" on="1"/>
      </contour>
      <contour>
        <pt x="319" y="609" on="1"/>
        <pt x="268" y="609" on="0"/>
        <pt x="200" y="660" on="0"/>
        <pt x="200" y="701" on="1"/>
        <pt x="200" y="743" on="0"/>
        <pt x="268" y="796" on="0"/>
        <pt x="319" y="796" on="1"/>
        <pt x="371" y="796" on="0"/>
        <pt x="438" y="743" on="0"/>
        <pt x="438" y="701" on="1"/>
        <pt x="438" y="660" on="0"/>
        <pt x="371" y="609" on="0"/>
      </contour>
      <contour>
        <pt x="319" y="665" on="1"/>
        <pt x="348" y="665" on="0"/>
        <pt x="370" y="680" on="0"/>
        <pt x="370" y="701" on="1"/>
        <pt x="370" y="724" on="0"/>
        <pt x="348" y="740" on="0"/>
        <pt x="319" y="740" on="1"/>
        <pt x="289" y="740" on="0"/>
        <pt x="268" y="724" on="0"/>
        <pt x="268" y="701" on="1"/>
        <pt x="268" y="680" on="0"/>
        <pt x="289" y="665" on="0"/>
      </contour>
    </TTGlyph>
    <TTGlyph name="Aringacute" xMin="-5" yMin="0" xMax="693" yMax="1030">
      <contour>
        <pt x="-5" y="8" on="1"/>
        <pt x="182" y="679" on="1"/>
        <pt x="159" y="714" on="0"/>
        <pt x="159" y="760" on="1"/>
        <pt x="159" y="819" on="0"/>
        <pt x="230" y="899" on="0"/>
        <pt x="293" y="911" on="1"/>
        <pt x="333" y="1030" on="1"/>
        <pt x="537" y="1030" on="1"/>
        <pt x="449" y="891" on="1"/>
        <pt x="487" y="871" on="0"/>
        <pt x="529" y="804" on="0"/>
        <pt x="529" y="760" on="1"/>
        <pt x="529" y="714" on="0"/>
        <pt x="506" y="680" on="1"/>
        <pt x="693" y="8" on="1"/>
        <pt x="693" y="0" on="1"/>
        <pt x="499" y="0" on="1"/>
        <pt x="460" y="153" on="1"/>
        <pt x="227" y="153" on="1"/>
        <pt x="189" y="0" on="1"/>
        <pt x="-5" y="0" on="1"/>
      </contour>
      <contour>
        <pt x="343" y="697" on="1"/>
        <pt x="377" y="697" on="0"/>
        <pt x="418" y="732" on="0"/>
        <pt x="418" y="760" on="1"/>
        <pt x="418" y="789" on="0"/>
        <pt x="377" y="824" on="0"/>
        <pt x="343" y="824" on="1"/>
        <pt x="310" y="824" on="0"/>
        <pt x="270" y="789" on="0"/>
        <pt x="270" y="760" on="1"/>
        <pt x="270" y="731" on="0"/>
        <pt x="311" y="697" on="0"/>
      </contour>
      <contour>
        <pt x="417" y="321" on="1"/>
        <pt x="382" y="471" on="1"/>
        <pt x="352" y="594" on="1"/>
        <pt x="335" y="594" on="1"/>
        <pt x="306" y="470" on="1"/>
        <pt x="270" y="321" on="1"/>
      </contour>
    </TTGlyph>
    <TTGlyph name="Aringacute.sc" xMin="-3" yMin="0" xMax="642" yMax="823">
      <contour>
        <pt x="-3" y="7" on="1"/>
        <pt x="167" y="536" on="1"/>
        <pt x="147" y="567" on="0"/>
        <pt x="147" y="599" on="1"/>
        <pt x="147" y="649" on="0"/>
        <pt x="213" y="714" on="0"/>
        <pt x="271" y="725" on="1"/>
        <pt x="306" y="823" on="1"/>
        <pt x="498" y="823" on="1"/>
        <pt x="418" y="707" on="1"/>
        <pt x="453" y="690" on="0"/>
        <pt x="493" y="634" on="0"/>
        <pt x="493" y="599" on="1"/>
        <pt x="493" y="581" on="0"/>
        <pt x="482" y="550" on="0"/>
        <pt x="471" y="536" on="1"/>
        <pt x="642" y="7" on="1"/>
        <pt x="642" y="0" on="1"/>
        <pt x="458" y="0" on="1"/>
        <pt x="424" y="101" on="1"/>
        <pt x="213" y="101" on="1"/>
        <pt x="180" y="0" on="1"/>
        <pt x="-3" y="0" on="1"/>
      </contour>
      <contour>
        <pt x="319" y="550" on="1"/>
        <pt x="350" y="550" on="0"/>
        <pt x="387" y="577" on="0"/>
        <pt x="387" y="599" on="1"/>
        <pt x="387" y="622" on="0"/>
        <pt x="350" y="647" on="0"/>
        <pt x="319" y="647" on="1"/>
        <pt x="288" y="647" on="0"/>
        <pt x="252" y="622" on="0"/>
        <pt x="252" y="599" on="1"/>
        <pt x="252" y="576" on="0"/>
        <pt x="289" y="550" on="0"/>
      </contour>
      <contour>
        <pt x="393" y="230" on="1"/>
        <pt x="353" y="356" on="1"/>
        <pt x="326" y="456" on="1"/>
        <pt x="312" y="456" on="1"/>
        <pt x="284" y="355" on="1"/>
        <pt x="246" y="230" on="1"/>
      </contour>
    </TTGlyph>
    <TTGlyph name="Atilde" xMin="-4" yMin="0" xMax="694" yMax="977">
      <contour>
        <pt x="-4" y="8" on="1"/>
        <pt x="190" y="740" on="1"/>
        <pt x="500" y="740" on="1"/>
        <pt x="694" y="8" on="1"/>
        <pt x="694" y="0" on="1"/>
        <pt x="499" y="0" on="1"/>
        <pt x="459" y="156" on="1"/>
        <pt x="229" y="156" on="1"/>
        <pt x="190" y="0" on="1"/>
        <pt x="-4" y="0" on="1"/>
      </contour>
      <contour>
        <pt x="419" y="317" on="1"/>
        <pt x="382" y="471" on="1"/>
        <pt x="352" y="594" on="1"/>
        <pt x="338" y="594" on="1"/>
        <pt x="307" y="470" on="1"/>
        <pt x="270" y="317" on="1"/>
      </contour>
      <contour>
        <pt x="136" y="840" on="1"/>
        <pt x="170" y="909" on="0"/>
        <pt x="254" y="977" on="0"/>
        <pt x="295" y="977" on="1"/>
        <pt x="317" y="977" on="0"/>
        <pt x="360" y="965" on="0"/>
        <pt x="403" y="951" on="0"/>
        <pt x="447" y="939" on="0"/>
        <pt x="469" y="939" on="1"/>
        <pt x="490" y="939" on="0"/>
        <pt x="529" y="954" on="0"/>
        <pt x="555" y="977" on="1"/>
        <pt x="578" y="951" on="1"/>
        <pt x="544" y="882" on="0"/>
        <pt x="460" y="815" on="0"/>
        <pt x="420" y="815" on="1"/>
        <pt x="398" y="815" on="0"/>
        <pt x="354" y="827" on="0"/>
        <pt x="310" y="840" on="0"/>
        <pt x="267" y="852" on="0"/>
        <pt x="245" y="852" on="1"/>
        <pt x="223" y="852" on="0"/>
        <pt x="184" y="837" on="0"/>
        <pt x="159" y="815" on="1"/>
      </contour>
    </TTGlyph>
    <TTGlyph name="Atilde.sc" xMin="-3" yMin="0" xMax="643" yMax="779">
      <contour>
        <pt x="-3" y="7" on="1"/>
        <pt x="175" y="577" on="1"/>
        <pt x="466" y="577" on="1"/>
        <pt x="643" y="7" on="1"/>
        <pt x="643" y="0" on="1"/>
        <pt x="459" y="0" on="1"/>
        <pt x="425" y="101" on="1"/>
        <pt x="214" y="101" on="1"/>
        <pt x="181" y="0" on="1"/>
        <pt x="-3" y="0" on="1"/>
      </contour>
      <contour>
        <pt x="393" y="230" on="1"/>
        <pt x="354" y="356" on="1"/>
        <pt x="328" y="443" on="1"/>
        <pt x="312" y="443" on="1"/>
        <pt x="285" y="355" on="1"/>
        <pt x="245" y="230" on="1"/>
      </contour>
      <contour>
        <pt x="126" y="654" on="1"/>
        <pt x="157" y="717" on="0"/>
        <pt x="235" y="778" on="0"/>
        <pt x="273" y="778" on="1"/>
        <pt x="293" y="778" on="0"/>
        <pt x="333" y="769" on="0"/>
        <pt x="374" y="759" on="0"/>
        <pt x="415" y="750" on="0"/>
        <pt x="436" y="750" on="1"/>
        <pt x="455" y="750" on="0"/>
        <pt x="491" y="761" on="0"/>
        <pt x="516" y="779" on="1"/>
        <pt x="536" y="757" on="1"/>
        <pt x="504" y="694" on="0"/>
        <pt x="426" y="634" on="0"/>
        <pt x="389" y="634" on="1"/>
        <pt x="368" y="634" on="0"/>
        <pt x="327" y="643" on="0"/>
        <pt x="287" y="653" on="0"/>
        <pt x="246" y="662" on="0"/>
        <pt x="225" y="662" on="1"/>
        <pt x="205" y="662" on="0"/>
        <pt x="169" y="652" on="0"/>
        <pt x="146" y="634" on="1"/>
      </contour>
    </TTGlyph>
    <TTGlyph name="B" xMin="54" yMin="-10" xMax="629" yMax="750">
      <contour>
        <pt x="292" y="-10" on="1"/>
        <pt x="174" y="-10" on="0"/>
        <pt x="54" y="5" on="1"/>
        <pt x="54" y="735" on="1"/>
        <pt x="123" y="743" on="0"/>
        <pt x="240" y="750" on="0"/>
        <pt x="292" y="750" on="1"/>
        <pt x="458" y="750" on="0"/>
        <pt x="609" y="648" on="0"/>
        <pt x="609" y="537" on="1"/>
        <pt x="609" y="414" on="0"/>
        <pt x="496" y="383" on="1"/>
        <pt x="496" y="379" on="1"/>
        <pt x="561" y="365" on="0"/>
        <pt x="629" y="277" on="0"/>
        <pt x="629" y="205" on="1"/>
        <pt x="629" y="-10" on="0"/>
      </contour>
      <contour>
        <pt x="313" y="141" on="1"/>
        <pt x="421" y="141" on="0"/>
        <pt x="421" y="220" on="1"/>
        <pt x="421" y="265" on="0"/>
        <pt x="373" y="301" on="0"/>
        <pt x="312" y="301" on="1"/>
        <pt x="244" y="301" on="1"/>
        <pt x="244" y="145" on="1"/>
        <pt x="254" y="143" on="0"/>
        <pt x="280" y="141" on="0"/>
      </contour>
      <contour>
        <pt x="306" y="442" on="1"/>
        <pt x="360" y="442" on="0"/>
        <pt x="401" y="477" on="0"/>
        <pt x="401" y="523" on="1"/>
        <pt x="401" y="563" on="0"/>
        <pt x="359" y="600" on="0"/>
        <pt x="311" y="600" on="1"/>
        <pt x="280" y="600" on="0"/>
        <pt x="244" y="594" on="1"/>
        <pt x="244" y="442" on="1"/>
      </contour>
    </TTGlyph>
    <TTGlyph name="B.sc" xMin="52" yMin="-8" xMax="585" yMax="585">
      <contour>
        <pt x="278" y="-8" on="1"/>
        <pt x="221" y="-8" on="0"/>
        <pt x="111" y="-2" on="0"/>
        <pt x="52" y="4" on="1"/>
        <pt x="52" y="573" on="1"/>
        <pt x="178" y="585" on="0"/>
        <pt x="275" y="585" on="1"/>
        <pt x="427" y="585" on="0"/>
        <pt x="566" y="504" on="0"/>
        <pt x="566" y="416" on="1"/>
        <pt x="566" y="326" on="0"/>
        <pt x="463" y="299" on="1"/>
        <pt x="463" y="296" on="1"/>
        <pt x="523" y="285" on="0"/>
        <pt x="585" y="218" on="0"/>
        <pt x="585" y="162" on="1"/>
        <pt x="585" y="-8" on="0"/>
      </contour>
      <contour>
        <pt x="298" y="128" on="1"/>
        <pt x="398" y="128" on="0"/>
        <pt x="398" y="178" on="1"/>
        <pt x="398" y="208" on="0"/>
        <pt x="353" y="230" on="0"/>
        <pt x="297" y="230" on="1"/>
        <pt x="231" y="230" on="1"/>
        <pt x="231" y="130" on="1"/>
        <pt x="235" y="129" on="0"/>
        <pt x="244" y="128" on="0"/>
        <pt x="258" y="128" on="0"/>
        <pt x="280" y="128" on="0"/>
      </contour>
      <contour>
        <pt x="290" y="350" on="1"/>
        <pt x="339" y="350" on="0"/>
        <pt x="377" y="372" on="0"/>
        <pt x="377" y="402" on="1"/>
        <pt x="377" y="428" on="0"/>
        <pt x="338" y="449" on="0"/>
        <pt x="294" y="449" on="1"/>
        <pt x="280" y="449" on="0"/>
        <pt x="247" y="448" on="0"/>
        <pt x="231" y="446" on="1"/>
        <pt x="231" y="350" on="1"/>
      </contour>
    </TTGlyph>
    <TTGlyph name="C" xMin="28" yMin="-11" xMax="518" yMax="751">
      <contour>
        <pt x="362" y="-11" on="1"/>
        <pt x="194" y="-11" on="0"/>
        <pt x="28" y="175" on="0"/>
        <pt x="28" y="370" on="1"/>
        <pt x="28" y="565" on="0"/>
        <pt x="194" y="751" on="0"/>
        <pt x="355" y="751" on="1"/>
        <pt x="391" y="751" on="0"/>
        <pt x="470" y="742" on="0"/>
        <pt x="518" y="734" on="1"/>
        <pt x="518" y="573" on="1"/>
        <pt x="473" y="579" on="0"/>
        <pt x="411" y="584" on="0"/>
        <pt x="385" y="584" on="1"/>
        <pt x="343" y="584" on="0"/>
        <pt x="286" y="567" on="0"/>
        <pt x="252" y="521" on="0"/>
        <pt x="238" y="436" on="0"/>
        <pt x="238" y="369" on="1"/>
        <pt x="238" y="302" on="0"/>
        <pt x="252" y="219" on="0"/>
        <pt x="286" y="172" on="0"/>
        <pt x="342" y="156" on="0"/>
        <pt x="384" y="156" on="1"/>
        <pt x="419" y="156" on="0"/>
        <pt x="489" y="164" on="0"/>
        <pt x="518" y="171" on="1"/>
        <pt x="518" y="12" on="1"/>
        <pt x="492" y="2" on="0"/>
        <pt x="406" y="-11" on="0"/>
      </contour>
    </TTGlyph>
    <TTGlyph name="C.sc" xMin="27" yMin="-9" xMax="478" yMax="586">
      <contour>
        <pt x="336" y="-9" on="1"/>
        <pt x="181" y="-9" on="0"/>
        <pt x="27" y="136" on="0"/>
        <pt x="27" y="289" on="1"/>
        <pt x="27" y="440" on="0"/>
        <pt x="180" y="586" on="0"/>
        <pt x="329" y="586" on="1"/>
        <pt x="364" y="586" on="0"/>
        <pt x="436" y="579" on="0"/>
        <pt x="478" y="572" on="1"/>
        <pt x="478" y="422" on="1"/>
        <pt x="440" y="427" on="0"/>
        <pt x="383" y="431" on="0"/>
        <pt x="356" y="431" on="1"/>
        <pt x="317" y="431" on="0"/>
        <pt x="267" y="422" on="0"/>
        <pt x="237" y="392" on="0"/>
        <pt x="226" y="335" on="0"/>
        <pt x="226" y="288" on="1"/>
        <pt x="226" y="241" on="0"/>
        <pt x="237" y="185" on="0"/>
        <pt x="266" y="156" on="0"/>
        <pt x="316" y="147" on="0"/>
        <pt x="355" y="147" on="1"/>
        <pt x="387" y="147" on="0"/>
        <pt x="453" y="153" on="0"/>
        <pt x="478" y="159" on="1"/>
        <pt x="478" y="10" on="1"/>
        <pt x="455" y="2" on="0"/>
        <pt x="377" y="-9" on="0"/>
      </contour>
    </TTGlyph>
    <TTGlyph name="Cacute" xMin="28" yMin="-11" xMax="518" yMax="993">
      <contour>
        <pt x="362" y="-11" on="1"/>
        <pt x="194" y="-11" on="0"/>
        <pt x="28" y="175" on="0"/>
        <pt x="28" y="370" on="1"/>
        <pt x="28" y="565" on="0"/>
        <pt x="194" y="751" on="0"/>
        <pt x="355" y="751" on="1"/>
        <pt x="391" y="751" on="0"/>
        <pt x="470" y="742" on="0"/>
        <pt x="518" y="734" on="1"/>
        <pt x="518" y="573" on="1"/>
        <pt x="473" y="579" on="0"/>
        <pt x="411" y="584" on="0"/>
        <pt x="385" y="584" on="1"/>
        <pt x="343" y="584" on="0"/>
        <pt x="286" y="567" on="0"/>
        <pt x="252" y="521" on="0"/>
        <pt x="238" y="436" on="0"/>
        <pt x="238" y="369" on="1"/>
        <pt x="238" y="302" on="0"/>
        <pt x="252" y="219" on="0"/>
        <pt x="286" y="172" on="0"/>
        <pt x="342" y="156" on="0"/>
        <pt x="384" y="156" on="1"/>
        <pt x="419" y="156" on="0"/>
        <pt x="489" y="164" on="0"/>
        <pt x="518" y="171" on="1"/>
        <pt x="518" y="12" on="1"/>
        <pt x="492" y="2" on="0"/>
        <pt x="406" y="-11" on="0"/>
      </contour>
      <contour>
        <pt x="225" y="804" on="1"/>
        <pt x="289" y="993" on="1"/>
        <pt x="493" y="993" on="1"/>
        <pt x="368" y="794" on="1"/>
      </contour>
    </TTGlyph>
    <TTGlyph name="Cacute.sc" xMin="27" yMin="-9" xMax="478" yMax="790">
      <contour>
        <pt x="336" y="-9" on="1"/>
        <pt x="181" y="-9" on="0"/>
        <pt x="27" y="136" on="0"/>
        <pt x="27" y="289" on="1"/>
        <pt x="27" y="440" on="0"/>
        <pt x="179" y="586" on="0"/>
        <pt x="328" y="586" on="1"/>
        <pt x="361" y="586" on="0"/>
        <pt x="433" y="580" on="0"/>
        <pt x="478" y="572" on="1"/>
        <pt x="478" y="422" on="1"/>
        <pt x="434" y="427" on="0"/>
        <pt x="379" y="431" on="0"/>
        <pt x="355" y="431" on="1"/>
        <pt x="317" y="431" on="0"/>
        <pt x="267" y="422" on="0"/>
        <pt x="237" y="392" on="0"/>
        <pt x="225" y="336" on="0"/>
        <pt x="225" y="288" on="1"/>
        <pt x="225" y="240" on="0"/>
        <pt x="237" y="184" on="0"/>
        <pt x="267" y="155" on="0"/>
        <pt x="317" y="147" on="0"/>
        <pt x="355" y="147" on="1"/>
        <pt x="387" y="147" on="0"/>
        <pt x="453" y="153" on="0"/>
        <pt x="478" y="159" on="1"/>
        <pt x="478" y="10" on="1"/>
        <pt x="453" y="2" on="0"/>
        <pt x="375" y="-9" on="0"/>
      </contour>
      <contour>
        <pt x="206" y="630" on="1"/>
        <pt x="263" y="790" on="1"/>
        <pt x="455" y="790" on="1"/>
        <pt x="340" y="621" on="1"/>
      </contour>
    </TTGlyph>
    <TTGlyph name="Ccaron" xMin="28" yMin="-11" xMax="518" yMax="993">
      <contour>
        <pt x="362" y="-11" on="1"/>
        <pt x="194" y="-11" on="0"/>
        <pt x="28" y="175" on="0"/>
        <pt x="28" y="370" on="1"/>
        <pt x="28" y="565" on="0"/>
        <pt x="194" y="751" on="0"/>
        <pt x="355" y="751" on="1"/>
        <pt x="391" y="751" on="0"/>
        <pt x="470" y="742" on="0"/>
        <pt x="518" y="734" on="1"/>
        <pt x="518" y="573" on="1"/>
        <pt x="473" y="579" on="0"/>
        <pt x="411" y="584" on="0"/>
        <pt x="385" y="584" on="1"/>
        <pt x="343" y="584" on="0"/>
        <pt x="286" y="567" on="0"/>
        <pt x="252" y="521" on="0"/>
        <pt x="238" y="436" on="0"/>
        <pt x="238" y="369" on="1"/>
        <pt x="238" y="302" on="0"/>
        <pt x="252" y="219" on="0"/>
        <pt x="286" y="172" on="0"/>
        <pt x="342" y="156" on="0"/>
        <pt x="384" y="156" on="1"/>
        <pt x="419" y="156" on="0"/>
        <pt x="489" y="164" on="0"/>
        <pt x="518" y="171" on="1"/>
        <pt x="518" y="12" on="1"/>
        <pt x="492" y="2" on="0"/>
        <pt x="406" y="-11" on="0"/>
      </contour>
      <contour>
        <pt x="124" y="993" on="1"/>
        <pt x="311" y="919" on="1"/>
        <pt x="498" y="993" on="1"/>
        <pt x="498" y="862" on="1"/>
        <pt x="311" y="789" on="1"/>
        <pt x="124" y="862" on="1"/>
      </contour>
    </TTGlyph>
    <TTGlyph name="Ccaron.sc" xMin="27" yMin="-9" xMax="478" yMax="791">
      <contour>
        <pt x="336" y="-9" on="1"/>
        <pt x="181" y="-9" on="0"/>
        <pt x="27" y="136" on="0"/>
        <pt x="27" y="289" on="1"/>
        <pt x="27" y="440" on="0"/>
        <pt x="179" y="586" on="0"/>
        <pt x="328" y="586" on="1"/>
        <pt x="361" y="586" on="0"/>
        <pt x="433" y="580" on="0"/>
        <pt x="478" y="572" on="1"/>
        <pt x="478" y="422" on="1"/>
        <pt x="434" y="427" on="0"/>
        <pt x="379" y="431" on="0"/>
        <pt x="355" y="431" on="1"/>
        <pt x="317" y="431" on="0"/>
        <pt x="267" y="422" on="0"/>
        <pt x="237" y="392" on="0"/>
        <pt x="225" y="336" on="0"/>
        <pt x="225" y="288" on="1"/>
        <pt x="225" y="240" on="0"/>
        <pt x="237" y="184" on="0"/>
        <pt x="267" y="155" on="0"/>
        <pt x="317" y="147" on="0"/>
        <pt x="355" y="147" on="1"/>
        <pt x="387" y="147" on="0"/>
        <pt x="453" y="153" on="0"/>
        <pt x="478" y="159" on="1"/>
        <pt x="478" y="10" on="1"/>
        <pt x="453" y="2" on="0"/>
        <pt x="375" y="-9" on="0"/>
      </contour>
      <contour>
        <pt x="112" y="791" on="1"/>
        <pt x="287" y="732" on="1"/>
        <pt x="461" y="791" on="1"/>
        <pt x="461" y="671" on="1"/>
        <pt x="286" y="613" on="1"/>
        <pt x="112" y="671" on="1"/>
      </contour>
    </TTGlyph>
    <TTGlyph name="Ccedilla" xMin="28" yMin="-220" xMax="518" yMax="751">
      <contour>
        <pt x="296" y="-220" on="1"/>
        <pt x="278" y="-220" on="0"/>
        <pt x="228" y="-214" on="0"/>
        <pt x="199" y="-208" on="1"/>
        <pt x="199" y="-95" on="1"/>
        <pt x="220" y="-100" on="0"/>
        <pt x="259" y="-103" on="0"/>
        <pt x="267" y="-103" on="1"/>
        <pt x="284" y="-103" on="0"/>
        <pt x="296" y="-88" on="0"/>
        <pt x="296" y="-80" on="1"/>
        <pt x="296" y="-52" on="0"/>
        <pt x="262" y="-1" on="1"/>
        <pt x="144" y="24" on="0"/>
        <pt x="28" y="206" on="0"/>
        <pt x="28" y="370" on="1"/>
        <pt x="28" y="565" on="0"/>
        <pt x="194" y="751" on="0"/>
        <pt x="355" y="751" on="1"/>
        <pt x="391" y="751" on="0"/>
        <pt x="470" y="742" on="0"/>
        <pt x="518" y="734" on="1"/>
        <pt x="518" y="573" on="1"/>
        <pt x="473" y="579" on="0"/>
        <pt x="411" y="584" on="0"/>
        <pt x="385" y="584" on="1"/>
        <pt x="343" y="584" on="0"/>
        <pt x="286" y="567" on="0"/>
        <pt x="252" y="521" on="0"/>
        <pt x="238" y="436" on="0"/>
        <pt x="238" y="369" on="1"/>
        <pt x="238" y="302" on="0"/>
        <pt x="252" y="219" on="0"/>
        <pt x="286" y="172" on="0"/>
        <pt x="342" y="156" on="0"/>
        <pt x="384" y="156" on="1"/>
        <pt x="419" y="156" on="0"/>
        <pt x="489" y="164" on="0"/>
        <pt x="518" y="171" on="1"/>
        <pt x="518" y="12" on="1"/>
        <pt x="495" y="4" on="0"/>
        <pt x="427" y="-8" on="0"/>
        <pt x="389" y="-10" on="1"/>
        <pt x="407" y="-38" on="0"/>
        <pt x="423" y="-85" on="0"/>
        <pt x="423" y="-112" on="1"/>
        <pt x="423" y="-162" on="0"/>
        <pt x="358" y="-220" on="0"/>
      </contour>
    </TTGlyph>
    <TTGlyph name="Ccedilla.sc" xMin="27" yMin="-172" xMax="478" yMax="586">
      <contour>
        <pt x="276" y="-172" on="1"/>
        <pt x="259" y="-172" on="0"/>
        <pt x="212" y="-167" on="0"/>
        <pt x="186" y="-162" on="1"/>
        <pt x="186" y="-59" on="1"/>
        <pt x="205" y="-62" on="0"/>
        <pt x="242" y="-65" on="0"/>
        <pt x="249" y="-65" on="1"/>
        <pt x="263" y="-65" on="0"/>
        <pt x="273" y="-58" on="0"/>
        <pt x="273" y="-57" on="1"/>
        <pt x="273" y="-38" on="0"/>
        <pt x="247" y="-1" on="1"/>
        <pt x="137" y="18" on="0"/>
        <pt x="27" y="160" on="0"/>
        <pt x="27" y="289" on="1"/>
        <pt x="27" y="440" on="0"/>
        <pt x="180" y="586" on="0"/>
        <pt x="329" y="586" on="1"/>
        <pt x="361" y="586" on="0"/>
        <pt x="433" y="580" on="0"/>
        <pt x="478" y="572" on="1"/>
        <pt x="478" y="422" on="1"/>
        <pt x="434" y="427" on="0"/>
        <pt x="379" y="431" on="0"/>
        <pt x="356" y="431" on="1"/>
        <pt x="318" y="431" on="0"/>
        <pt x="268" y="422" on="0"/>
        <pt x="238" y="392" on="0"/>
        <pt x="226" y="336" on="0"/>
        <pt x="226" y="288" on="1"/>
        <pt x="226" y="240" on="0"/>
        <pt x="238" y="184" on="0"/>
        <pt x="267" y="155" on="0"/>
        <pt x="317" y="147" on="0"/>
        <pt x="355" y="147" on="1"/>
        <pt x="387" y="147" on="0"/>
        <pt x="453" y="153" on="0"/>
        <pt x="478" y="159" on="1"/>
        <pt x="478" y="10" on="1"/>
        <pt x="458" y="3" on="0"/>
        <pt x="396" y="-6" on="0"/>
        <pt x="364" y="-8" on="1"/>
        <pt x="379" y="-30" on="0"/>
        <pt x="392" y="-66" on="0"/>
        <pt x="392" y="-88" on="1"/>
        <pt x="392" y="-126" on="0"/>
        <pt x="332" y="-172" on="0"/>
      </contour>
    </TTGlyph>
    <TTGlyph name="Ccircumflex" xMin="28" yMin="-11" xMax="518" yMax="993">
      <contour>
        <pt x="362" y="-11" on="1"/>
        <pt x="194" y="-11" on="0"/>
        <pt x="28" y="175" on="0"/>
        <pt x="28" y="370" on="1"/>
        <pt x="28" y="565" on="0"/>
        <pt x="194" y="751" on="0"/>
        <pt x="355" y="751" on="1"/>
        <pt x="391" y="751" on="0"/>
        <pt x="470" y="742" on="0"/>
        <pt x="518" y="734" on="1"/>
        <pt x="518" y="573" on="1"/>
        <pt x="473" y="579" on="0"/>
        <pt x="411" y="584" on="0"/>
        <pt x="385" y="584" on="1"/>
        <pt x="343" y="584" on="0"/>
        <pt x="286" y="567" on="0"/>
        <pt x="252" y="521" on="0"/>
        <pt x="238" y="436" on="0"/>
        <pt x="238" y="369" on="1"/>
        <pt x="238" y="302" on="0"/>
        <pt x="252" y="219" on="0"/>
        <pt x="286" y="172" on="0"/>
        <pt x="342" y="156" on="0"/>
        <pt x="384" y="156" on="1"/>
        <pt x="419" y="156" on="0"/>
        <pt x="489" y="164" on="0"/>
        <pt x="518" y="171" on="1"/>
        <pt x="518" y="12" on="1"/>
        <pt x="492" y="2" on="0"/>
        <pt x="406" y="-11" on="0"/>
      </contour>
      <contour>
        <pt x="116" y="919" on="1"/>
        <pt x="303" y="993" on="1"/>
        <pt x="490" y="919" on="1"/>
        <pt x="490" y="789" on="1"/>
        <pt x="303" y="862" on="1"/>
        <pt x="116" y="789" on="1"/>
      </contour>
    </TTGlyph>
    <TTGlyph name="Ccircumflex.sc" xMin="27" yMin="-9" xMax="478" yMax="788">
      <contour>
        <pt x="336" y="-9" on="1"/>
        <pt x="181" y="-9" on="0"/>
        <pt x="27" y="136" on="0"/>
        <pt x="27" y="289" on="1"/>
        <pt x="27" y="440" on="0"/>
        <pt x="179" y="586" on="0"/>
        <pt x="328" y="586" on="1"/>
        <pt x="361" y="586" on="0"/>
        <pt x="433" y="580" on="0"/>
        <pt x="478" y="572" on="1"/>
        <pt x="478" y="422" on="1"/>
        <pt x="434" y="427" on="0"/>
        <pt x="379" y="431" on="0"/>
        <pt x="355" y="431" on="1"/>
        <pt x="317" y="431" on="0"/>
        <pt x="267" y="422" on="0"/>
        <pt x="237" y="392" on="0"/>
        <pt x="225" y="336" on="0"/>
        <pt x="225" y="288" on="1"/>
        <pt x="225" y="240" on="0"/>
        <pt x="237" y="184" on="0"/>
        <pt x="267" y="155" on="0"/>
        <pt x="317" y="147" on="0"/>
        <pt x="355" y="147" on="1"/>
        <pt x="387" y="147" on="0"/>
        <pt x="453" y="153" on="0"/>
        <pt x="478" y="159" on="1"/>
        <pt x="478" y="10" on="1"/>
        <pt x="453" y="2" on="0"/>
        <pt x="375" y="-9" on="0"/>
      </contour>
      <contour>
        <pt x="105" y="730" on="1"/>
        <pt x="280" y="788" on="1"/>
        <pt x="454" y="730" on="1"/>
        <pt x="454" y="611" on="1"/>
        <pt x="280" y="669" on="1"/>
        <pt x="105" y="611" on="1"/>
      </contour>
    </TTGlyph>
    <TTGlyph name="Cdotaccent" xMin="28" yMin="-11" xMax="518" yMax="1005">
      <contour>
        <pt x="310" y="797" on="1"/>
        <pt x="253" y="797" on="0"/>
        <pt x="203" y="846" on="0"/>
        <pt x="203" y="902" on="1"/>
        <pt x="203" y="957" on="0"/>
        <pt x="253" y="1005" on="0"/>
        <pt x="310" y="1005" on="1"/>
        <pt x="367" y="1005" on="0"/>
        <pt x="418" y="956" on="0"/>
        <pt x="418" y="902" on="1"/>
        <pt x="418" y="847" on="0"/>
        <pt x="367" y="797" on="0"/>
      </contour>
      <contour>
        <pt x="362" y="-11" on="1"/>
        <pt x="194" y="-11" on="0"/>
        <pt x="28" y="175" on="0"/>
        <pt x="28" y="370" on="1"/>
        <pt x="28" y="565" on="0"/>
        <pt x="194" y="751" on="0"/>
        <pt x="355" y="751" on="1"/>
        <pt x="391" y="751" on="0"/>
        <pt x="470" y="742" on="0"/>
        <pt x="518" y="734" on="1"/>
        <pt x="518" y="573" on="1"/>
        <pt x="473" y="579" on="0"/>
        <pt x="411" y="584" on="0"/>
        <pt x="385" y="584" on="1"/>
        <pt x="343" y="584" on="0"/>
        <pt x="286" y="567" on="0"/>
        <pt x="252" y="521" on="0"/>
        <pt x="238" y="436" on="0"/>
        <pt x="238" y="369" on="1"/>
        <pt x="238" y="302" on="0"/>
        <pt x="252" y="219" on="0"/>
        <pt x="286" y="172" on="0"/>
        <pt x="342" y="156" on="0"/>
        <pt x="384" y="156" on="1"/>
        <pt x="419" y="156" on="0"/>
        <pt x="489" y="164" on="0"/>
        <pt x="518" y="171" on="1"/>
        <pt x="518" y="12" on="1"/>
        <pt x="492" y="2" on="0"/>
        <pt x="406" y="-11" on="0"/>
      </contour>
    </TTGlyph>
    <TTGlyph name="Cdotaccent.sc" xMin="27" yMin="-9" xMax="478" yMax="811">
      <contour>
        <pt x="336" y="-9" on="1"/>
        <pt x="181" y="-9" on="0"/>
        <pt x="27" y="136" on="0"/>
        <pt x="27" y="289" on="1"/>
        <pt x="27" y="440" on="0"/>
        <pt x="179" y="586" on="0"/>
        <pt x="328" y="586" on="1"/>
        <pt x="361" y="586" on="0"/>
        <pt x="433" y="580" on="0"/>
        <pt x="478" y="572" on="1"/>
        <pt x="478" y="422" on="1"/>
        <pt x="434" y="427" on="0"/>
        <pt x="379" y="431" on="0"/>
        <pt x="355" y="431" on="1"/>
        <pt x="317" y="431" on="0"/>
        <pt x="267" y="422" on="0"/>
        <pt x="237" y="392" on="0"/>
        <pt x="225" y="336" on="0"/>
        <pt x="225" y="288" on="1"/>
        <pt x="225" y="240" on="0"/>
        <pt x="237" y="184" on="0"/>
        <pt x="267" y="155" on="0"/>
        <pt x="317" y="147" on="0"/>
        <pt x="355" y="147" on="1"/>
        <pt x="387" y="147" on="0"/>
        <pt x="453" y="153" on="0"/>
        <pt x="478" y="159" on="1"/>
        <pt x="478" y="10" on="1"/>
        <pt x="453" y="2" on="0"/>
        <pt x="375" y="-9" on="0"/>
      </contour>
      <contour>
        <pt x="288" y="620" on="1"/>
        <pt x="234" y="620" on="0"/>
        <pt x="188" y="665" on="0"/>
        <pt x="188" y="716" on="1"/>
        <pt x="188" y="767" on="0"/>
        <pt x="234" y="811" on="0"/>
        <pt x="288" y="811" on="1"/>
        <pt x="342" y="811" on="0"/>
        <pt x="389" y="766" on="0"/>
        <pt x="389" y="716" on="1"/>
        <pt x="389" y="665" on="0"/>
        <pt x="342" y="620" on="0"/>
      </contour>
    </TTGlyph>
    <TTGlyph name="D" xMin="54" yMin="-12" xMax="676" yMax="749">
      <contour>
        <pt x="262" y="-12" on="1"/>
        <pt x="216" y="-12" on="0"/>
        <pt x="114" y="-5" on="0"/>
        <pt x="54" y="1" on="1"/>
        <pt x="54" y="740" on="1"/>
        <pt x="131" y="744" on="0"/>
        <pt x="236" y="749" on="0"/>
        <pt x="278" y="749" on="1"/>
        <pt x="386" y="749" on="0"/>
        <pt x="537" y="708" on="0"/>
        <pt x="632" y="617" on="0"/>
        <pt x="676" y="472" on="0"/>
        <pt x="676" y="369" on="1"/>
        <pt x="676" y="265" on="0"/>
        <pt x="632" y="120" on="0"/>
        <pt x="533" y="29" on="0"/>
        <pt x="375" y="-12" on="0"/>
      </contour>
      <contour>
        <pt x="338" y="151" on="1"/>
        <pt x="377" y="151" on="0"/>
        <pt x="426" y="169" on="0"/>
        <pt x="455" y="218" on="0"/>
        <pt x="466" y="303" on="0"/>
        <pt x="466" y="370" on="1"/>
        <pt x="466" y="435" on="0"/>
        <pt x="453" y="520" on="0"/>
        <pt x="418" y="569" on="0"/>
        <pt x="360" y="588" on="0"/>
        <pt x="315" y="588" on="1"/>
        <pt x="298" y="588" on="0"/>
        <pt x="271" y="586" on="0"/>
        <pt x="256" y="584" on="1"/>
        <pt x="256" y="157" on="1"/>
        <pt x="282" y="154" on="0"/>
        <pt x="320" y="151" on="0"/>
      </contour>
    </TTGlyph>
    <TTGlyph name="D.sc" xMin="52" yMin="-8" xMax="627" yMax="584">
      <contour>
        <pt x="260" y="-8" on="1"/>
        <pt x="214" y="-8" on="0"/>
        <pt x="109" y="-3" on="0"/>
        <pt x="52" y="2" on="1"/>
        <pt x="52" y="578" on="1"/>
        <pt x="124" y="581" on="0"/>
        <pt x="222" y="584" on="0"/>
        <pt x="262" y="584" on="1"/>
        <pt x="361" y="584" on="0"/>
        <pt x="499" y="552" on="0"/>
        <pt x="587" y="482" on="0"/>
        <pt x="627" y="369" on="0"/>
        <pt x="627" y="288" on="1"/>
        <pt x="627" y="207" on="0"/>
        <pt x="587" y="94" on="0"/>
        <pt x="498" y="24" on="0"/>
        <pt x="359" y="-8" on="0"/>
      </contour>
      <contour>
        <pt x="318" y="144" on="1"/>
        <pt x="352" y="144" on="0"/>
        <pt x="396" y="154" on="0"/>
        <pt x="421" y="184" on="0"/>
        <pt x="430" y="241" on="0"/>
        <pt x="430" y="289" on="1"/>
        <pt x="430" y="335" on="0"/>
        <pt x="419" y="391" on="0"/>
        <pt x="389" y="423" on="0"/>
        <pt x="337" y="434" on="0"/>
        <pt x="297" y="434" on="1"/>
        <pt x="280" y="434" on="0"/>
        <pt x="257" y="433" on="0"/>
        <pt x="243" y="432" on="1"/>
        <pt x="243" y="148" on="1"/>
        <pt x="265" y="145" on="0"/>
        <pt x="301" y="144" on="0"/>
      </contour>
    </TTGlyph>
    <TTGlyph name="Dcaron" xMin="54" yMin="-12" xMax="676" yMax="993">
      <contour>
        <pt x="159" y="993" on="1"/>
        <pt x="346" y="919" on="1"/>
        <pt x="533" y="993" on="1"/>
        <pt x="533" y="862" on="1"/>
        <pt x="346" y="789" on="1"/>
        <pt x="159" y="862" on="1"/>
      </contour>
      <contour>
        <pt x="262" y="-12" on="1"/>
        <pt x="216" y="-12" on="0"/>
        <pt x="114" y="-5" on="0"/>
        <pt x="54" y="1" on="1"/>
        <pt x="54" y="740" on="1"/>
        <pt x="131" y="744" on="0"/>
        <pt x="236" y="749" on="0"/>
        <pt x="278" y="749" on="1"/>
        <pt x="386" y="749" on="0"/>
        <pt x="537" y="708" on="0"/>
        <pt x="632" y="617" on="0"/>
        <pt x="676" y="472" on="0"/>
        <pt x="676" y="369" on="1"/>
        <pt x="676" y="265" on="0"/>
        <pt x="632" y="120" on="0"/>
        <pt x="533" y="29" on="0"/>
        <pt x="375" y="-12" on="0"/>
      </contour>
      <contour>
        <pt x="338" y="151" on="1"/>
        <pt x="377" y="151" on="0"/>
        <pt x="426" y="169" on="0"/>
        <pt x="455" y="218" on="0"/>
        <pt x="466" y="303" on="0"/>
        <pt x="466" y="370" on="1"/>
        <pt x="466" y="435" on="0"/>
        <pt x="453" y="520" on="0"/>
        <pt x="418" y="569" on="0"/>
        <pt x="360" y="588" on="0"/>
        <pt x="315" y="588" on="1"/>
        <pt x="298" y="588" on="0"/>
        <pt x="271" y="586" on="0"/>
        <pt x="256" y="584" on="1"/>
        <pt x="256" y="157" on="1"/>
        <pt x="282" y="154" on="0"/>
        <pt x="320" y="151" on="0"/>
      </contour>
    </TTGlyph>
    <TTGlyph name="Dcaron.sc" xMin="52" yMin="-8" xMax="627" yMax="791">
      <contour>
        <pt x="260" y="-8" on="1"/>
        <pt x="214" y="-8" on="0"/>
        <pt x="109" y="-3" on="0"/>
        <pt x="52" y="2" on="1"/>
        <pt x="52" y="578" on="1"/>
        <pt x="124" y="581" on="0"/>
        <pt x="222" y="584" on="0"/>
        <pt x="262" y="584" on="1"/>
        <pt x="361" y="584" on="0"/>
        <pt x="499" y="552" on="0"/>
        <pt x="587" y="482" on="0"/>
        <pt x="627" y="369" on="0"/>
        <pt x="627" y="288" on="1"/>
        <pt x="627" y="207" on="0"/>
        <pt x="587" y="94" on="0"/>
        <pt x="498" y="24" on="0"/>
        <pt x="359" y="-8" on="0"/>
      </contour>
      <contour>
        <pt x="318" y="144" on="1"/>
        <pt x="352" y="144" on="0"/>
        <pt x="396" y="154" on="0"/>
        <pt x="421" y="184" on="0"/>
        <pt x="430" y="241" on="0"/>
        <pt x="430" y="289" on="1"/>
        <pt x="430" y="335" on="0"/>
        <pt x="419" y="391" on="0"/>
        <pt x="389" y="423" on="0"/>
        <pt x="337" y="434" on="0"/>
        <pt x="297" y="434" on="1"/>
        <pt x="280" y="434" on="0"/>
        <pt x="257" y="433" on="0"/>
        <pt x="243" y="432" on="1"/>
        <pt x="243" y="148" on="1"/>
        <pt x="265" y="145" on="0"/>
        <pt x="301" y="144" on="0"/>
      </contour>
      <contour>
        <pt x="151" y="671" on="1"/>
        <pt x="151" y="791" on="1"/>
        <pt x="325" y="732" on="1"/>
        <pt x="500" y="791" on="1"/>
        <pt x="500" y="671" on="1"/>
        <pt x="325" y="613" on="1"/>
      </contour>
    </TTGlyph>
    <TTGlyph name="Dcroat" xMin="0" yMin="-12" xMax="703" yMax="749">
      <contour>
        <pt x="0" y="450" on="1"/>
        <pt x="81" y="450" on="1"/>
        <pt x="81" y="740" on="1"/>
        <pt x="158" y="744" on="0"/>
        <pt x="263" y="749" on="0"/>
        <pt x="305" y="749" on="1"/>
        <pt x="413" y="749" on="0"/>
        <pt x="564" y="708" on="0"/>
        <pt x="659" y="617" on="0"/>
        <pt x="703" y="472" on="0"/>
        <pt x="703" y="369" on="1"/>
        <pt x="703" y="265" on="0"/>
        <pt x="659" y="120" on="0"/>
        <pt x="560" y="29" on="0"/>
        <pt x="402" y="-12" on="0"/>
        <pt x="289" y="-12" on="1"/>
        <pt x="243" y="-12" on="0"/>
        <pt x="141" y="-5" on="0"/>
        <pt x="81" y="1" on="1"/>
        <pt x="81" y="298" on="1"/>
        <pt x="0" y="298" on="1"/>
      </contour>
      <contour>
        <pt x="365" y="151" on="1"/>
        <pt x="404" y="151" on="0"/>
        <pt x="453" y="169" on="0"/>
        <pt x="482" y="218" on="0"/>
        <pt x="493" y="303" on="0"/>
        <pt x="493" y="370" on="1"/>
        <pt x="493" y="435" on="0"/>
        <pt x="480" y="520" on="0"/>
        <pt x="445" y="569" on="0"/>
        <pt x="387" y="588" on="0"/>
        <pt x="342" y="588" on="1"/>
        <pt x="325" y="588" on="0"/>
        <pt x="298" y="586" on="0"/>
        <pt x="283" y="584" on="1"/>
        <pt x="283" y="450" on="1"/>
        <pt x="361" y="450" on="1"/>
        <pt x="361" y="298" on="1"/>
        <pt x="283" y="298" on="1"/>
        <pt x="283" y="157" on="1"/>
        <pt x="309" y="154" on="0"/>
        <pt x="347" y="151" on="0"/>
      </contour>
    </TTGlyph>
    <TTGlyph name="Dcroat.sc" xMin="5" yMin="-8" xMax="654" yMax="584">
      <contour>
        <pt x="5" y="364" on="1"/>
        <pt x="78" y="364" on="1"/>
        <pt x="78" y="578" on="1"/>
        <pt x="152" y="581" on="0"/>
        <pt x="250" y="584" on="0"/>
        <pt x="289" y="584" on="1"/>
        <pt x="388" y="584" on="0"/>
        <pt x="526" y="552" on="0"/>
        <pt x="614" y="482" on="0"/>
        <pt x="654" y="369" on="0"/>
        <pt x="654" y="288" on="1"/>
        <pt x="654" y="206" on="0"/>
        <pt x="613" y="93" on="0"/>
        <pt x="522" y="23" on="0"/>
        <pt x="376" y="-8" on="0"/>
        <pt x="272" y="-8" on="1"/>
        <pt x="229" y="-8" on="0"/>
        <pt x="132" y="-3" on="0"/>
        <pt x="78" y="2" on="1"/>
        <pt x="78" y="222" on="1"/>
        <pt x="5" y="222" on="1"/>
      </contour>
      <contour>
        <pt x="345" y="144" on="1"/>
        <pt x="379" y="144" on="0"/>
        <pt x="423" y="153" on="0"/>
        <pt x="448" y="184" on="0"/>
        <pt x="457" y="241" on="0"/>
        <pt x="457" y="289" on="1"/>
        <pt x="457" y="335" on="0"/>
        <pt x="445" y="391" on="0"/>
        <pt x="415" y="423" on="0"/>
        <pt x="364" y="434" on="0"/>
        <pt x="324" y="434" on="1"/>
        <pt x="308" y="434" on="0"/>
        <pt x="285" y="433" on="0"/>
        <pt x="269" y="432" on="1"/>
        <pt x="269" y="364" on="1"/>
        <pt x="337" y="364" on="1"/>
        <pt x="337" y="222" on="1"/>
        <pt x="269" y="222" on="1"/>
        <pt x="269" y="148" on="1"/>
        <pt x="292" y="146" on="0"/>
        <pt x="328" y="144" on="0"/>
      </contour>
    </TTGlyph>
    <TTGlyph name="Ddotbelow" xMin="54" yMin="-220" xMax="676" yMax="749">
      <contour>
        <pt x="344" y="-220" on="1"/>
        <pt x="299" y="-220" on="0"/>
        <pt x="262" y="-183" on="0"/>
        <pt x="262" y="-141" on="1"/>
        <pt x="262" y="-99" on="0"/>
        <pt x="299" y="-62" on="0"/>
        <pt x="344" y="-62" on="1"/>
        <pt x="389" y="-62" on="0"/>
        <pt x="427" y="-99" on="0"/>
        <pt x="427" y="-141" on="1"/>
        <pt x="427" y="-183" on="0"/>
        <pt x="389" y="-220" on="0"/>
      </contour>
      <contour>
        <pt x="262" y="-12" on="1"/>
        <pt x="216" y="-12" on="0"/>
        <pt x="114" y="-5" on="0"/>
        <pt x="54" y="1" on="1"/>
        <pt x="54" y="740" on="1"/>
        <pt x="131" y="744" on="0"/>
        <pt x="236" y="749" on="0"/>
        <pt x="278" y="749" on="1"/>
        <pt x="386" y="749" on="0"/>
        <pt x="537" y="708" on="0"/>
        <pt x="632" y="617" on="0"/>
        <pt x="676" y="472" on="0"/>
        <pt x="676" y="369" on="1"/>
        <pt x="676" y="265" on="0"/>
        <pt x="632" y="120" on="0"/>
        <pt x="533" y="29" on="0"/>
        <pt x="375" y="-12" on="0"/>
      </contour>
      <contour>
        <pt x="338" y="151" on="1"/>
        <pt x="377" y="151" on="0"/>
        <pt x="426" y="169" on="0"/>
        <pt x="455" y="218" on="0"/>
        <pt x="466" y="303" on="0"/>
        <pt x="466" y="370" on="1"/>
        <pt x="466" y="435" on="0"/>
        <pt x="453" y="520" on="0"/>
        <pt x="418" y="569" on="0"/>
        <pt x="360" y="588" on="0"/>
        <pt x="315" y="588" on="1"/>
        <pt x="298" y="588" on="0"/>
        <pt x="271" y="586" on="0"/>
        <pt x="256" y="584" on="1"/>
        <pt x="256" y="157" on="1"/>
        <pt x="282" y="154" on="0"/>
        <pt x="320" y="151" on="0"/>
      </contour>
    </TTGlyph>
    <TTGlyph name="Ddotbelow.sc" xMin="52" yMin="-182" xMax="627" yMax="584">
      <contour>
        <pt x="260" y="-8" on="1"/>
        <pt x="214" y="-8" on="0"/>
        <pt x="109" y="-3" on="0"/>
        <pt x="52" y="2" on="1"/>
        <pt x="52" y="578" on="1"/>
        <pt x="124" y="581" on="0"/>
        <pt x="222" y="584" on="0"/>
        <pt x="262" y="584" on="1"/>
        <pt x="361" y="584" on="0"/>
        <pt x="499" y="552" on="0"/>
        <pt x="587" y="482" on="0"/>
        <pt x="627" y="369" on="0"/>
        <pt x="627" y="288" on="1"/>
        <pt x="627" y="207" on="0"/>
        <pt x="587" y="94" on="0"/>
        <pt x="498" y="24" on="0"/>
        <pt x="359" y="-8" on="0"/>
      </contour>
      <contour>
        <pt x="318" y="144" on="1"/>
        <pt x="352" y="144" on="0"/>
        <pt x="396" y="154" on="0"/>
        <pt x="421" y="184" on="0"/>
        <pt x="430" y="241" on="0"/>
        <pt x="430" y="289" on="1"/>
        <pt x="430" y="335" on="0"/>
        <pt x="419" y="391" on="0"/>
        <pt x="389" y="423" on="0"/>
        <pt x="337" y="434" on="0"/>
        <pt x="297" y="434" on="1"/>
        <pt x="280" y="434" on="0"/>
        <pt x="257" y="433" on="0"/>
        <pt x="243" y="432" on="1"/>
        <pt x="243" y="148" on="1"/>
        <pt x="265" y="145" on="0"/>
        <pt x="301" y="144" on="0"/>
      </contour>
      <contour>
        <pt x="322" y="-182" on="1"/>
        <pt x="280" y="-182" on="0"/>
        <pt x="245" y="-149" on="0"/>
        <pt x="245" y="-111" on="1"/>
        <pt x="245" y="-74" on="0"/>
        <pt x="280" y="-41" on="0"/>
        <pt x="322" y="-41" on="1"/>
        <pt x="364" y="-41" on="0"/>
        <pt x="398" y="-75" on="0"/>
        <pt x="398" y="-111" on="1"/>
        <pt x="398" y="-149" on="0"/>
        <pt x="364" y="-182" on="0"/>
      </contour>
    </TTGlyph>
    <TTGlyph name="Delta" xMin="17" yMin="0" xMax="770" yMax="740">
      <contour>
        <pt x="266" y="740" on="1"/>
        <pt x="521" y="740" on="1"/>
        <pt x="770" y="0" on="1"/>
        <pt x="17" y="0" on="1"/>
      </contour>
      <contour>
        <pt x="530" y="165" on="1"/>
        <pt x="394" y="571" on="1"/>
        <pt x="258" y="165" on="1"/>
      </contour>
    </TTGlyph>
    <TTGlyph name="E" xMin="54" yMin="0" xMax="570" yMax="740">
      <contour>
        <pt x="54" y="740" on="1"/>
        <pt x="561" y="740" on="1"/>
        <pt x="561" y="575" on="1"/>
        <pt x="259" y="575" on="1"/>
        <pt x="259" y="453" on="1"/>
        <pt x="528" y="453" on="1"/>
        <pt x="528" y="287" on="1"/>
        <pt x="259" y="287" on="1"/>
        <pt x="259" y="166" on="1"/>
        <pt x="570" y="166" on="1"/>
        <pt x="570" y="0" on="1"/>
        <pt x="54" y="0" on="1"/>
      </contour>
    </TTGlyph>
    <TTGlyph name="E.sc" xMin="52" yMin="0" xMax="530" yMax="577">
      <contour>
        <pt x="52" y="577" on="1"/>
        <pt x="522" y="577" on="1"/>
        <pt x="522" y="429" on="1"/>
        <pt x="245" y="429" on="1"/>
        <pt x="245" y="358" on="1"/>
        <pt x="491" y="358" on="1"/>
        <pt x="491" y="219" on="1"/>
        <pt x="245" y="219" on="1"/>
        <pt x="245" y="149" on="1"/>
        <pt x="530" y="149" on="1"/>
        <pt x="530" y="0" on="1"/>
        <pt x="52" y="0" on="1"/>
      </contour>
    </TTGlyph>
    <TTGlyph name="Eacute" xMin="54" yMin="0" xMax="570" yMax="993">
      <contour>
        <pt x="232" y="804" on="1"/>
        <pt x="296" y="993" on="1"/>
        <pt x="500" y="993" on="1"/>
        <pt x="375" y="794" on="1"/>
      </contour>
      <contour>
        <pt x="54" y="740" on="1"/>
        <pt x="561" y="740" on="1"/>
        <pt x="561" y="575" on="1"/>
        <pt x="259" y="575" on="1"/>
        <pt x="259" y="453" on="1"/>
        <pt x="528" y="453" on="1"/>
        <pt x="528" y="287" on="1"/>
        <pt x="259" y="287" on="1"/>
        <pt x="259" y="166" on="1"/>
        <pt x="570" y="166" on="1"/>
        <pt x="570" y="0" on="1"/>
        <pt x="54" y="0" on="1"/>
      </contour>
    </TTGlyph>
    <TTGlyph name="Eacute.sc" xMin="52" yMin="0" xMax="530" yMax="790">
      <contour>
        <pt x="52" y="577" on="1"/>
        <pt x="522" y="577" on="1"/>
        <pt x="522" y="429" on="1"/>
        <pt x="245" y="429" on="1"/>
        <pt x="245" y="358" on="1"/>
        <pt x="491" y="358" on="1"/>
        <pt x="491" y="219" on="1"/>
        <pt x="245" y="219" on="1"/>
        <pt x="245" y="149" on="1"/>
        <pt x="530" y="149" on="1"/>
        <pt x="530" y="0" on="1"/>
        <pt x="52" y="0" on="1"/>
      </contour>
      <contour>
        <pt x="215" y="630" on="1"/>
        <pt x="271" y="790" on="1"/>
        <pt x="464" y="790" on="1"/>
        <pt x="349" y="621" on="1"/>
      </contour>
    </TTGlyph>
    <TTGlyph name="Ebreve" xMin="54" yMin="0" xMax="570" yMax="984">
      <contour>
        <pt x="309" y="795" on="1"/>
        <pt x="256" y="795" on="0"/>
        <pt x="178" y="822" on="0"/>
        <pt x="128" y="871" on="0"/>
        <pt x="104" y="941" on="0"/>
        <pt x="104" y="984" on="1"/>
        <pt x="236" y="984" on="1"/>
        <pt x="236" y="930" on="0"/>
        <pt x="265" y="886" on="0"/>
        <pt x="309" y="886" on="1"/>
        <pt x="353" y="886" on="0"/>
        <pt x="382" y="930" on="0"/>
        <pt x="382" y="984" on="1"/>
        <pt x="515" y="984" on="1"/>
        <pt x="515" y="898" on="0"/>
        <pt x="415" y="795" on="0"/>
      </contour>
      <contour>
        <pt x="54" y="740" on="1"/>
        <pt x="561" y="740" on="1"/>
        <pt x="561" y="575" on="1"/>
        <pt x="259" y="575" on="1"/>
        <pt x="259" y="453" on="1"/>
        <pt x="528" y="453" on="1"/>
        <pt x="528" y="287" on="1"/>
        <pt x="259" y="287" on="1"/>
        <pt x="259" y="166" on="1"/>
        <pt x="570" y="166" on="1"/>
        <pt x="570" y="0" on="1"/>
        <pt x="54" y="0" on="1"/>
      </contour>
    </TTGlyph>
    <TTGlyph name="Ebreve.sc" xMin="52" yMin="0" xMax="530" yMax="775">
      <contour>
        <pt x="288" y="618" on="1"/>
        <pt x="187" y="618" on="0"/>
        <pt x="96" y="705" on="0"/>
        <pt x="96" y="775" on="1"/>
        <pt x="220" y="775" on="1"/>
        <pt x="220" y="733" on="0"/>
        <pt x="246" y="700" on="0"/>
        <pt x="288" y="700" on="1"/>
        <pt x="329" y="700" on="0"/>
        <pt x="355" y="733" on="0"/>
        <pt x="355" y="775" on="1"/>
        <pt x="479" y="775" on="1"/>
        <pt x="479" y="704" on="0"/>
        <pt x="388" y="618" on="0"/>
      </contour>
      <contour>
        <pt x="52" y="577" on="1"/>
        <pt x="522" y="577" on="1"/>
        <pt x="522" y="429" on="1"/>
        <pt x="245" y="429" on="1"/>
        <pt x="245" y="358" on="1"/>
        <pt x="491" y="358" on="1"/>
        <pt x="491" y="219" on="1"/>
        <pt x="245" y="219" on="1"/>
        <pt x="245" y="149" on="1"/>
        <pt x="530" y="149" on="1"/>
        <pt x="530" y="0" on="1"/>
        <pt x="52" y="0" on="1"/>
      </contour>
    </TTGlyph>
    <TTGlyph name="Ecaron" xMin="54" yMin="0" xMax="570" yMax="993">
      <contour>
        <pt x="132" y="993" on="1"/>
        <pt x="319" y="919" on="1"/>
        <pt x="506" y="993" on="1"/>
        <pt x="506" y="862" on="1"/>
        <pt x="319" y="789" on="1"/>
        <pt x="132" y="862" on="1"/>
      </contour>
      <contour>
        <pt x="54" y="740" on="1"/>
        <pt x="561" y="740" on="1"/>
        <pt x="561" y="575" on="1"/>
        <pt x="259" y="575" on="1"/>
        <pt x="259" y="453" on="1"/>
        <pt x="528" y="453" on="1"/>
        <pt x="528" y="287" on="1"/>
        <pt x="259" y="287" on="1"/>
        <pt x="259" y="166" on="1"/>
        <pt x="570" y="166" on="1"/>
        <pt x="570" y="0" on="1"/>
        <pt x="54" y="0" on="1"/>
      </contour>
    </TTGlyph>
    <TTGlyph name="Ecaron.sc" xMin="52" yMin="0" xMax="530" yMax="791">
      <contour>
        <pt x="52" y="577" on="1"/>
        <pt x="522" y="577" on="1"/>
        <pt x="522" y="429" on="1"/>
        <pt x="245" y="429" on="1"/>
        <pt x="245" y="358" on="1"/>
        <pt x="491" y="358" on="1"/>
        <pt x="491" y="219" on="1"/>
        <pt x="245" y="219" on="1"/>
        <pt x="245" y="149" on="1"/>
        <pt x="530" y="149" on="1"/>
        <pt x="530" y="0" on="1"/>
        <pt x="52" y="0" on="1"/>
      </contour>
      <contour>
        <pt x="122" y="671" on="1"/>
        <pt x="122" y="791" on="1"/>
        <pt x="296" y="732" on="1"/>
        <pt x="471" y="791" on="1"/>
        <pt x="471" y="671" on="1"/>
        <pt x="296" y="613" on="1"/>
      </contour>
    </TTGlyph>
    <TTGlyph name="Ecircumflex" xMin="54" yMin="0" xMax="570" yMax="993">
      <contour>
        <pt x="54" y="740" on="1"/>
        <pt x="561" y="740" on="1"/>
        <pt x="561" y="575" on="1"/>
        <pt x="259" y="575" on="1"/>
        <pt x="259" y="453" on="1"/>
        <pt x="528" y="453" on="1"/>
        <pt x="528" y="287" on="1"/>
        <pt x="259" y="287" on="1"/>
        <pt x="259" y="166" on="1"/>
        <pt x="570" y="166" on="1"/>
        <pt x="570" y="0" on="1"/>
        <pt x="54" y="0" on="1"/>
      </contour>
      <contour>
        <pt x="130" y="919" on="1"/>
        <pt x="317" y="993" on="1"/>
        <pt x="504" y="919" on="1"/>
        <pt x="504" y="789" on="1"/>
        <pt x="317" y="862" on="1"/>
        <pt x="130" y="789" on="1"/>
      </contour>
    </TTGlyph>
    <TTGlyph name="Ecircumflex.sc" xMin="52" yMin="0" xMax="530" yMax="788">
      <contour>
        <pt x="52" y="577" on="1"/>
        <pt x="522" y="577" on="1"/>
        <pt x="522" y="429" on="1"/>
        <pt x="245" y="429" on="1"/>
        <pt x="245" y="358" on="1"/>
        <pt x="491" y="358" on="1"/>
        <pt x="491" y="219" on="1"/>
        <pt x="245" y="219" on="1"/>
        <pt x="245" y="149" on="1"/>
        <pt x="530" y="149" on="1"/>
        <pt x="530" y="0" on="1"/>
        <pt x="52" y="0" on="1"/>
      </contour>
      <contour>
        <pt x="123" y="730" on="1"/>
        <pt x="297" y="788" on="1"/>
        <pt x="471" y="730" on="1"/>
        <pt x="471" y="611" on="1"/>
        <pt x="297" y="669" on="1"/>
        <pt x="123" y="611" on="1"/>
      </contour>
    </TTGlyph>
    <TTGlyph name="Edblgrave" xMin="30" yMin="0" xMax="570" yMax="993">
      <contour>
        <pt x="54" y="740" on="1"/>
        <pt x="561" y="740" on="1"/>
        <pt x="561" y="575" on="1"/>
        <pt x="259" y="575" on="1"/>
        <pt x="259" y="453" on="1"/>
        <pt x="528" y="453" on="1"/>
        <pt x="528" y="287" on="1"/>
        <pt x="259" y="287" on="1"/>
        <pt x="259" y="166" on="1"/>
        <pt x="570" y="166" on="1"/>
        <pt x="570" y="0" on="1"/>
        <pt x="54" y="0" on="1"/>
      </contour>
      <contour>
        <pt x="156" y="794" on="1"/>
        <pt x="30" y="993" on="1"/>
        <pt x="205" y="993" on="1"/>
        <pt x="269" y="804" on="1"/>
      </contour>
      <contour>
        <pt x="368" y="794" on="1"/>
        <pt x="241" y="993" on="1"/>
        <pt x="417" y="993" on="1"/>
        <pt x="480" y="804" on="1"/>
      </contour>
    </TTGlyph>
    <TTGlyph name="Edblgrave.sc" xMin="28" yMin="0" xMax="530" yMax="791">
      <contour>
        <pt x="52" y="577" on="1"/>
        <pt x="522" y="577" on="1"/>
        <pt x="522" y="429" on="1"/>
        <pt x="245" y="429" on="1"/>
        <pt x="245" y="358" on="1"/>
        <pt x="491" y="358" on="1"/>
        <pt x="491" y="219" on="1"/>
        <pt x="245" y="219" on="1"/>
        <pt x="245" y="149" on="1"/>
        <pt x="530" y="149" on="1"/>
        <pt x="530" y="0" on="1"/>
        <pt x="52" y="0" on="1"/>
      </contour>
      <contour>
        <pt x="28" y="791" on="1"/>
        <pt x="195" y="791" on="1"/>
        <pt x="251" y="629" on="1"/>
        <pt x="143" y="622" on="1"/>
      </contour>
      <contour>
        <pt x="225" y="791" on="1"/>
        <pt x="392" y="791" on="1"/>
        <pt x="448" y="629" on="1"/>
        <pt x="340" y="622" on="1"/>
      </contour>
    </TTGlyph>
    <TTGlyph name="Edieresis" xMin="54" yMin="0" xMax="570" yMax="1005">
      <contour>
        <pt x="175" y="797" on="1"/>
        <pt x="118" y="797" on="0"/>
        <pt x="68" y="846" on="0"/>
        <pt x="68" y="902" on="1"/>
        <pt x="68" y="957" on="0"/>
        <pt x="118" y="1005" on="0"/>
        <pt x="175" y="1005" on="1"/>
        <pt x="232" y="1005" on="0"/>
        <pt x="283" y="956" on="0"/>
        <pt x="283" y="902" on="1"/>
        <pt x="283" y="847" on="0"/>
        <pt x="232" y="797" on="0"/>
      </contour>
      <contour>
        <pt x="454" y="797" on="1"/>
        <pt x="396" y="797" on="0"/>
        <pt x="347" y="846" on="0"/>
        <pt x="347" y="902" on="1"/>
        <pt x="347" y="957" on="0"/>
        <pt x="396" y="1005" on="0"/>
        <pt x="454" y="1005" on="1"/>
        <pt x="511" y="1005" on="0"/>
        <pt x="561" y="956" on="0"/>
        <pt x="561" y="902" on="1"/>
        <pt x="561" y="847" on="0"/>
        <pt x="511" y="797" on="0"/>
      </contour>
      <contour>
        <pt x="54" y="740" on="1"/>
        <pt x="561" y="740" on="1"/>
        <pt x="561" y="575" on="1"/>
        <pt x="259" y="575" on="1"/>
        <pt x="259" y="453" on="1"/>
        <pt x="528" y="453" on="1"/>
        <pt x="528" y="287" on="1"/>
        <pt x="259" y="287" on="1"/>
        <pt x="259" y="166" on="1"/>
        <pt x="570" y="166" on="1"/>
        <pt x="570" y="0" on="1"/>
        <pt x="54" y="0" on="1"/>
      </contour>
    </TTGlyph>
    <TTGlyph name="Edieresis.sc" xMin="52" yMin="0" xMax="530" yMax="809">
      <contour>
        <pt x="166" y="617" on="1"/>
        <pt x="111" y="617" on="0"/>
        <pt x="65" y="663" on="0"/>
        <pt x="65" y="714" on="1"/>
        <pt x="65" y="764" on="0"/>
        <pt x="111" y="809" on="0"/>
        <pt x="166" y="809" on="1"/>
        <pt x="220" y="809" on="0"/>
        <pt x="266" y="764" on="0"/>
        <pt x="266" y="714" on="1"/>
        <pt x="266" y="663" on="0"/>
        <pt x="220" y="617" on="0"/>
      </contour>
      <contour>
        <pt x="423" y="617" on="1"/>
        <pt x="368" y="617" on="0"/>
        <pt x="323" y="663" on="0"/>
        <pt x="323" y="714" on="1"/>
        <pt x="323" y="764" on="0"/>
        <pt x="368" y="809" on="0"/>
        <pt x="423" y="809" on="1"/>
        <pt x="477" y="809" on="0"/>
        <pt x="523" y="764" on="0"/>
        <pt x="523" y="714" on="1"/>
        <pt x="523" y="663" on="0"/>
        <pt x="477" y="617" on="0"/>
      </contour>
      <contour>
        <pt x="52" y="577" on="1"/>
        <pt x="522" y="577" on="1"/>
        <pt x="522" y="429" on="1"/>
        <pt x="245" y="429" on="1"/>
        <pt x="245" y="358" on="1"/>
        <pt x="491" y="358" on="1"/>
        <pt x="491" y="219" on="1"/>
        <pt x="245" y="219" on="1"/>
        <pt x="245" y="149" on="1"/>
        <pt x="530" y="149" on="1"/>
        <pt x="530" y="0" on="1"/>
        <pt x="52" y="0" on="1"/>
      </contour>
    </TTGlyph>
    <TTGlyph name="Edotaccent" xMin="54" yMin="0" xMax="570" yMax="1005">
      <contour>
        <pt x="309" y="797" on="1"/>
        <pt x="252" y="797" on="0"/>
        <pt x="202" y="846" on="0"/>
        <pt x="202" y="902" on="1"/>
        <pt x="202" y="957" on="0"/>
        <pt x="252" y="1005" on="0"/>
        <pt x="309" y="1005" on="1"/>
        <pt x="366" y="1005" on="0"/>
        <pt x="417" y="956" on="0"/>
        <pt x="417" y="902" on="1"/>
        <pt x="417" y="847" on="0"/>
        <pt x="366" y="797" on="0"/>
      </contour>
      <contour>
        <pt x="54" y="740" on="1"/>
        <pt x="561" y="740" on="1"/>
        <pt x="561" y="575" on="1"/>
        <pt x="259" y="575" on="1"/>
        <pt x="259" y="453" on="1"/>
        <pt x="528" y="453" on="1"/>
        <pt x="528" y="287" on="1"/>
        <pt x="259" y="287" on="1"/>
        <pt x="259" y="166" on="1"/>
        <pt x="570" y="166" on="1"/>
        <pt x="570" y="0" on="1"/>
        <pt x="54" y="0" on="1"/>
      </contour>
    </TTGlyph>
    <TTGlyph name="Edotaccent.sc" xMin="52" yMin="0" xMax="530" yMax="811">
      <contour>
        <pt x="288" y="620" on="1"/>
        <pt x="234" y="620" on="0"/>
        <pt x="188" y="665" on="0"/>
        <pt x="188" y="716" on="1"/>
        <pt x="188" y="767" on="0"/>
        <pt x="234" y="811" on="0"/>
        <pt x="288" y="811" on="1"/>
        <pt x="342" y="811" on="0"/>
        <pt x="388" y="766" on="0"/>
        <pt x="388" y="716" on="1"/>
        <pt x="388" y="665" on="0"/>
        <pt x="342" y="620" on="0"/>
      </contour>
      <contour>
        <pt x="52" y="577" on="1"/>
        <pt x="522" y="577" on="1"/>
        <pt x="522" y="429" on="1"/>
        <pt x="245" y="429" on="1"/>
        <pt x="245" y="358" on="1"/>
        <pt x="491" y="358" on="1"/>
        <pt x="491" y="219" on="1"/>
        <pt x="245" y="219" on="1"/>
        <pt x="245" y="149" on="1"/>
        <pt x="530" y="149" on="1"/>
        <pt x="530" y="0" on="1"/>
        <pt x="52" y="0" on="1"/>
      </contour>
    </TTGlyph>
    <TTGlyph name="Edotbelow" xMin="54" yMin="-220" xMax="570" yMax="740">
      <contour>
        <pt x="54" y="740" on="1"/>
        <pt x="561" y="740" on="1"/>
        <pt x="561" y="575" on="1"/>
        <pt x="259" y="575" on="1"/>
        <pt x="259" y="453" on="1"/>
        <pt x="528" y="453" on="1"/>
        <pt x="528" y="287" on="1"/>
        <pt x="259" y="287" on="1"/>
        <pt x="259" y="166" on="1"/>
        <pt x="570" y="166" on="1"/>
        <pt x="570" y="0" on="1"/>
        <pt x="54" y="0" on="1"/>
      </contour>
      <contour>
        <pt x="319" y="-220" on="1"/>
        <pt x="274" y="-220" on="0"/>
        <pt x="237" y="-183" on="0"/>
        <pt x="237" y="-141" on="1"/>
        <pt x="237" y="-99" on="0"/>
        <pt x="274" y="-62" on="0"/>
        <pt x="319" y="-62" on="1"/>
        <pt x="364" y="-62" on="0"/>
        <pt x="402" y="-99" on="0"/>
        <pt x="402" y="-141" on="1"/>
        <pt x="402" y="-183" on="0"/>
        <pt x="364" y="-220" on="0"/>
      </contour>
    </TTGlyph>
    <TTGlyph name="Edotbelow.sc" xMin="52" yMin="-182" xMax="530" yMax="577">
      <contour>
        <pt x="297" y="-182" on="1"/>
        <pt x="256" y="-182" on="0"/>
        <pt x="221" y="-149" on="0"/>
        <pt x="221" y="-111" on="1"/>
        <pt x="221" y="-74" on="0"/>
        <pt x="256" y="-41" on="0"/>
        <pt x="297" y="-41" on="1"/>
        <pt x="339" y="-41" on="0"/>
        <pt x="374" y="-75" on="0"/>
        <pt x="374" y="-111" on="1"/>
        <pt x="374" y="-148" on="0"/>
        <pt x="339" y="-182" on="0"/>
      </contour>
      <contour>
        <pt x="52" y="577" on="1"/>
        <pt x="522" y="577" on="1"/>
        <pt x="522" y="429" on="1"/>
        <pt x="245" y="429" on="1"/>
        <pt x="245" y="358" on="1"/>
        <pt x="491" y="358" on="1"/>
        <pt x="491" y="219" on="1"/>
        <pt x="245" y="219" on="1"/>
        <pt x="245" y="149" on="1"/>
        <pt x="530" y="149" on="1"/>
        <pt x="530" y="0" on="1"/>
        <pt x="52" y="0" on="1"/>
      </contour>
    </TTGlyph>
    <TTGlyph name="Egrave" xMin="54" yMin="0" xMax="570" yMax="993">
      <contour>
        <pt x="246" y="794" on="1"/>
        <pt x="121" y="993" on="1"/>
        <pt x="325" y="993" on="1"/>
        <pt x="389" y="804" on="1"/>
      </contour>
      <contour>
        <pt x="54" y="740" on="1"/>
        <pt x="561" y="740" on="1"/>
        <pt x="561" y="575" on="1"/>
        <pt x="259" y="575" on="1"/>
        <pt x="259" y="453" on="1"/>
        <pt x="528" y="453" on="1"/>
        <pt x="528" y="287" on="1"/>
        <pt x="259" y="287" on="1"/>
        <pt x="259" y="166" on="1"/>
        <pt x="570" y="166" on="1"/>
        <pt x="570" y="0" on="1"/>
        <pt x="54" y="0" on="1"/>
      </contour>
    </TTGlyph>
    <TTGlyph name="Egrave.sc" xMin="52" yMin="0" xMax="530" yMax="790">
      <contour>
        <pt x="52" y="577" on="1"/>
        <pt x="522" y="577" on="1"/>
        <pt x="522" y="429" on="1"/>
        <pt x="245" y="429" on="1"/>
        <pt x="245" y="358" on="1"/>
        <pt x="491" y="358" on="1"/>
        <pt x="491" y="219" on="1"/>
        <pt x="245" y="219" on="1"/>
        <pt x="245" y="149" on="1"/>
        <pt x="530" y="149" on="1"/>
        <pt x="530" y="0" on="1"/>
        <pt x="52" y="0" on="1"/>
      </contour>
      <contour>
        <pt x="116" y="790" on="1"/>
        <pt x="308" y="790" on="1"/>
        <pt x="365" y="628" on="1"/>
        <pt x="230" y="621" on="1"/>
      </contour>
    </TTGlyph>
    <TTGlyph name="Einvertedbreve" xMin="54" yMin="0" xMax="570" yMax="994">
      <contour>
        <pt x="54" y="740" on="1"/>
        <pt x="561" y="740" on="1"/>
        <pt x="561" y="575" on="1"/>
        <pt x="259" y="575" on="1"/>
        <pt x="259" y="453" on="1"/>
        <pt x="528" y="453" on="1"/>
        <pt x="528" y="287" on="1"/>
        <pt x="259" y="287" on="1"/>
        <pt x="259" y="166" on="1"/>
        <pt x="570" y="166" on="1"/>
        <pt x="570" y="0" on="1"/>
        <pt x="54" y="0" on="1"/>
      </contour>
      <contour>
        <pt x="386" y="805" on="1"/>
        <pt x="386" y="859" on="0"/>
        <pt x="357" y="903" on="0"/>
        <pt x="313" y="903" on="1"/>
        <pt x="269" y="903" on="0"/>
        <pt x="240" y="858" on="0"/>
        <pt x="240" y="805" on="1"/>
        <pt x="108" y="805" on="1"/>
        <pt x="108" y="848" on="0"/>
        <pt x="132" y="917" on="0"/>
        <pt x="182" y="967" on="0"/>
        <pt x="260" y="994" on="0"/>
        <pt x="313" y="994" on="1"/>
        <pt x="419" y="994" on="0"/>
        <pt x="519" y="892" on="0"/>
        <pt x="519" y="805" on="1"/>
      </contour>
    </TTGlyph>
    <TTGlyph name="Einvertedbreve.sc" xMin="52" yMin="0" xMax="530" yMax="784">
      <contour>
        <pt x="100" y="627" on="1"/>
        <pt x="100" y="697" on="0"/>
        <pt x="190" y="784" on="0"/>
        <pt x="292" y="784" on="1"/>
        <pt x="392" y="784" on="0"/>
        <pt x="483" y="698" on="0"/>
        <pt x="483" y="627" on="1"/>
        <pt x="358" y="627" on="1"/>
        <pt x="358" y="669" on="0"/>
        <pt x="333" y="701" on="0"/>
        <pt x="292" y="701" on="1"/>
        <pt x="251" y="701" on="0"/>
        <pt x="224" y="668" on="0"/>
        <pt x="224" y="627" on="1"/>
      </contour>
      <contour>
        <pt x="52" y="577" on="1"/>
        <pt x="522" y="577" on="1"/>
        <pt x="522" y="429" on="1"/>
        <pt x="245" y="429" on="1"/>
        <pt x="245" y="358" on="1"/>
        <pt x="491" y="358" on="1"/>
        <pt x="491" y="219" on="1"/>
        <pt x="245" y="219" on="1"/>
        <pt x="245" y="149" on="1"/>
        <pt x="530" y="149" on="1"/>
        <pt x="530" y="0" on="1"/>
        <pt x="52" y="0" on="1"/>
      </contour>
    </TTGlyph>
    <TTGlyph name="Emacron" xMin="54" yMin="0" xMax="570" yMax="968">
      <contour>
        <pt x="126" y="968" on="1"/>
        <pt x="500" y="968" on="1"/>
        <pt x="500" y="838" on="1"/>
        <pt x="126" y="838" on="1"/>
      </contour>
      <contour>
        <pt x="54" y="740" on="1"/>
        <pt x="561" y="740" on="1"/>
        <pt x="561" y="575" on="1"/>
        <pt x="259" y="575" on="1"/>
        <pt x="259" y="453" on="1"/>
        <pt x="528" y="453" on="1"/>
        <pt x="528" y="287" on="1"/>
        <pt x="259" y="287" on="1"/>
        <pt x="259" y="166" on="1"/>
        <pt x="570" y="166" on="1"/>
        <pt x="570" y="0" on="1"/>
        <pt x="54" y="0" on="1"/>
      </contour>
    </TTGlyph>
    <TTGlyph name="Emacron.sc" xMin="52" yMin="0" xMax="530" yMax="774">
      <contour>
        <pt x="52" y="577" on="1"/>
        <pt x="522" y="577" on="1"/>
        <pt x="522" y="429" on="1"/>
        <pt x="245" y="429" on="1"/>
        <pt x="245" y="358" on="1"/>
        <pt x="491" y="358" on="1"/>
        <pt x="491" y="219" on="1"/>
        <pt x="245" y="219" on="1"/>
        <pt x="245" y="149" on="1"/>
        <pt x="530" y="149" on="1"/>
        <pt x="530" y="0" on="1"/>
        <pt x="52" y="0" on="1"/>
      </contour>
      <contour>
        <pt x="118" y="774" on="1"/>
        <pt x="466" y="774" on="1"/>
        <pt x="466" y="653" on="1"/>
        <pt x="118" y="653" on="1"/>
      </contour>
    </TTGlyph>
    <TTGlyph name="Eng" xMin="54" yMin="-214" xMax="684" yMax="740">
      <contour>
        <pt x="416" y="-171" on="1"/>
        <pt x="441" y="-105" on="0"/>
        <pt x="469" y="10" on="0"/>
        <pt x="475" y="67" on="1"/>
        <pt x="291" y="323" on="1"/>
        <pt x="246" y="407" on="1"/>
        <pt x="235" y="407" on="1"/>
        <pt x="235" y="0" on="1"/>
        <pt x="54" y="0" on="1"/>
        <pt x="54" y="740" on="1"/>
        <pt x="217" y="740" on="1"/>
        <pt x="448" y="417" on="1"/>
        <pt x="491" y="335" on="1"/>
        <pt x="502" y="335" on="1"/>
        <pt x="502" y="740" on="1"/>
        <pt x="684" y="740" on="1"/>
        <pt x="684" y="133" on="1"/>
        <pt x="684" y="103" on="0"/>
        <pt x="663" y="20" on="0"/>
        <pt x="626" y="-73" on="0"/>
        <pt x="576" y="-171" on="0"/>
        <pt x="548" y="-214" on="1"/>
      </contour>
    </TTGlyph>
    <TTGlyph name="Eng.sc" xMin="53" yMin="-174" xMax="626" yMax="577">
      <contour>
        <pt x="381" y="-133" on="1"/>
        <pt x="404" y="-77" on="0"/>
        <pt x="430" y="13" on="0"/>
        <pt x="435" y="58" on="1"/>
        <pt x="276" y="205" on="1"/>
        <pt x="233" y="271" on="1"/>
        <pt x="223" y="272" on="1"/>
        <pt x="223" y="0" on="1"/>
        <pt x="53" y="0" on="1"/>
        <pt x="53" y="577" on="1"/>
        <pt x="205" y="577" on="1"/>
        <pt x="405" y="371" on="1"/>
        <pt x="446" y="309" on="1"/>
        <pt x="455" y="309" on="1"/>
        <pt x="455" y="577" on="1"/>
        <pt x="626" y="577" on="1"/>
        <pt x="626" y="119" on="1"/>
        <pt x="626" y="93" on="0"/>
        <pt x="608" y="24" on="0"/>
        <pt x="576" y="-54" on="0"/>
        <pt x="531" y="-136" on="0"/>
        <pt x="505" y="-174" on="1"/>
      </contour>
    </TTGlyph>
    <TTGlyph name="Eogonek" xMin="54" yMin="-220" xMax="571" yMax="740">
      <contour>
        <pt x="54" y="740" on="1"/>
        <pt x="561" y="740" on="1"/>
        <pt x="561" y="575" on="1"/>
        <pt x="259" y="575" on="1"/>
        <pt x="259" y="453" on="1"/>
        <pt x="528" y="453" on="1"/>
        <pt x="528" y="287" on="1"/>
        <pt x="259" y="287" on="1"/>
        <pt x="259" y="166" on="1"/>
        <pt x="570" y="166" on="1"/>
        <pt x="570" y="-5" on="1"/>
        <pt x="537" y="-18" on="0"/>
        <pt x="494" y="-43" on="0"/>
        <pt x="468" y="-66" on="0"/>
        <pt x="457" y="-86" on="0"/>
        <pt x="457" y="-93" on="1"/>
        <pt x="457" y="-103" on="0"/>
        <pt x="475" y="-111" on="0"/>
        <pt x="490" y="-111" on="1"/>
        <pt x="507" y="-111" on="0"/>
        <pt x="553" y="-102" on="0"/>
        <pt x="571" y="-97" on="1"/>
        <pt x="571" y="-208" on="1"/>
        <pt x="545" y="-213" on="0"/>
        <pt x="501" y="-220" on="0"/>
        <pt x="475" y="-220" on="1"/>
        <pt x="331" y="-220" on="0"/>
        <pt x="331" y="-118" on="1"/>
        <pt x="331" y="-86" on="0"/>
        <pt x="366" y="-29" on="0"/>
        <pt x="405" y="0" on="1"/>
        <pt x="54" y="0" on="1"/>
      </contour>
    </TTGlyph>
    <TTGlyph name="Eogonek.sc" xMin="53" yMin="-172" xMax="532" yMax="577">
      <contour>
        <pt x="444" y="-172" on="1"/>
        <pt x="309" y="-172" on="0"/>
        <pt x="309" y="-88" on="1"/>
        <pt x="309" y="-62" on="0"/>
        <pt x="339" y="-21" on="0"/>
        <pt x="371" y="0" on="1"/>
        <pt x="53" y="0" on="1"/>
        <pt x="53" y="577" on="1"/>
        <pt x="522" y="577" on="1"/>
        <pt x="522" y="429" on="1"/>
        <pt x="246" y="429" on="1"/>
        <pt x="246" y="358" on="1"/>
        <pt x="492" y="358" on="1"/>
        <pt x="492" y="219" on="1"/>
        <pt x="246" y="219" on="1"/>
        <pt x="246" y="149" on="1"/>
        <pt x="531" y="149" on="1"/>
        <pt x="531" y="-1" on="1"/>
        <pt x="499" y="-13" on="0"/>
        <pt x="458" y="-33" on="0"/>
        <pt x="436" y="-49" on="0"/>
        <pt x="428" y="-60" on="0"/>
        <pt x="428" y="-63" on="1"/>
        <pt x="428" y="-71" on="0"/>
        <pt x="455" y="-71" on="1"/>
        <pt x="472" y="-71" on="0"/>
        <pt x="517" y="-64" on="0"/>
        <pt x="532" y="-61" on="1"/>
        <pt x="532" y="-162" on="1"/>
        <pt x="508" y="-167" on="0"/>
        <pt x="467" y="-172" on="0"/>
      </contour>
    </TTGlyph>
    <TTGlyph name="Eth" xMin="0" yMin="-12" xMax="703" yMax="749">
      <contour>
        <pt x="0" y="450" on="1"/>
        <pt x="81" y="450" on="1"/>
        <pt x="81" y="740" on="1"/>
        <pt x="158" y="744" on="0"/>
        <pt x="263" y="749" on="0"/>
        <pt x="305" y="749" on="1"/>
        <pt x="413" y="749" on="0"/>
        <pt x="564" y="708" on="0"/>
        <pt x="659" y="617" on="0"/>
        <pt x="703" y="472" on="0"/>
        <pt x="703" y="369" on="1"/>
        <pt x="703" y="265" on="0"/>
        <pt x="659" y="120" on="0"/>
        <pt x="560" y="29" on="0"/>
        <pt x="402" y="-12" on="0"/>
        <pt x="289" y="-12" on="1"/>
        <pt x="243" y="-12" on="0"/>
        <pt x="141" y="-5" on="0"/>
        <pt x="81" y="1" on="1"/>
        <pt x="81" y="298" on="1"/>
        <pt x="0" y="298" on="1"/>
      </contour>
      <contour>
        <pt x="365" y="151" on="1"/>
        <pt x="404" y="151" on="0"/>
        <pt x="453" y="169" on="0"/>
        <pt x="482" y="218" on="0"/>
        <pt x="493" y="303" on="0"/>
        <pt x="493" y="370" on="1"/>
        <pt x="493" y="435" on="0"/>
        <pt x="480" y="520" on="0"/>
        <pt x="445" y="569" on="0"/>
        <pt x="387" y="588" on="0"/>
        <pt x="342" y="588" on="1"/>
        <pt x="325" y="588" on="0"/>
        <pt x="298" y="586" on="0"/>
        <pt x="283" y="584" on="1"/>
        <pt x="283" y="450" on="1"/>
        <pt x="361" y="450" on="1"/>
        <pt x="361" y="298" on="1"/>
        <pt x="283" y="298" on="1"/>
        <pt x="283" y="157" on="1"/>
        <pt x="309" y="154" on="0"/>
        <pt x="347" y="151" on="0"/>
      </contour>
    </TTGlyph>
    <TTGlyph name="Eth.sc" xMin="5" yMin="-8" xMax="654" yMax="584">
      <contour>
        <pt x="5" y="361" on="1"/>
        <pt x="78" y="361" on="1"/>
        <pt x="78" y="578" on="1"/>
        <pt x="151" y="581" on="0"/>
        <pt x="249" y="584" on="0"/>
        <pt x="288" y="584" on="1"/>
        <pt x="387" y="584" on="0"/>
        <pt x="526" y="552" on="0"/>
        <pt x="614" y="482" on="0"/>
        <pt x="654" y="369" on="0"/>
        <pt x="654" y="288" on="1"/>
        <pt x="654" y="206" on="0"/>
        <pt x="613" y="93" on="0"/>
        <pt x="521" y="23" on="0"/>
        <pt x="376" y="-8" on="0"/>
        <pt x="271" y="-8" on="1"/>
        <pt x="228" y="-8" on="0"/>
        <pt x="132" y="-3" on="0"/>
        <pt x="78" y="2" on="1"/>
        <pt x="78" y="223" on="1"/>
        <pt x="5" y="223" on="1"/>
      </contour>
      <contour>
        <pt x="344" y="144" on="1"/>
        <pt x="378" y="144" on="0"/>
        <pt x="422" y="153" on="0"/>
        <pt x="447" y="184" on="0"/>
        <pt x="456" y="241" on="0"/>
        <pt x="456" y="289" on="1"/>
        <pt x="456" y="335" on="0"/>
        <pt x="444" y="391" on="0"/>
        <pt x="414" y="423" on="0"/>
        <pt x="363" y="434" on="0"/>
        <pt x="323" y="434" on="1"/>
        <pt x="308" y="434" on="0"/>
        <pt x="284" y="433" on="0"/>
        <pt x="268" y="432" on="1"/>
        <pt x="268" y="361" on="1"/>
        <pt x="336" y="361" on="1"/>
        <pt x="336" y="223" on="1"/>
        <pt x="268" y="223" on="1"/>
        <pt x="268" y="148" on="1"/>
        <pt x="291" y="146" on="0"/>
        <pt x="327" y="144" on="0"/>
      </contour>
    </TTGlyph>
    <TTGlyph name="Etilde" xMin="54" yMin="0" xMax="570" yMax="977">
      <contour>
        <pt x="103" y="840" on="1"/>
        <pt x="137" y="909" on="0"/>
        <pt x="221" y="977" on="0"/>
        <pt x="262" y="977" on="1"/>
        <pt x="284" y="977" on="0"/>
        <pt x="327" y="965" on="0"/>
        <pt x="370" y="951" on="0"/>
        <pt x="414" y="939" on="0"/>
        <pt x="436" y="939" on="1"/>
        <pt x="457" y="939" on="0"/>
        <pt x="496" y="954" on="0"/>
        <pt x="522" y="977" on="1"/>
        <pt x="545" y="951" on="1"/>
        <pt x="511" y="882" on="0"/>
        <pt x="427" y="815" on="0"/>
        <pt x="387" y="815" on="1"/>
        <pt x="365" y="815" on="0"/>
        <pt x="321" y="827" on="0"/>
        <pt x="277" y="840" on="0"/>
        <pt x="234" y="852" on="0"/>
        <pt x="212" y="852" on="1"/>
        <pt x="190" y="852" on="0"/>
        <pt x="151" y="837" on="0"/>
        <pt x="126" y="815" on="1"/>
      </contour>
      <contour>
        <pt x="54" y="740" on="1"/>
        <pt x="561" y="740" on="1"/>
        <pt x="561" y="575" on="1"/>
        <pt x="259" y="575" on="1"/>
        <pt x="259" y="453" on="1"/>
        <pt x="528" y="453" on="1"/>
        <pt x="528" y="287" on="1"/>
        <pt x="259" y="287" on="1"/>
        <pt x="259" y="166" on="1"/>
        <pt x="570" y="166" on="1"/>
        <pt x="570" y="0" on="1"/>
        <pt x="54" y="0" on="1"/>
      </contour>
    </TTGlyph>
    <TTGlyph name="Etilde.sc" xMin="52" yMin="0" xMax="530" yMax="779">
      <contour>
        <pt x="95" y="654" on="1"/>
        <pt x="126" y="717" on="0"/>
        <pt x="205" y="778" on="0"/>
        <pt x="243" y="778" on="1"/>
        <pt x="263" y="778" on="0"/>
        <pt x="303" y="769" on="0"/>
        <pt x="344" y="759" on="0"/>
        <pt x="385" y="750" on="0"/>
        <pt x="406" y="750" on="1"/>
        <pt x="425" y="750" on="0"/>
        <pt x="461" y="761" on="0"/>
        <pt x="485" y="779" on="1"/>
        <pt x="506" y="757" on="1"/>
        <pt x="474" y="694" on="0"/>
        <pt x="396" y="634" on="0"/>
        <pt x="359" y="634" on="1"/>
        <pt x="338" y="634" on="0"/>
        <pt x="297" y="643" on="0"/>
        <pt x="257" y="653" on="0"/>
        <pt x="216" y="662" on="0"/>
        <pt x="195" y="662" on="1"/>
        <pt x="175" y="662" on="0"/>
        <pt x="139" y="652" on="0"/>
        <pt x="116" y="634" on="1"/>
      </contour>
      <contour>
        <pt x="52" y="577" on="1"/>
        <pt x="522" y="577" on="1"/>
        <pt x="522" y="429" on="1"/>
        <pt x="245" y="429" on="1"/>
        <pt x="245" y="358" on="1"/>
        <pt x="491" y="358" on="1"/>
        <pt x="491" y="219" on="1"/>
        <pt x="245" y="219" on="1"/>
        <pt x="245" y="149" on="1"/>
        <pt x="530" y="149" on="1"/>
        <pt x="530" y="0" on="1"/>
        <pt x="52" y="0" on="1"/>
      </contour>
    </TTGlyph>
    <TTGlyph name="Euro" xMin="26" yMin="-10" xMax="618" yMax="750">
      <contour>
        <pt x="26" y="509" on="1"/>
        <pt x="111" y="509" on="1"/>
        <pt x="142" y="627" on="0"/>
        <pt x="317" y="750" on="0"/>
        <pt x="463" y="750" on="1"/>
        <pt x="511" y="750" on="0"/>
        <pt x="590" y="737" on="0"/>
        <pt x="618" y="728" on="1"/>
        <pt x="581" y="572" on="1"/>
        <pt x="558" y="575" on="0"/>
        <pt x="512" y="579" on="0"/>
        <pt x="493" y="579" on="1"/>
        <pt x="419" y="579" on="0"/>
        <pt x="339" y="549" on="0"/>
        <pt x="321" y="509" on="1"/>
        <pt x="551" y="509" on="1"/>
        <pt x="531" y="400" on="1"/>
        <pt x="302" y="400" on="1"/>
        <pt x="302" y="340" on="1"/>
        <pt x="519" y="340" on="1"/>
        <pt x="499" y="231" on="1"/>
        <pt x="320" y="231" on="1"/>
        <pt x="338" y="190" on="0"/>
        <pt x="419" y="160" on="0"/>
        <pt x="495" y="160" on="1"/>
        <pt x="564" y="160" on="0"/>
        <pt x="618" y="176" on="1"/>
        <pt x="618" y="11" on="1"/>
        <pt x="589" y="0" on="0"/>
        <pt x="509" y="-10" on="0"/>
        <pt x="465" y="-10" on="1"/>
        <pt x="317" y="-10" on="0"/>
        <pt x="141" y="112" on="0"/>
        <pt x="111" y="231" on="1"/>
        <pt x="26" y="231" on="1"/>
        <pt x="26" y="340" on="1"/>
        <pt x="96" y="340" on="1"/>
        <pt x="96" y="400" on="1"/>
        <pt x="26" y="400" on="1"/>
      </contour>
    </TTGlyph>
    <TTGlyph name="Euro.tab" xMin="15" yMin="-10" xMax="598" yMax="750">
      <contour>
        <pt x="15" y="509" on="1"/>
        <pt x="99" y="509" on="1"/>
        <pt x="129" y="627" on="0"/>
        <pt x="301" y="750" on="0"/>
        <pt x="444" y="750" on="1"/>
        <pt x="492" y="750" on="0"/>
        <pt x="570" y="737" on="0"/>
        <pt x="598" y="728" on="1"/>
        <pt x="562" y="572" on="1"/>
        <pt x="539" y="575" on="0"/>
        <pt x="493" y="579" on="0"/>
        <pt x="474" y="579" on="1"/>
        <pt x="403" y="579" on="0"/>
        <pt x="325" y="549" on="0"/>
        <pt x="307" y="509" on="1"/>
        <pt x="532" y="509" on="1"/>
        <pt x="512" y="400" on="1"/>
        <pt x="288" y="400" on="1"/>
        <pt x="288" y="340" on="1"/>
        <pt x="501" y="340" on="1"/>
        <pt x="481" y="231" on="1"/>
        <pt x="307" y="231" on="1"/>
        <pt x="325" y="190" on="0"/>
        <pt x="404" y="160" on="0"/>
        <pt x="476" y="160" on="1"/>
        <pt x="546" y="160" on="0"/>
        <pt x="598" y="176" on="1"/>
        <pt x="598" y="11" on="1"/>
        <pt x="570" y="0" on="0"/>
        <pt x="490" y="-10" on="0"/>
        <pt x="446" y="-10" on="1"/>
        <pt x="301" y="-10" on="0"/>
        <pt x="128" y="112" on="0"/>
        <pt x="99" y="231" on="1"/>
        <pt x="15" y="231" on="1"/>
        <pt x="15" y="340" on="1"/>
        <pt x="84" y="340" on="1"/>
        <pt x="83" y="346" on="0"/>
        <pt x="83" y="363" on="0"/>
        <pt x="83" y="370" on="1"/>
        <pt x="83" y="376" on="0"/>
        <pt x="83" y="393" on="0"/>
        <pt x="84" y="400" on="1"/>
        <pt x="15" y="400" on="1"/>
      </contour>
    </TTGlyph>
    <TTGlyph name="F" xMin="54" yMin="0" xMax="554" yMax="740">
      <contour>
        <pt x="54" y="740" on="1"/>
        <pt x="554" y="740" on="1"/>
        <pt x="554" y="575" on="1"/>
        <pt x="259" y="575" on="1"/>
        <pt x="259" y="430" on="1"/>
        <pt x="520" y="430" on="1"/>
        <pt x="520" y="265" on="1"/>
        <pt x="259" y="265" on="1"/>
        <pt x="259" y="0" on="1"/>
        <pt x="54" y="0" on="1"/>
      </contour>
    </TTGlyph>
    <TTGlyph name="F.sc" xMin="52" yMin="0" xMax="516" yMax="577">
      <contour>
        <pt x="52" y="577" on="1"/>
        <pt x="516" y="577" on="1"/>
        <pt x="516" y="424" on="1"/>
        <pt x="245" y="424" on="1"/>
        <pt x="245" y="340" on="1"/>
        <pt x="485" y="340" on="1"/>
        <pt x="485" y="191" on="1"/>
        <pt x="245" y="191" on="1"/>
        <pt x="245" y="0" on="1"/>
        <pt x="52" y="0" on="1"/>
      </contour>
    </TTGlyph>
    <TTGlyph name="F_B.sc" xMin="53" yMin="-8" xMax="1119" yMax="585">
      <contour>
        <pt x="53" y="577" on="1"/>
        <pt x="517" y="577" on="1"/>
        <pt x="517" y="424" on="1"/>
        <pt x="246" y="424" on="1"/>
        <pt x="246" y="340" on="1"/>
        <pt x="486" y="340" on="1"/>
        <pt x="486" y="191" on="1"/>
        <pt x="246" y="191" on="1"/>
        <pt x="246" y="0" on="1"/>
        <pt x="53" y="0" on="1"/>
      </contour>
      <contour>
        <pt x="812" y="-8" on="1"/>
        <pt x="755" y="-8" on="0"/>
        <pt x="645" y="-2" on="0"/>
        <pt x="586" y="4" on="1"/>
        <pt x="586" y="573" on="1"/>
        <pt x="712" y="585" on="0"/>
        <pt x="809" y="585" on="1"/>
        <pt x="961" y="585" on="0"/>
        <pt x="1100" y="504" on="0"/>
        <pt x="1100" y="416" on="1"/>
        <pt x="1100" y="326" on="0"/>
        <pt x="997" y="299" on="1"/>
        <pt x="997" y="296" on="1"/>
        <pt x="1057" y="285" on="0"/>
        <pt x="1119" y="218" on="0"/>
        <pt x="1119" y="162" on="1"/>
        <pt x="1119" y="-8" on="0"/>
      </contour>
      <contour>
        <pt x="832" y="128" on="1"/>
        <pt x="932" y="128" on="0"/>
        <pt x="932" y="178" on="1"/>
        <pt x="932" y="208" on="0"/>
        <pt x="887" y="230" on="0"/>
        <pt x="831" y="230" on="1"/>
        <pt x="765" y="230" on="1"/>
        <pt x="765" y="130" on="1"/>
        <pt x="769" y="129" on="0"/>
        <pt x="778" y="128" on="0"/>
        <pt x="792" y="128" on="0"/>
        <pt x="814" y="128" on="0"/>
      </contour>
      <contour>
        <pt x="824" y="350" on="1"/>
        <pt x="873" y="350" on="0"/>
        <pt x="911" y="372" on="0"/>
        <pt x="911" y="402" on="1"/>
        <pt x="911" y="428" on="0"/>
        <pt x="872" y="449" on="0"/>
        <pt x="828" y="449" on="1"/>
        <pt x="814" y="449" on="0"/>
        <pt x="781" y="448" on="0"/>
        <pt x="765" y="446" on="1"/>
        <pt x="765" y="350" on="1"/>
      </contour>
    </TTGlyph>
    <TTGlyph name="F_F.sc" xMin="52" yMin="0" xMax="1049" yMax="577">
      <contour>
        <pt x="52" y="577" on="1"/>
        <pt x="516" y="577" on="1"/>
        <pt x="516" y="424" on="1"/>
        <pt x="245" y="424" on="1"/>
        <pt x="245" y="340" on="1"/>
        <pt x="485" y="340" on="1"/>
        <pt x="485" y="191" on="1"/>
        <pt x="245" y="191" on="1"/>
        <pt x="245" y="0" on="1"/>
        <pt x="52" y="0" on="1"/>
      </contour>
      <contour>
        <pt x="585" y="577" on="1"/>
        <pt x="1049" y="577" on="1"/>
        <pt x="1049" y="424" on="1"/>
        <pt x="778" y="424" on="1"/>
        <pt x="778" y="340" on="1"/>
        <pt x="1018" y="340" on="1"/>
        <pt x="1018" y="191" on="1"/>
        <pt x="778" y="191" on="1"/>
        <pt x="778" y="0" on="1"/>
        <pt x="585" y="0" on="1"/>
      </contour>
    </TTGlyph>
    <TTGlyph name="F_F_B.sc" xMin="53" yMin="-8" xMax="1652" yMax="585">
      <contour>
        <pt x="53" y="577" on="1"/>
        <pt x="517" y="577" on="1"/>
        <pt x="517" y="424" on="1"/>
        <pt x="246" y="424" on="1"/>
        <pt x="246" y="340" on="1"/>
        <pt x="486" y="340" on="1"/>
        <pt x="486" y="191" on="1"/>
        <pt x="246" y="191" on="1"/>
        <pt x="246" y="0" on="1"/>
        <pt x="53" y="0" on="1"/>
      </contour>
      <contour>
        <pt x="586" y="577" on="1"/>
        <pt x="1050" y="577" on="1"/>
        <pt x="1050" y="424" on="1"/>
        <pt x="779" y="424" on="1"/>
        <pt x="779" y="340" on="1"/>
        <pt x="1019" y="340" on="1"/>
        <pt x="1019" y="191" on="1"/>
        <pt x="779" y="191" on="1"/>
        <pt x="779" y="0" on="1"/>
        <pt x="586" y="0" on="1"/>
      </contour>
      <contour>
        <pt x="1345" y="-8" on="1"/>
        <pt x="1288" y="-8" on="0"/>
        <pt x="1178" y="-2" on="0"/>
        <pt x="1119" y="4" on="1"/>
        <pt x="1119" y="573" on="1"/>
        <pt x="1245" y="585" on="0"/>
        <pt x="1342" y="585" on="1"/>
        <pt x="1494" y="585" on="0"/>
        <pt x="1633" y="504" on="0"/>
        <pt x="1633" y="416" on="1"/>
        <pt x="1633" y="326" on="0"/>
        <pt x="1530" y="299" on="1"/>
        <pt x="1530" y="296" on="1"/>
        <pt x="1590" y="285" on="0"/>
        <pt x="1652" y="218" on="0"/>
        <pt x="1652" y="162" on="1"/>
        <pt x="1652" y="-8" on="0"/>
      </contour>
      <contour>
        <pt x="1365" y="128" on="1"/>
        <pt x="1465" y="128" on="0"/>
        <pt x="1465" y="178" on="1"/>
        <pt x="1465" y="208" on="0"/>
        <pt x="1420" y="230" on="0"/>
        <pt x="1364" y="230" on="1"/>
        <pt x="1298" y="230" on="1"/>
        <pt x="1298" y="130" on="1"/>
        <pt x="1302" y="129" on="0"/>
        <pt x="1311" y="128" on="0"/>
        <pt x="1325" y="128" on="0"/>
        <pt x="1347" y="128" on="0"/>
      </contour>
      <contour>
        <pt x="1357" y="350" on="1"/>
        <pt x="1406" y="350" on="0"/>
        <pt x="1444" y="372" on="0"/>
        <pt x="1444" y="402" on="1"/>
        <pt x="1444" y="428" on="0"/>
        <pt x="1405" y="449" on="0"/>
        <pt x="1361" y="449" on="1"/>
        <pt x="1347" y="449" on="0"/>
        <pt x="1314" y="448" on="0"/>
        <pt x="1298" y="446" on="1"/>
        <pt x="1298" y="350" on="1"/>
      </contour>
    </TTGlyph>
    <TTGlyph name="F_F_H.sc" xMin="52" yMin="0" xMax="1706" yMax="577">
      <contour>
        <pt x="52" y="577" on="1"/>
        <pt x="516" y="577" on="1"/>
        <pt x="516" y="424" on="1"/>
        <pt x="245" y="424" on="1"/>
        <pt x="245" y="340" on="1"/>
        <pt x="485" y="340" on="1"/>
        <pt x="485" y="191" on="1"/>
        <pt x="245" y="191" on="1"/>
        <pt x="245" y="0" on="1"/>
        <pt x="52" y="0" on="1"/>
      </contour>
      <contour>
        <pt x="585" y="577" on="1"/>
        <pt x="1049" y="577" on="1"/>
        <pt x="1049" y="424" on="1"/>
        <pt x="778" y="424" on="1"/>
        <pt x="778" y="340" on="1"/>
        <pt x="1018" y="340" on="1"/>
        <pt x="1018" y="191" on="1"/>
        <pt x="778" y="191" on="1"/>
        <pt x="778" y="0" on="1"/>
        <pt x="585" y="0" on="1"/>
      </contour>
      <contour>
        <pt x="1118" y="577" on="1"/>
        <pt x="1311" y="577" on="1"/>
        <pt x="1311" y="372" on="1"/>
        <pt x="1512" y="372" on="1"/>
        <pt x="1512" y="577" on="1"/>
        <pt x="1706" y="577" on="1"/>
        <pt x="1706" y="0" on="1"/>
        <pt x="1512" y="0" on="1"/>
        <pt x="1512" y="219" on="1"/>
        <pt x="1311" y="219" on="1"/>
        <pt x="1311" y="0" on="1"/>
        <pt x="1118" y="0" on="1"/>
      </contour>
    </TTGlyph>
    <TTGlyph name="F_F_I.sc" xMin="52" yMin="0" xMax="1311" yMax="577">
      <contour>
        <pt x="52" y="577" on="1"/>
        <pt x="516" y="577" on="1"/>
        <pt x="516" y="424" on="1"/>
        <pt x="245" y="424" on="1"/>
        <pt x="245" y="340" on="1"/>
        <pt x="485" y="340" on="1"/>
        <pt x="485" y="191" on="1"/>
        <pt x="245" y="191" on="1"/>
        <pt x="245" y="0" on="1"/>
        <pt x="52" y="0" on="1"/>
      </contour>
      <contour>
        <pt x="585" y="577" on="1"/>
        <pt x="1049" y="577" on="1"/>
        <pt x="1049" y="424" on="1"/>
        <pt x="778" y="424" on="1"/>
        <pt x="778" y="340" on="1"/>
        <pt x="1018" y="340" on="1"/>
        <pt x="1018" y="191" on="1"/>
        <pt x="778" y="191" on="1"/>
        <pt x="778" y="0" on="1"/>
        <pt x="585" y="0" on="1"/>
      </contour>
      <contour>
        <pt x="1118" y="577" on="1"/>
        <pt x="1311" y="577" on="1"/>
        <pt x="1311" y="0" on="1"/>
        <pt x="1118" y="0" on="1"/>
      </contour>
    </TTGlyph>
    <TTGlyph name="F_F_J.sc" xMin="53" yMin="-176" xMax="1322" yMax="577">
      <contour>
        <pt x="53" y="577" on="1"/>
        <pt x="517" y="577" on="1"/>
        <pt x="517" y="424" on="1"/>
        <pt x="246" y="424" on="1"/>
        <pt x="246" y="340" on="1"/>
        <pt x="486" y="340" on="1"/>
        <pt x="486" y="191" on="1"/>
        <pt x="246" y="191" on="1"/>
        <pt x="246" y="0" on="1"/>
        <pt x="53" y="0" on="1"/>
      </contour>
      <contour>
        <pt x="586" y="577" on="1"/>
        <pt x="1050" y="577" on="1"/>
        <pt x="1050" y="424" on="1"/>
        <pt x="779" y="424" on="1"/>
        <pt x="779" y="340" on="1"/>
        <pt x="1019" y="340" on="1"/>
        <pt x="1019" y="191" on="1"/>
        <pt x="779" y="191" on="1"/>
        <pt x="779" y="0" on="1"/>
        <pt x="586" y="0" on="1"/>
      </contour>
      <contour>
        <pt x="1061" y="-124" on="1"/>
        <pt x="1080" y="-85" on="0"/>
        <pt x="1106" y="-19" on="0"/>
        <pt x="1122" y="47" on="0"/>
        <pt x="1128" y="117" on="0"/>
        <pt x="1128" y="159" on="1"/>
        <pt x="1128" y="577" on="1"/>
        <pt x="1322" y="577" on="1"/>
        <pt x="1322" y="142" on="1"/>
        <pt x="1322" y="100" on="0"/>
        <pt x="1308" y="25" on="0"/>
        <pt x="1275" y="-50" on="0"/>
        <pt x="1222" y="-129" on="0"/>
        <pt x="1183" y="-176" on="1"/>
      </contour>
    </TTGlyph>
    <TTGlyph name="F_F_K.sc" xMin="52" yMin="0" xMax="1710" yMax="577">
      <contour>
        <pt x="52" y="577" on="1"/>
        <pt x="516" y="577" on="1"/>
        <pt x="516" y="424" on="1"/>
        <pt x="245" y="424" on="1"/>
        <pt x="245" y="340" on="1"/>
        <pt x="485" y="340" on="1"/>
        <pt x="485" y="191" on="1"/>
        <pt x="245" y="191" on="1"/>
        <pt x="245" y="0" on="1"/>
        <pt x="52" y="0" on="1"/>
      </contour>
      <contour>
        <pt x="585" y="577" on="1"/>
        <pt x="1049" y="577" on="1"/>
        <pt x="1049" y="424" on="1"/>
        <pt x="778" y="424" on="1"/>
        <pt x="778" y="340" on="1"/>
        <pt x="1018" y="340" on="1"/>
        <pt x="1018" y="191" on="1"/>
        <pt x="778" y="191" on="1"/>
        <pt x="778" y="0" on="1"/>
        <pt x="585" y="0" on="1"/>
      </contour>
      <contour>
        <pt x="1118" y="577" on="1"/>
        <pt x="1311" y="577" on="1"/>
        <pt x="1311" y="370" on="1"/>
        <pt x="1377" y="370" on="1"/>
        <pt x="1480" y="577" on="1"/>
        <pt x="1692" y="577" on="1"/>
        <pt x="1554" y="323" on="1"/>
        <pt x="1490" y="301" on="1"/>
        <pt x="1490" y="294" on="1"/>
        <pt x="1556" y="271" on="1"/>
        <pt x="1710" y="0" on="1"/>
        <pt x="1496" y="0" on="1"/>
        <pt x="1377" y="216" on="1"/>
        <pt x="1311" y="216" on="1"/>
        <pt x="1311" y="0" on="1"/>
        <pt x="1118" y="0" on="1"/>
      </contour>
    </TTGlyph>
    <TTGlyph name="F_F_L.sc" xMin="52" yMin="0" xMax="1541" yMax="577">
      <contour>
        <pt x="1118" y="577" on="1"/>
        <pt x="1311" y="577" on="1"/>
        <pt x="1311" y="154" on="1"/>
        <pt x="1541" y="154" on="1"/>
        <pt x="1541" y="0" on="1"/>
        <pt x="1118" y="0" on="1"/>
      </contour>
      <contour>
        <pt x="52" y="577" on="1"/>
        <pt x="516" y="577" on="1"/>
        <pt x="516" y="424" on="1"/>
        <pt x="245" y="424" on="1"/>
        <pt x="245" y="340" on="1"/>
        <pt x="485" y="340" on="1"/>
        <pt x="485" y="191" on="1"/>
        <pt x="245" y="191" on="1"/>
        <pt x="245" y="0" on="1"/>
        <pt x="52" y="0" on="1"/>
      </contour>
      <contour>
        <pt x="585" y="577" on="1"/>
        <pt x="1049" y="577" on="1"/>
        <pt x="1049" y="424" on="1"/>
        <pt x="778" y="424" on="1"/>
        <pt x="778" y="340" on="1"/>
        <pt x="1018" y="340" on="1"/>
        <pt x="1018" y="191" on="1"/>
        <pt x="778" y="191" on="1"/>
        <pt x="778" y="0" on="1"/>
        <pt x="585" y="0" on="1"/>
      </contour>
    </TTGlyph>
    <TTGlyph name="F_F_T.sc" xMin="52" yMin="0" xMax="1572" yMax="577">
      <contour>
        <pt x="1219" y="421" on="1"/>
        <pt x="1059" y="421" on="1"/>
        <pt x="1059" y="577" on="1"/>
        <pt x="1572" y="577" on="1"/>
        <pt x="1572" y="421" on="1"/>
        <pt x="1412" y="421" on="1"/>
        <pt x="1412" y="0" on="1"/>
        <pt x="1219" y="0" on="1"/>
      </contour>
      <contour>
        <pt x="52" y="577" on="1"/>
        <pt x="516" y="577" on="1"/>
        <pt x="516" y="424" on="1"/>
        <pt x="245" y="424" on="1"/>
        <pt x="245" y="340" on="1"/>
        <pt x="485" y="340" on="1"/>
        <pt x="485" y="191" on="1"/>
        <pt x="245" y="191" on="1"/>
        <pt x="245" y="0" on="1"/>
        <pt x="52" y="0" on="1"/>
      </contour>
      <contour>
        <pt x="585" y="577" on="1"/>
        <pt x="1049" y="577" on="1"/>
        <pt x="1049" y="424" on="1"/>
        <pt x="778" y="424" on="1"/>
        <pt x="778" y="340" on="1"/>
        <pt x="1018" y="340" on="1"/>
        <pt x="1018" y="191" on="1"/>
        <pt x="778" y="191" on="1"/>
        <pt x="778" y="0" on="1"/>
        <pt x="585" y="0" on="1"/>
      </contour>
    </TTGlyph>
    <TTGlyph name="F_H.sc" xMin="52" yMin="0" xMax="1173" yMax="577">
      <contour>
        <pt x="52" y="577" on="1"/>
        <pt x="516" y="577" on="1"/>
        <pt x="516" y="424" on="1"/>
        <pt x="245" y="424" on="1"/>
        <pt x="245" y="340" on="1"/>
        <pt x="485" y="340" on="1"/>
        <pt x="485" y="191" on="1"/>
        <pt x="245" y="191" on="1"/>
        <pt x="245" y="0" on="1"/>
        <pt x="52" y="0" on="1"/>
      </contour>
      <contour>
        <pt x="585" y="577" on="1"/>
        <pt x="778" y="577" on="1"/>
        <pt x="778" y="372" on="1"/>
        <pt x="979" y="372" on="1"/>
        <pt x="979" y="577" on="1"/>
        <pt x="1173" y="577" on="1"/>
        <pt x="1173" y="0" on="1"/>
        <pt x="979" y="0" on="1"/>
        <pt x="979" y="219" on="1"/>
        <pt x="778" y="219" on="1"/>
        <pt x="778" y="0" on="1"/>
        <pt x="585" y="0" on="1"/>
      </contour>
    </TTGlyph>
    <TTGlyph name="F_I.sc" xMin="52" yMin="0" xMax="778" yMax="577">
      <contour>
        <pt x="52" y="577" on="1"/>
        <pt x="516" y="577" on="1"/>
        <pt x="516" y="424" on="1"/>
        <pt x="245" y="424" on="1"/>
        <pt x="245" y="340" on="1"/>
        <pt x="485" y="340" on="1"/>
        <pt x="485" y="191" on="1"/>
        <pt x="245" y="191" on="1"/>
        <pt x="245" y="0" on="1"/>
        <pt x="52" y="0" on="1"/>
      </contour>
      <contour>
        <pt x="585" y="577" on="1"/>
        <pt x="778" y="577" on="1"/>
        <pt x="778" y="0" on="1"/>
        <pt x="585" y="0" on="1"/>
      </contour>
    </TTGlyph>
    <TTGlyph name="F_J.sc" xMin="53" yMin="-176" xMax="789" yMax="577">
      <contour>
        <pt x="53" y="577" on="1"/>
        <pt x="517" y="577" on="1"/>
        <pt x="517" y="424" on="1"/>
        <pt x="246" y="424" on="1"/>
        <pt x="246" y="340" on="1"/>
        <pt x="486" y="340" on="1"/>
        <pt x="486" y="191" on="1"/>
        <pt x="246" y="191" on="1"/>
        <pt x="246" y="0" on="1"/>
        <pt x="53" y="0" on="1"/>
      </contour>
      <contour>
        <pt x="528" y="-124" on="1"/>
        <pt x="547" y="-85" on="0"/>
        <pt x="573" y="-19" on="0"/>
        <pt x="589" y="47" on="0"/>
        <pt x="595" y="117" on="0"/>
        <pt x="595" y="159" on="1"/>
        <pt x="595" y="577" on="1"/>
        <pt x="789" y="577" on="1"/>
        <pt x="789" y="142" on="1"/>
        <pt x="789" y="100" on="0"/>
        <pt x="775" y="25" on="0"/>
        <pt x="742" y="-50" on="0"/>
        <pt x="689" y="-129" on="0"/>
        <pt x="650" y="-176" on="1"/>
      </contour>
    </TTGlyph>
    <TTGlyph name="F_K.sc" xMin="52" yMin="0" xMax="1177" yMax="577">
      <contour>
        <pt x="52" y="577" on="1"/>
        <pt x="516" y="577" on="1"/>
        <pt x="516" y="424" on="1"/>
        <pt x="245" y="424" on="1"/>
        <pt x="245" y="340" on="1"/>
        <pt x="485" y="340" on="1"/>
        <pt x="485" y="191" on="1"/>
        <pt x="245" y="191" on="1"/>
        <pt x="245" y="0" on="1"/>
        <pt x="52" y="0" on="1"/>
      </contour>
      <contour>
        <pt x="585" y="577" on="1"/>
        <pt x="778" y="577" on="1"/>
        <pt x="778" y="370" on="1"/>
        <pt x="844" y="370" on="1"/>
        <pt x="947" y="577" on="1"/>
        <pt x="1159" y="577" on="1"/>
        <pt x="1021" y="323" on="1"/>
        <pt x="957" y="301" on="1"/>
        <pt x="957" y="294" on="1"/>
        <pt x="1023" y="271" on="1"/>
        <pt x="1177" y="0" on="1"/>
        <pt x="963" y="0" on="1"/>
        <pt x="844" y="216" on="1"/>
        <pt x="778" y="216" on="1"/>
        <pt x="778" y="0" on="1"/>
        <pt x="585" y="0" on="1"/>
      </contour>
    </TTGlyph>
    <TTGlyph name="F_L.sc" xMin="52" yMin="0" xMax="1008" yMax="577">
      <contour>
        <pt x="585" y="577" on="1"/>
        <pt x="778" y="577" on="1"/>
        <pt x="778" y="154" on="1"/>
        <pt x="1008" y="154" on="1"/>
        <pt x="1008" y="0" on="1"/>
        <pt x="585" y="0" on="1"/>
      </contour>
      <contour>
        <pt x="52" y="577" on="1"/>
        <pt x="516" y="577" on="1"/>
        <pt x="516" y="424" on="1"/>
        <pt x="245" y="424" on="1"/>
        <pt x="245" y="340" on="1"/>
        <pt x="485" y="340" on="1"/>
        <pt x="485" y="191" on="1"/>
        <pt x="245" y="191" on="1"/>
        <pt x="245" y="0" on="1"/>
        <pt x="52" y="0" on="1"/>
      </contour>
    </TTGlyph>
    <TTGlyph name="F_T.sc" xMin="52" yMin="0" xMax="1039" yMax="577">
      <contour>
        <pt x="686" y="421" on="1"/>
        <pt x="526" y="421" on="1"/>
        <pt x="526" y="577" on="1"/>
        <pt x="1039" y="577" on="1"/>
        <pt x="1039" y="421" on="1"/>
        <pt x="879" y="421" on="1"/>
        <pt x="879" y="0" on="1"/>
        <pt x="686" y="0" on="1"/>
      </contour>
      <contour>
        <pt x="52" y="577" on="1"/>
        <pt x="516" y="577" on="1"/>
        <pt x="516" y="424" on="1"/>
        <pt x="245" y="424" on="1"/>
        <pt x="245" y="340" on="1"/>
        <pt x="485" y="340" on="1"/>
        <pt x="485" y="191" on="1"/>
        <pt x="245" y="191" on="1"/>
        <pt x="245" y="0" on="1"/>
        <pt x="52" y="0" on="1"/>
      </contour>
    </TTGlyph>
    <TTGlyph name="G" xMin="27" yMin="-11" xMax="602" yMax="751">
      <contour>
        <pt x="361" y="-11" on="1"/>
        <pt x="191" y="-11" on="0"/>
        <pt x="27" y="178" on="0"/>
        <pt x="27" y="370" on="1"/>
        <pt x="27" y="560" on="0"/>
        <pt x="213" y="751" on="0"/>
        <pt x="400" y="751" on="1"/>
        <pt x="446" y="751" on="0"/>
        <pt x="543" y="739" on="0"/>
        <pt x="589" y="727" on="1"/>
        <pt x="589" y="566" on="1"/>
        <pt x="533" y="576" on="0"/>
        <pt x="450" y="585" on="0"/>
        <pt x="419" y="585" on="1"/>
        <pt x="365" y="585" on="0"/>
        <pt x="295" y="565" on="0"/>
        <pt x="254" y="515" on="0"/>
        <pt x="237" y="432" on="0"/>
        <pt x="237" y="369" on="1"/>
        <pt x="237" y="305" on="0"/>
        <pt x="250" y="222" on="0"/>
        <pt x="283" y="174" on="0"/>
        <pt x="339" y="156" on="0"/>
        <pt x="383" y="156" on="1"/>
        <pt x="391" y="156" on="0"/>
        <pt x="408" y="156" on="0"/>
        <pt x="417" y="157" on="1"/>
        <pt x="417" y="376" on="1"/>
        <pt x="602" y="376" on="1"/>
        <pt x="602" y="15" on="1"/>
        <pt x="527" y="2" on="0"/>
        <pt x="409" y="-11" on="0"/>
      </contour>
    </TTGlyph>
    <TTGlyph name="G.sc" xMin="27" yMin="-9" xMax="558" yMax="586">
      <contour>
        <pt x="336" y="-9" on="1"/>
        <pt x="179" y="-9" on="0"/>
        <pt x="27" y="139" on="0"/>
        <pt x="27" y="289" on="1"/>
        <pt x="27" y="435" on="0"/>
        <pt x="198" y="586" on="0"/>
        <pt x="370" y="586" on="1"/>
        <pt x="412" y="586" on="0"/>
        <pt x="505" y="577" on="0"/>
        <pt x="547" y="567" on="1"/>
        <pt x="547" y="418" on="1"/>
        <pt x="494" y="425" on="0"/>
        <pt x="416" y="432" on="0"/>
        <pt x="388" y="432" on="1"/>
        <pt x="338" y="432" on="0"/>
        <pt x="275" y="420" on="0"/>
        <pt x="239" y="387" on="0"/>
        <pt x="225" y="331" on="0"/>
        <pt x="225" y="288" on="1"/>
        <pt x="225" y="243" on="0"/>
        <pt x="235" y="188" on="0"/>
        <pt x="264" y="158" on="0"/>
        <pt x="314" y="147" on="0"/>
        <pt x="355" y="147" on="1"/>
        <pt x="384" y="147" on="1"/>
        <pt x="384" y="293" on="1"/>
        <pt x="558" y="293" on="1"/>
        <pt x="558" y="14" on="1"/>
        <pt x="490" y="3" on="0"/>
        <pt x="380" y="-9" on="0"/>
      </contour>
    </TTGlyph>
    <TTGlyph name="Gacute" xMin="27" yMin="-11" xMax="602" yMax="993">
      <contour>
        <pt x="270" y="804" on="1"/>
        <pt x="334" y="993" on="1"/>
        <pt x="538" y="993" on="1"/>
        <pt x="413" y="794" on="1"/>
      </contour>
      <contour>
        <pt x="361" y="-11" on="1"/>
        <pt x="191" y="-11" on="0"/>
        <pt x="27" y="178" on="0"/>
        <pt x="27" y="370" on="1"/>
        <pt x="27" y="560" on="0"/>
        <pt x="213" y="751" on="0"/>
        <pt x="400" y="751" on="1"/>
        <pt x="446" y="751" on="0"/>
        <pt x="543" y="739" on="0"/>
        <pt x="589" y="727" on="1"/>
        <pt x="589" y="566" on="1"/>
        <pt x="533" y="576" on="0"/>
        <pt x="450" y="585" on="0"/>
        <pt x="419" y="585" on="1"/>
        <pt x="365" y="585" on="0"/>
        <pt x="295" y="565" on="0"/>
        <pt x="254" y="515" on="0"/>
        <pt x="237" y="432" on="0"/>
        <pt x="237" y="369" on="1"/>
        <pt x="237" y="305" on="0"/>
        <pt x="250" y="222" on="0"/>
        <pt x="283" y="174" on="0"/>
        <pt x="339" y="156" on="0"/>
        <pt x="383" y="156" on="1"/>
        <pt x="391" y="156" on="0"/>
        <pt x="408" y="156" on="0"/>
        <pt x="417" y="157" on="1"/>
        <pt x="417" y="376" on="1"/>
        <pt x="602" y="376" on="1"/>
        <pt x="602" y="15" on="1"/>
        <pt x="527" y="2" on="0"/>
        <pt x="409" y="-11" on="0"/>
      </contour>
    </TTGlyph>
    <TTGlyph name="Gacute.sc" xMin="27" yMin="-9" xMax="558" yMax="790">
      <contour>
        <pt x="336" y="-9" on="1"/>
        <pt x="179" y="-9" on="0"/>
        <pt x="27" y="139" on="0"/>
        <pt x="27" y="289" on="1"/>
        <pt x="27" y="436" on="0"/>
        <pt x="198" y="586" on="0"/>
        <pt x="370" y="586" on="1"/>
        <pt x="413" y="586" on="0"/>
        <pt x="505" y="577" on="0"/>
        <pt x="547" y="567" on="1"/>
        <pt x="547" y="417" on="1"/>
        <pt x="494" y="424" on="0"/>
        <pt x="416" y="432" on="0"/>
        <pt x="388" y="432" on="1"/>
        <pt x="339" y="432" on="0"/>
        <pt x="276" y="420" on="0"/>
        <pt x="239" y="388" on="0"/>
        <pt x="225" y="332" on="0"/>
        <pt x="225" y="288" on="1"/>
        <pt x="225" y="243" on="0"/>
        <pt x="236" y="187" on="0"/>
        <pt x="265" y="157" on="0"/>
        <pt x="315" y="147" on="0"/>
        <pt x="355" y="147" on="1"/>
        <pt x="384" y="147" on="1"/>
        <pt x="384" y="293" on="1"/>
        <pt x="558" y="293" on="1"/>
        <pt x="558" y="14" on="1"/>
        <pt x="422" y="-9" on="0"/>
      </contour>
      <contour>
        <pt x="248" y="630" on="1"/>
        <pt x="304" y="790" on="1"/>
        <pt x="497" y="790" on="1"/>
        <pt x="382" y="621" on="1"/>
      </contour>
    </TTGlyph>
    <TTGlyph name="Gbreve" xMin="27" yMin="-11" xMax="602" yMax="984">
      <contour>
        <pt x="353" y="795" on="1"/>
        <pt x="300" y="795" on="0"/>
        <pt x="222" y="822" on="0"/>
        <pt x="172" y="871" on="0"/>
        <pt x="148" y="941" on="0"/>
        <pt x="148" y="984" on="1"/>
        <pt x="280" y="984" on="1"/>
        <pt x="280" y="930" on="0"/>
        <pt x="309" y="886" on="0"/>
        <pt x="353" y="886" on="1"/>
        <pt x="397" y="886" on="0"/>
        <pt x="426" y="930" on="0"/>
        <pt x="426" y="984" on="1"/>
        <pt x="559" y="984" on="1"/>
        <pt x="559" y="898" on="0"/>
        <pt x="459" y="795" on="0"/>
      </contour>
      <contour>
        <pt x="361" y="-11" on="1"/>
        <pt x="191" y="-11" on="0"/>
        <pt x="27" y="178" on="0"/>
        <pt x="27" y="370" on="1"/>
        <pt x="27" y="560" on="0"/>
        <pt x="213" y="751" on="0"/>
        <pt x="400" y="751" on="1"/>
        <pt x="446" y="751" on="0"/>
        <pt x="543" y="739" on="0"/>
        <pt x="589" y="727" on="1"/>
        <pt x="589" y="566" on="1"/>
        <pt x="533" y="576" on="0"/>
        <pt x="450" y="585" on="0"/>
        <pt x="419" y="585" on="1"/>
        <pt x="365" y="585" on="0"/>
        <pt x="295" y="565" on="0"/>
        <pt x="254" y="515" on="0"/>
        <pt x="237" y="432" on="0"/>
        <pt x="237" y="369" on="1"/>
        <pt x="237" y="305" on="0"/>
        <pt x="250" y="222" on="0"/>
        <pt x="283" y="174" on="0"/>
        <pt x="339" y="156" on="0"/>
        <pt x="383" y="156" on="1"/>
        <pt x="391" y="156" on="0"/>
        <pt x="408" y="156" on="0"/>
        <pt x="417" y="157" on="1"/>
        <pt x="417" y="376" on="1"/>
        <pt x="602" y="376" on="1"/>
        <pt x="602" y="15" on="1"/>
        <pt x="527" y="2" on="0"/>
        <pt x="409" y="-11" on="0"/>
      </contour>
    </TTGlyph>
    <TTGlyph name="Gbreve.sc" xMin="27" yMin="-9" xMax="558" yMax="775">
      <contour>
        <pt x="336" y="-9" on="1"/>
        <pt x="179" y="-9" on="0"/>
        <pt x="27" y="139" on="0"/>
        <pt x="27" y="289" on="1"/>
        <pt x="27" y="436" on="0"/>
        <pt x="198" y="586" on="0"/>
        <pt x="370" y="586" on="1"/>
        <pt x="413" y="586" on="0"/>
        <pt x="505" y="577" on="0"/>
        <pt x="547" y="567" on="1"/>
        <pt x="547" y="417" on="1"/>
        <pt x="494" y="424" on="0"/>
        <pt x="416" y="432" on="0"/>
        <pt x="388" y="432" on="1"/>
        <pt x="339" y="432" on="0"/>
        <pt x="276" y="420" on="0"/>
        <pt x="239" y="388" on="0"/>
        <pt x="225" y="332" on="0"/>
        <pt x="225" y="288" on="1"/>
        <pt x="225" y="243" on="0"/>
        <pt x="236" y="187" on="0"/>
        <pt x="265" y="157" on="0"/>
        <pt x="315" y="147" on="0"/>
        <pt x="355" y="147" on="1"/>
        <pt x="384" y="147" on="1"/>
        <pt x="384" y="293" on="1"/>
        <pt x="558" y="293" on="1"/>
        <pt x="558" y="14" on="1"/>
        <pt x="422" y="-9" on="0"/>
      </contour>
      <contour>
        <pt x="327" y="618" on="1"/>
        <pt x="226" y="618" on="0"/>
        <pt x="135" y="705" on="0"/>
        <pt x="135" y="775" on="1"/>
        <pt x="259" y="775" on="1"/>
        <pt x="259" y="733" on="0"/>
        <pt x="286" y="700" on="0"/>
        <pt x="327" y="700" on="1"/>
        <pt x="367" y="700" on="0"/>
        <pt x="393" y="733" on="0"/>
        <pt x="393" y="775" on="1"/>
        <pt x="518" y="775" on="1"/>
        <pt x="518" y="704" on="0"/>
        <pt x="427" y="618" on="0"/>
      </contour>
    </TTGlyph>
    <TTGlyph name="Gcircumflex" xMin="27" yMin="-11" xMax="602" yMax="993">
      <contour>
        <pt x="361" y="-11" on="1"/>
        <pt x="191" y="-11" on="0"/>
        <pt x="27" y="178" on="0"/>
        <pt x="27" y="370" on="1"/>
        <pt x="27" y="560" on="0"/>
        <pt x="213" y="751" on="0"/>
        <pt x="400" y="751" on="1"/>
        <pt x="446" y="751" on="0"/>
        <pt x="543" y="739" on="0"/>
        <pt x="589" y="727" on="1"/>
        <pt x="589" y="566" on="1"/>
        <pt x="533" y="576" on="0"/>
        <pt x="450" y="585" on="0"/>
        <pt x="419" y="585" on="1"/>
        <pt x="365" y="585" on="0"/>
        <pt x="295" y="565" on="0"/>
        <pt x="254" y="515" on="0"/>
        <pt x="237" y="432" on="0"/>
        <pt x="237" y="369" on="1"/>
        <pt x="237" y="305" on="0"/>
        <pt x="250" y="222" on="0"/>
        <pt x="283" y="174" on="0"/>
        <pt x="339" y="156" on="0"/>
        <pt x="383" y="156" on="1"/>
        <pt x="391" y="156" on="0"/>
        <pt x="408" y="156" on="0"/>
        <pt x="417" y="157" on="1"/>
        <pt x="417" y="376" on="1"/>
        <pt x="602" y="376" on="1"/>
        <pt x="602" y="15" on="1"/>
        <pt x="527" y="2" on="0"/>
        <pt x="409" y="-11" on="0"/>
      </contour>
      <contour>
        <pt x="162" y="919" on="1"/>
        <pt x="349" y="993" on="1"/>
        <pt x="536" y="919" on="1"/>
        <pt x="536" y="789" on="1"/>
        <pt x="349" y="862" on="1"/>
        <pt x="162" y="789" on="1"/>
      </contour>
    </TTGlyph>
    <TTGlyph name="Gcircumflex.sc" xMin="27" yMin="-9" xMax="558" yMax="788">
      <contour>
        <pt x="336" y="-9" on="1"/>
        <pt x="179" y="-9" on="0"/>
        <pt x="27" y="139" on="0"/>
        <pt x="27" y="289" on="1"/>
        <pt x="27" y="436" on="0"/>
        <pt x="198" y="586" on="0"/>
        <pt x="370" y="586" on="1"/>
        <pt x="413" y="586" on="0"/>
        <pt x="505" y="577" on="0"/>
        <pt x="547" y="567" on="1"/>
        <pt x="547" y="417" on="1"/>
        <pt x="494" y="424" on="0"/>
        <pt x="416" y="432" on="0"/>
        <pt x="388" y="432" on="1"/>
        <pt x="339" y="432" on="0"/>
        <pt x="276" y="420" on="0"/>
        <pt x="239" y="388" on="0"/>
        <pt x="225" y="332" on="0"/>
        <pt x="225" y="288" on="1"/>
        <pt x="225" y="243" on="0"/>
        <pt x="236" y="187" on="0"/>
        <pt x="265" y="157" on="0"/>
        <pt x="315" y="147" on="0"/>
        <pt x="355" y="147" on="1"/>
        <pt x="384" y="147" on="1"/>
        <pt x="384" y="293" on="1"/>
        <pt x="558" y="293" on="1"/>
        <pt x="558" y="14" on="1"/>
        <pt x="422" y="-9" on="0"/>
      </contour>
      <contour>
        <pt x="148" y="730" on="1"/>
        <pt x="322" y="788" on="1"/>
        <pt x="496" y="730" on="1"/>
        <pt x="496" y="611" on="1"/>
        <pt x="322" y="669" on="1"/>
        <pt x="148" y="611" on="1"/>
      </contour>
    </TTGlyph>
    <TTGlyph name="Gcommaaccent" xMin="27" yMin="-220" xMax="602" yMax="751">
      <contour>
        <pt x="256" y="-70" on="1"/>
        <pt x="461" y="-70" on="1"/>
        <pt x="364" y="-220" on="1"/>
        <pt x="216" y="-220" on="1"/>
      </contour>
      <contour>
        <pt x="361" y="-11" on="1"/>
        <pt x="191" y="-11" on="0"/>
        <pt x="27" y="178" on="0"/>
        <pt x="27" y="370" on="1"/>
        <pt x="27" y="560" on="0"/>
        <pt x="213" y="751" on="0"/>
        <pt x="400" y="751" on="1"/>
        <pt x="446" y="751" on="0"/>
        <pt x="543" y="739" on="0"/>
        <pt x="589" y="727" on="1"/>
        <pt x="589" y="566" on="1"/>
        <pt x="533" y="576" on="0"/>
        <pt x="450" y="585" on="0"/>
        <pt x="419" y="585" on="1"/>
        <pt x="365" y="585" on="0"/>
        <pt x="295" y="565" on="0"/>
        <pt x="254" y="515" on="0"/>
        <pt x="237" y="432" on="0"/>
        <pt x="237" y="369" on="1"/>
        <pt x="237" y="305" on="0"/>
        <pt x="250" y="222" on="0"/>
        <pt x="283" y="174" on="0"/>
        <pt x="339" y="156" on="0"/>
        <pt x="383" y="156" on="1"/>
        <pt x="391" y="156" on="0"/>
        <pt x="408" y="156" on="0"/>
        <pt x="417" y="157" on="1"/>
        <pt x="417" y="376" on="1"/>
        <pt x="602" y="376" on="1"/>
        <pt x="602" y="15" on="1"/>
        <pt x="527" y="2" on="0"/>
        <pt x="409" y="-11" on="0"/>
      </contour>
    </TTGlyph>
    <TTGlyph name="Gcommaaccent.sc" xMin="27" yMin="-172" xMax="558" yMax="586">
      <contour>
        <pt x="336" y="-9" on="1"/>
        <pt x="179" y="-9" on="0"/>
        <pt x="27" y="139" on="0"/>
        <pt x="27" y="289" on="1"/>
        <pt x="27" y="436" on="0"/>
        <pt x="198" y="586" on="0"/>
        <pt x="370" y="586" on="1"/>
        <pt x="413" y="586" on="0"/>
        <pt x="505" y="577" on="0"/>
        <pt x="547" y="567" on="1"/>
        <pt x="547" y="417" on="1"/>
        <pt x="494" y="424" on="0"/>
        <pt x="416" y="432" on="0"/>
        <pt x="388" y="432" on="1"/>
        <pt x="339" y="432" on="0"/>
        <pt x="276" y="420" on="0"/>
        <pt x="239" y="388" on="0"/>
        <pt x="225" y="332" on="0"/>
        <pt x="225" y="288" on="1"/>
        <pt x="225" y="243" on="0"/>
        <pt x="236" y="187" on="0"/>
        <pt x="265" y="157" on="0"/>
        <pt x="315" y="147" on="0"/>
        <pt x="355" y="147" on="1"/>
        <pt x="384" y="147" on="1"/>
        <pt x="384" y="293" on="1"/>
        <pt x="558" y="293" on="1"/>
        <pt x="558" y="14" on="1"/>
        <pt x="422" y="-9" on="0"/>
      </contour>
      <contour>
        <pt x="234" y="-55" on="1"/>
        <pt x="427" y="-55" on="1"/>
        <pt x="338" y="-172" on="1"/>
        <pt x="198" y="-172" on="1"/>
      </contour>
    </TTGlyph>
    <TTGlyph name="Gdotaccent" xMin="27" yMin="-11" xMax="602" yMax="1005">
      <contour>
        <pt x="354" y="797" on="1"/>
        <pt x="297" y="797" on="0"/>
        <pt x="247" y="846" on="0"/>
        <pt x="247" y="902" on="1"/>
        <pt x="247" y="957" on="0"/>
        <pt x="297" y="1005" on="0"/>
        <pt x="354" y="1005" on="1"/>
        <pt x="411" y="1005" on="0"/>
        <pt x="462" y="956" on="0"/>
        <pt x="462" y="902" on="1"/>
        <pt x="462" y="847" on="0"/>
        <pt x="411" y="797" on="0"/>
      </contour>
      <contour>
        <pt x="361" y="-11" on="1"/>
        <pt x="191" y="-11" on="0"/>
        <pt x="27" y="178" on="0"/>
        <pt x="27" y="370" on="1"/>
        <pt x="27" y="560" on="0"/>
        <pt x="213" y="751" on="0"/>
        <pt x="400" y="751" on="1"/>
        <pt x="446" y="751" on="0"/>
        <pt x="543" y="739" on="0"/>
        <pt x="589" y="727" on="1"/>
        <pt x="589" y="566" on="1"/>
        <pt x="533" y="576" on="0"/>
        <pt x="450" y="585" on="0"/>
        <pt x="419" y="585" on="1"/>
        <pt x="365" y="585" on="0"/>
        <pt x="295" y="565" on="0"/>
        <pt x="254" y="515" on="0"/>
        <pt x="237" y="432" on="0"/>
        <pt x="237" y="369" on="1"/>
        <pt x="237" y="305" on="0"/>
        <pt x="250" y="222" on="0"/>
        <pt x="283" y="174" on="0"/>
        <pt x="339" y="156" on="0"/>
        <pt x="383" y="156" on="1"/>
        <pt x="391" y="156" on="0"/>
        <pt x="408" y="156" on="0"/>
        <pt x="417" y="157" on="1"/>
        <pt x="417" y="376" on="1"/>
        <pt x="602" y="376" on="1"/>
        <pt x="602" y="15" on="1"/>
        <pt x="527" y="2" on="0"/>
        <pt x="409" y="-11" on="0"/>
      </contour>
    </TTGlyph>
    <TTGlyph name="Gdotaccent.sc" xMin="27" yMin="-9" xMax="558" yMax="811">
      <contour>
        <pt x="336" y="-9" on="1"/>
        <pt x="179" y="-9" on="0"/>
        <pt x="27" y="139" on="0"/>
        <pt x="27" y="289" on="1"/>
        <pt x="27" y="436" on="0"/>
        <pt x="198" y="586" on="0"/>
        <pt x="370" y="586" on="1"/>
        <pt x="413" y="586" on="0"/>
        <pt x="505" y="577" on="0"/>
        <pt x="547" y="567" on="1"/>
        <pt x="547" y="417" on="1"/>
        <pt x="494" y="424" on="0"/>
        <pt x="416" y="432" on="0"/>
        <pt x="388" y="432" on="1"/>
        <pt x="339" y="432" on="0"/>
        <pt x="276" y="420" on="0"/>
        <pt x="239" y="388" on="0"/>
        <pt x="225" y="332" on="0"/>
        <pt x="225" y="288" on="1"/>
        <pt x="225" y="243" on="0"/>
        <pt x="236" y="187" on="0"/>
        <pt x="265" y="157" on="0"/>
        <pt x="315" y="147" on="0"/>
        <pt x="355" y="147" on="1"/>
        <pt x="384" y="147" on="1"/>
        <pt x="384" y="293" on="1"/>
        <pt x="558" y="293" on="1"/>
        <pt x="558" y="14" on="1"/>
        <pt x="422" y="-9" on="0"/>
      </contour>
      <contour>
        <pt x="328" y="620" on="1"/>
        <pt x="274" y="620" on="0"/>
        <pt x="228" y="665" on="0"/>
        <pt x="228" y="716" on="1"/>
        <pt x="228" y="767" on="0"/>
        <pt x="274" y="811" on="0"/>
        <pt x="328" y="811" on="1"/>
        <pt x="382" y="811" on="0"/>
        <pt x="428" y="766" on="0"/>
        <pt x="428" y="716" on="1"/>
        <pt x="428" y="665" on="0"/>
        <pt x="382" y="620" on="0"/>
      </contour>
    </TTGlyph>
    <TTGlyph name="H" xMin="54" yMin="0" xMax="688" yMax="740">
      <contour>
        <pt x="54" y="740" on="1"/>
        <pt x="259" y="740" on="1"/>
        <pt x="259" y="461" on="1"/>
        <pt x="483" y="461" on="1"/>
        <pt x="483" y="740" on="1"/>
        <pt x="688" y="740" on="1"/>
        <pt x="688" y="0" on="1"/>
        <pt x="483" y="0" on="1"/>
        <pt x="483" y="296" on="1"/>
        <pt x="259" y="296" on="1"/>
        <pt x="259" y="0" on="1"/>
        <pt x="54" y="0" on="1"/>
      </contour>
    </TTGlyph>
    <TTGlyph name="H.sc" xMin="52" yMin="0" xMax="640" yMax="577">
      <contour>
        <pt x="52" y="577" on="1"/>
        <pt x="245" y="577" on="1"/>
        <pt x="245" y="372" on="1"/>
        <pt x="446" y="372" on="1"/>
        <pt x="446" y="577" on="1"/>
        <pt x="640" y="577" on="1"/>
        <pt x="640" y="0" on="1"/>
        <pt x="446" y="0" on="1"/>
        <pt x="446" y="219" on="1"/>
        <pt x="245" y="219" on="1"/>
        <pt x="245" y="0" on="1"/>
        <pt x="52" y="0" on="1"/>
      </contour>
    </TTGlyph>
    <TTGlyph name="Hbar" xMin="0" yMin="0" xMax="771" yMax="740">
      <contour>
        <pt x="0" y="627" on="1"/>
        <pt x="63" y="627" on="1"/>
        <pt x="63" y="740" on="1"/>
        <pt x="268" y="740" on="1"/>
        <pt x="268" y="627" on="1"/>
        <pt x="492" y="627" on="1"/>
        <pt x="492" y="740" on="1"/>
        <pt x="697" y="740" on="1"/>
        <pt x="697" y="627" on="1"/>
        <pt x="771" y="627" on="1"/>
        <pt x="771" y="536" on="1"/>
        <pt x="697" y="536" on="1"/>
        <pt x="697" y="0" on="1"/>
        <pt x="492" y="0" on="1"/>
        <pt x="492" y="296" on="1"/>
        <pt x="268" y="296" on="1"/>
        <pt x="268" y="0" on="1"/>
        <pt x="63" y="0" on="1"/>
        <pt x="63" y="536" on="1"/>
        <pt x="0" y="536" on="1"/>
      </contour>
      <contour>
        <pt x="492" y="461" on="1"/>
        <pt x="492" y="536" on="1"/>
        <pt x="268" y="536" on="1"/>
        <pt x="268" y="461" on="1"/>
      </contour>
    </TTGlyph>
    <TTGlyph name="Hbar.sc" xMin="6" yMin="0" xMax="714" yMax="577">
      <contour>
        <pt x="6" y="499" on="1"/>
        <pt x="62" y="499" on="1"/>
        <pt x="62" y="577" on="1"/>
        <pt x="255" y="577" on="1"/>
        <pt x="255" y="499" on="1"/>
        <pt x="456" y="499" on="1"/>
        <pt x="456" y="577" on="1"/>
        <pt x="649" y="577" on="1"/>
        <pt x="649" y="499" on="1"/>
        <pt x="714" y="499" on="1"/>
        <pt x="714" y="415" on="1"/>
        <pt x="649" y="415" on="1"/>
        <pt x="649" y="0" on="1"/>
        <pt x="456" y="0" on="1"/>
        <pt x="456" y="214" on="1"/>
        <pt x="255" y="214" on="1"/>
        <pt x="255" y="0" on="1"/>
        <pt x="62" y="0" on="1"/>
        <pt x="62" y="415" on="1"/>
        <pt x="6" y="415" on="1"/>
      </contour>
      <contour>
        <pt x="456" y="367" on="1"/>
        <pt x="456" y="415" on="1"/>
        <pt x="255" y="415" on="1"/>
        <pt x="255" y="367" on="1"/>
      </contour>
    </TTGlyph>
    <TTGlyph name="Hcircumflex" xMin="54" yMin="0" xMax="688" yMax="993">
      <contour>
        <pt x="54" y="740" on="1"/>
        <pt x="259" y="740" on="1"/>
        <pt x="259" y="461" on="1"/>
        <pt x="483" y="461" on="1"/>
        <pt x="483" y="740" on="1"/>
        <pt x="688" y="740" on="1"/>
        <pt x="688" y="0" on="1"/>
        <pt x="483" y="0" on="1"/>
        <pt x="483" y="296" on="1"/>
        <pt x="259" y="296" on="1"/>
        <pt x="259" y="0" on="1"/>
        <pt x="54" y="0" on="1"/>
      </contour>
      <contour>
        <pt x="185" y="919" on="1"/>
        <pt x="372" y="993" on="1"/>
        <pt x="559" y="919" on="1"/>
        <pt x="559" y="789" on="1"/>
        <pt x="372" y="862" on="1"/>
        <pt x="185" y="789" on="1"/>
      </contour>
    </TTGlyph>
    <TTGlyph name="Hcircumflex.sc" xMin="52" yMin="0" xMax="640" yMax="788">
      <contour>
        <pt x="52" y="577" on="1"/>
        <pt x="245" y="577" on="1"/>
        <pt x="245" y="372" on="1"/>
        <pt x="446" y="372" on="1"/>
        <pt x="446" y="577" on="1"/>
        <pt x="640" y="577" on="1"/>
        <pt x="640" y="0" on="1"/>
        <pt x="446" y="0" on="1"/>
        <pt x="446" y="219" on="1"/>
        <pt x="245" y="219" on="1"/>
        <pt x="245" y="0" on="1"/>
        <pt x="52" y="0" on="1"/>
      </contour>
      <contour>
        <pt x="172" y="730" on="1"/>
        <pt x="346" y="788" on="1"/>
        <pt x="521" y="730" on="1"/>
        <pt x="521" y="611" on="1"/>
        <pt x="347" y="669" on="1"/>
        <pt x="172" y="611" on="1"/>
      </contour>
    </TTGlyph>
    <TTGlyph name="Hdotbelow" xMin="54" yMin="-220" xMax="688" yMax="740">
      <contour>
        <pt x="54" y="740" on="1"/>
        <pt x="259" y="740" on="1"/>
        <pt x="259" y="461" on="1"/>
        <pt x="483" y="461" on="1"/>
        <pt x="483" y="740" on="1"/>
        <pt x="688" y="740" on="1"/>
        <pt x="688" y="0" on="1"/>
        <pt x="483" y="0" on="1"/>
        <pt x="483" y="296" on="1"/>
        <pt x="259" y="296" on="1"/>
        <pt x="259" y="0" on="1"/>
        <pt x="54" y="0" on="1"/>
      </contour>
      <contour>
        <pt x="370" y="-220" on="1"/>
        <pt x="325" y="-220" on="0"/>
        <pt x="288" y="-183" on="0"/>
        <pt x="288" y="-141" on="1"/>
        <pt x="288" y="-99" on="0"/>
        <pt x="325" y="-62" on="0"/>
        <pt x="370" y="-62" on="1"/>
        <pt x="415" y="-62" on="0"/>
        <pt x="453" y="-99" on="0"/>
        <pt x="453" y="-141" on="1"/>
        <pt x="453" y="-183" on="0"/>
        <pt x="415" y="-220" on="0"/>
      </contour>
    </TTGlyph>
    <TTGlyph name="Hdotbelow.sc" xMin="52" yMin="-182" xMax="640" yMax="577">
      <contour>
        <pt x="52" y="577" on="1"/>
        <pt x="245" y="577" on="1"/>
        <pt x="245" y="372" on="1"/>
        <pt x="446" y="372" on="1"/>
        <pt x="446" y="577" on="1"/>
        <pt x="640" y="577" on="1"/>
        <pt x="640" y="0" on="1"/>
        <pt x="446" y="0" on="1"/>
        <pt x="446" y="219" on="1"/>
        <pt x="245" y="219" on="1"/>
        <pt x="245" y="0" on="1"/>
        <pt x="52" y="0" on="1"/>
      </contour>
      <contour>
        <pt x="344" y="-182" on="1"/>
        <pt x="302" y="-182" on="0"/>
        <pt x="268" y="-149" on="0"/>
        <pt x="268" y="-111" on="1"/>
        <pt x="268" y="-74" on="0"/>
        <pt x="302" y="-41" on="0"/>
        <pt x="344" y="-41" on="1"/>
        <pt x="386" y="-41" on="0"/>
        <pt x="421" y="-75" on="0"/>
        <pt x="421" y="-111" on="1"/>
        <pt x="421" y="-149" on="0"/>
        <pt x="386" y="-182" on="0"/>
      </contour>
    </TTGlyph>
    <TTGlyph name="I" xMin="54" yMin="0" xMax="259" yMax="740">
      <contour>
        <pt x="54" y="740" on="1"/>
        <pt x="259" y="740" on="1"/>
        <pt x="259" y="0" on="1"/>
        <pt x="54" y="0" on="1"/>
      </contour>
    </TTGlyph>
    <TTGlyph name="I.sc" xMin="52" yMin="0" xMax="245" yMax="577">
      <contour>
        <pt x="52" y="577" on="1"/>
        <pt x="245" y="577" on="1"/>
        <pt x="245" y="0" on="1"/>
        <pt x="52" y="0" on="1"/>
      </contour>
    </TTGlyph>
    <TTGlyph name="IJ" xMin="54" yMin="-216" xMax="575" yMax="740">
      <contour>
        <pt x="54" y="740" on="1"/>
        <pt x="259" y="740" on="1"/>
        <pt x="259" y="0" on="1"/>
        <pt x="54" y="0" on="1"/>
      </contour>
      <contour>
        <pt x="294" y="-159" on="1"/>
        <pt x="316" y="-109" on="0"/>
        <pt x="345" y="-24" on="0"/>
        <pt x="362" y="58" on="0"/>
        <pt x="369" y="146" on="0"/>
        <pt x="369" y="199" on="1"/>
        <pt x="369" y="740" on="1"/>
        <pt x="575" y="740" on="1"/>
        <pt x="575" y="181" on="1"/>
        <pt x="575" y="128" on="0"/>
        <pt x="559" y="35" on="0"/>
        <pt x="523" y="-59" on="0"/>
        <pt x="465" y="-158" on="0"/>
        <pt x="423" y="-216" on="1"/>
      </contour>
    </TTGlyph>
    <TTGlyph name="Iacute" xMin="54" yMin="0" xMax="347" yMax="993">
      <contour>
        <pt x="54" y="740" on="1"/>
        <pt x="259" y="740" on="1"/>
        <pt x="259" y="0" on="1"/>
        <pt x="54" y="0" on="1"/>
      </contour>
      <contour>
        <pt x="79" y="804" on="1"/>
        <pt x="143" y="993" on="1"/>
        <pt x="347" y="993" on="1"/>
        <pt x="222" y="794" on="1"/>
      </contour>
    </TTGlyph>
    <TTGlyph name="Iacute.sc" xMin="52" yMin="0" xMax="325" yMax="790">
      <contour>
        <pt x="52" y="577" on="1"/>
        <pt x="245" y="577" on="1"/>
        <pt x="245" y="0" on="1"/>
        <pt x="52" y="0" on="1"/>
      </contour>
      <contour>
        <pt x="76" y="630" on="1"/>
        <pt x="132" y="790" on="1"/>
        <pt x="325" y="790" on="1"/>
        <pt x="209" y="621" on="1"/>
      </contour>
    </TTGlyph>
    <TTGlyph name="Ibreve" xMin="-49" yMin="0" xMax="362" yMax="984">
      <contour>
        <pt x="54" y="740" on="1"/>
        <pt x="259" y="740" on="1"/>
        <pt x="259" y="0" on="1"/>
        <pt x="54" y="0" on="1"/>
      </contour>
      <contour>
        <pt x="156" y="795" on="1"/>
        <pt x="103" y="795" on="0"/>
        <pt x="25" y="822" on="0"/>
        <pt x="-25" y="871" on="0"/>
        <pt x="-49" y="941" on="0"/>
        <pt x="-49" y="984" on="1"/>
        <pt x="83" y="984" on="1"/>
        <pt x="83" y="930" on="0"/>
        <pt x="112" y="886" on="0"/>
        <pt x="156" y="886" on="1"/>
        <pt x="200" y="886" on="0"/>
        <pt x="229" y="930" on="0"/>
        <pt x="229" y="984" on="1"/>
        <pt x="362" y="984" on="1"/>
        <pt x="362" y="898" on="0"/>
        <pt x="262" y="795" on="0"/>
      </contour>
    </TTGlyph>
    <TTGlyph name="Ibreve.sc" xMin="-43" yMin="0" xMax="340" yMax="775">
      <contour>
        <pt x="52" y="577" on="1"/>
        <pt x="245" y="577" on="1"/>
        <pt x="245" y="0" on="1"/>
        <pt x="52" y="0" on="1"/>
      </contour>
      <contour>
        <pt x="149" y="618" on="1"/>
        <pt x="47" y="618" on="0"/>
        <pt x="-43" y="705" on="0"/>
        <pt x="-43" y="775" on="1"/>
        <pt x="81" y="775" on="1"/>
        <pt x="81" y="733" on="0"/>
        <pt x="107" y="700" on="0"/>
        <pt x="149" y="700" on="1"/>
        <pt x="189" y="700" on="0"/>
        <pt x="215" y="733" on="0"/>
        <pt x="215" y="775" on="1"/>
        <pt x="340" y="775" on="1"/>
        <pt x="340" y="704" on="0"/>
        <pt x="249" y="618" on="0"/>
      </contour>
    </TTGlyph>
    <TTGlyph name="Icircumflex" xMin="-29" yMin="0" xMax="345" yMax="993">
      <contour>
        <pt x="54" y="740" on="1"/>
        <pt x="259" y="740" on="1"/>
        <pt x="259" y="0" on="1"/>
        <pt x="54" y="0" on="1"/>
      </contour>
      <contour>
        <pt x="-29" y="919" on="1"/>
        <pt x="158" y="993" on="1"/>
        <pt x="345" y="919" on="1"/>
        <pt x="345" y="789" on="1"/>
        <pt x="158" y="862" on="1"/>
        <pt x="-29" y="789" on="1"/>
      </contour>
    </TTGlyph>
    <TTGlyph name="Icircumflex.sc" xMin="-25" yMin="0" xMax="324" yMax="788">
      <contour>
        <pt x="52" y="577" on="1"/>
        <pt x="245" y="577" on="1"/>
        <pt x="245" y="0" on="1"/>
        <pt x="52" y="0" on="1"/>
      </contour>
      <contour>
        <pt x="-25" y="730" on="1"/>
        <pt x="150" y="788" on="1"/>
        <pt x="324" y="730" on="1"/>
        <pt x="324" y="611" on="1"/>
        <pt x="150" y="669" on="1"/>
        <pt x="-25" y="611" on="1"/>
      </contour>
    </TTGlyph>
    <TTGlyph name="Idblgrave" xMin="-118" yMin="0" xMax="332" yMax="993">
      <contour>
        <pt x="54" y="740" on="1"/>
        <pt x="259" y="740" on="1"/>
        <pt x="259" y="0" on="1"/>
        <pt x="54" y="0" on="1"/>
      </contour>
      <contour>
        <pt x="8" y="794" on="1"/>
        <pt x="-118" y="993" on="1"/>
        <pt x="57" y="993" on="1"/>
        <pt x="121" y="804" on="1"/>
      </contour>
      <contour>
        <pt x="220" y="794" on="1"/>
        <pt x="93" y="993" on="1"/>
        <pt x="269" y="993" on="1"/>
        <pt x="332" y="804" on="1"/>
      </contour>
    </TTGlyph>
    <TTGlyph name="Idblgrave.sc" xMin="-107" yMin="0" xMax="314" yMax="791">
      <contour>
        <pt x="52" y="577" on="1"/>
        <pt x="245" y="577" on="1"/>
        <pt x="245" y="0" on="1"/>
        <pt x="52" y="0" on="1"/>
      </contour>
      <contour>
        <pt x="8" y="622" on="1"/>
        <pt x="-107" y="791" on="1"/>
        <pt x="61" y="791" on="1"/>
        <pt x="116" y="629" on="1"/>
      </contour>
      <contour>
        <pt x="205" y="622" on="1"/>
        <pt x="90" y="791" on="1"/>
        <pt x="257" y="791" on="1"/>
        <pt x="314" y="629" on="1"/>
      </contour>
    </TTGlyph>
    <TTGlyph name="Idieresis" xMin="-89" yMin="0" xMax="404" yMax="1005">
      <contour>
        <pt x="54" y="740" on="1"/>
        <pt x="259" y="740" on="1"/>
        <pt x="259" y="0" on="1"/>
        <pt x="54" y="0" on="1"/>
      </contour>
      <contour>
        <pt x="18" y="797" on="1"/>
        <pt x="-39" y="797" on="0"/>
        <pt x="-89" y="846" on="0"/>
        <pt x="-89" y="902" on="1"/>
        <pt x="-89" y="957" on="0"/>
        <pt x="-39" y="1005" on="0"/>
        <pt x="18" y="1005" on="1"/>
        <pt x="75" y="1005" on="0"/>
        <pt x="126" y="956" on="0"/>
        <pt x="126" y="902" on="1"/>
        <pt x="126" y="847" on="0"/>
        <pt x="75" y="797" on="0"/>
      </contour>
      <contour>
        <pt x="297" y="797" on="1"/>
        <pt x="239" y="797" on="0"/>
        <pt x="190" y="846" on="0"/>
        <pt x="190" y="902" on="1"/>
        <pt x="190" y="957" on="0"/>
        <pt x="239" y="1005" on="0"/>
        <pt x="297" y="1005" on="1"/>
        <pt x="354" y="1005" on="0"/>
        <pt x="404" y="956" on="0"/>
        <pt x="404" y="902" on="1"/>
        <pt x="404" y="847" on="0"/>
        <pt x="354" y="797" on="0"/>
      </contour>
    </TTGlyph>
    <TTGlyph name="Idieresis.sc" xMin="-79" yMin="0" xMax="379" yMax="809">
      <contour>
        <pt x="52" y="577" on="1"/>
        <pt x="245" y="577" on="1"/>
        <pt x="245" y="0" on="1"/>
        <pt x="52" y="0" on="1"/>
      </contour>
      <contour>
        <pt x="21" y="617" on="1"/>
        <pt x="-33" y="617" on="0"/>
        <pt x="-79" y="663" on="0"/>
        <pt x="-79" y="714" on="1"/>
        <pt x="-79" y="764" on="0"/>
        <pt x="-33" y="809" on="0"/>
        <pt x="21" y="809" on="1"/>
        <pt x="75" y="809" on="0"/>
        <pt x="121" y="764" on="0"/>
        <pt x="121" y="714" on="1"/>
        <pt x="121" y="663" on="0"/>
        <pt x="75" y="617" on="0"/>
      </contour>
      <contour>
        <pt x="278" y="617" on="1"/>
        <pt x="224" y="617" on="0"/>
        <pt x="178" y="663" on="0"/>
        <pt x="178" y="714" on="1"/>
        <pt x="178" y="764" on="0"/>
        <pt x="224" y="809" on="0"/>
        <pt x="278" y="809" on="1"/>
        <pt x="332" y="809" on="0"/>
        <pt x="379" y="764" on="0"/>
        <pt x="379" y="714" on="1"/>
        <pt x="379" y="663" on="0"/>
        <pt x="332" y="617" on="0"/>
      </contour>
    </TTGlyph>
    <TTGlyph name="Idotaccent" xMin="50" yMin="0" xMax="265" yMax="1005">
      <contour>
        <pt x="54" y="740" on="1"/>
        <pt x="259" y="740" on="1"/>
        <pt x="259" y="0" on="1"/>
        <pt x="54" y="0" on="1"/>
      </contour>
      <contour>
        <pt x="157" y="797" on="1"/>
        <pt x="100" y="797" on="0"/>
        <pt x="50" y="846" on="0"/>
        <pt x="50" y="902" on="1"/>
        <pt x="50" y="957" on="0"/>
        <pt x="100" y="1005" on="0"/>
        <pt x="157" y="1005" on="1"/>
        <pt x="214" y="1005" on="0"/>
        <pt x="265" y="956" on="0"/>
        <pt x="265" y="902" on="1"/>
        <pt x="265" y="847" on="0"/>
        <pt x="214" y="797" on="0"/>
      </contour>
    </TTGlyph>
    <TTGlyph name="Idotaccent.sc" xMin="49" yMin="0" xMax="250" yMax="811">
      <contour>
        <pt x="52" y="577" on="1"/>
        <pt x="245" y="577" on="1"/>
        <pt x="245" y="0" on="1"/>
        <pt x="52" y="0" on="1"/>
      </contour>
      <contour>
        <pt x="149" y="620" on="1"/>
        <pt x="95" y="620" on="0"/>
        <pt x="49" y="665" on="0"/>
        <pt x="49" y="716" on="1"/>
        <pt x="49" y="767" on="0"/>
        <pt x="95" y="811" on="0"/>
        <pt x="149" y="811" on="1"/>
        <pt x="203" y="811" on="0"/>
        <pt x="250" y="766" on="0"/>
        <pt x="250" y="716" on="1"/>
        <pt x="250" y="665" on="0"/>
        <pt x="203" y="620" on="0"/>
      </contour>
    </TTGlyph>
    <TTGlyph name="Idotbelow" xMin="54" yMin="-220" xMax="259" yMax="740">
      <contour>
        <pt x="54" y="740" on="1"/>
        <pt x="259" y="740" on="1"/>
        <pt x="259" y="0" on="1"/>
        <pt x="54" y="0" on="1"/>
      </contour>
      <contour>
        <pt x="157" y="-220" on="1"/>
        <pt x="112" y="-220" on="0"/>
        <pt x="75" y="-183" on="0"/>
        <pt x="75" y="-141" on="1"/>
        <pt x="75" y="-99" on="0"/>
        <pt x="112" y="-62" on="0"/>
        <pt x="157" y="-62" on="1"/>
        <pt x="202" y="-62" on="0"/>
        <pt x="240" y="-99" on="0"/>
        <pt x="240" y="-141" on="1"/>
        <pt x="240" y="-183" on="0"/>
        <pt x="202" y="-220" on="0"/>
      </contour>
    </TTGlyph>
    <TTGlyph name="Idotbelow.sc" xMin="52" yMin="-182" xMax="245" yMax="577">
      <contour>
        <pt x="52" y="577" on="1"/>
        <pt x="245" y="577" on="1"/>
        <pt x="245" y="0" on="1"/>
        <pt x="52" y="0" on="1"/>
      </contour>
      <contour>
        <pt x="149" y="-182" on="1"/>
        <pt x="107" y="-182" on="0"/>
        <pt x="73" y="-149" on="0"/>
        <pt x="73" y="-111" on="1"/>
        <pt x="73" y="-74" on="0"/>
        <pt x="107" y="-41" on="0"/>
        <pt x="149" y="-41" on="1"/>
        <pt x="191" y="-41" on="0"/>
        <pt x="226" y="-75" on="0"/>
        <pt x="226" y="-111" on="1"/>
        <pt x="226" y="-149" on="0"/>
        <pt x="191" y="-182" on="0"/>
      </contour>
    </TTGlyph>
    <TTGlyph name="Igrave" xMin="-37" yMin="0" xMax="259" yMax="993">
      <contour>
        <pt x="54" y="740" on="1"/>
        <pt x="259" y="740" on="1"/>
        <pt x="259" y="0" on="1"/>
        <pt x="54" y="0" on="1"/>
      </contour>
      <contour>
        <pt x="88" y="794" on="1"/>
        <pt x="-37" y="993" on="1"/>
        <pt x="167" y="993" on="1"/>
        <pt x="231" y="804" on="1"/>
      </contour>
    </TTGlyph>
    <TTGlyph name="Igrave.sc" xMin="-30" yMin="0" xMax="245" yMax="790">
      <contour>
        <pt x="52" y="577" on="1"/>
        <pt x="245" y="577" on="1"/>
        <pt x="245" y="0" on="1"/>
        <pt x="52" y="0" on="1"/>
      </contour>
      <contour>
        <pt x="86" y="621" on="1"/>
        <pt x="-30" y="790" on="1"/>
        <pt x="163" y="790" on="1"/>
        <pt x="219" y="628" on="1"/>
      </contour>
    </TTGlyph>
    <TTGlyph name="Iinvertedbreve" xMin="-47" yMin="0" xMax="364" yMax="994">
      <contour>
        <pt x="54" y="740" on="1"/>
        <pt x="259" y="740" on="1"/>
        <pt x="259" y="0" on="1"/>
        <pt x="54" y="0" on="1"/>
      </contour>
      <contour>
        <pt x="231" y="805" on="1"/>
        <pt x="231" y="859" on="0"/>
        <pt x="202" y="903" on="0"/>
        <pt x="158" y="903" on="1"/>
        <pt x="114" y="903" on="0"/>
        <pt x="85" y="858" on="0"/>
        <pt x="85" y="805" on="1"/>
        <pt x="-47" y="805" on="1"/>
        <pt x="-47" y="848" on="0"/>
        <pt x="-23" y="917" on="0"/>
        <pt x="27" y="967" on="0"/>
        <pt x="105" y="994" on="0"/>
        <pt x="158" y="994" on="1"/>
        <pt x="264" y="994" on="0"/>
        <pt x="364" y="892" on="0"/>
        <pt x="364" y="805" on="1"/>
      </contour>
    </TTGlyph>
    <TTGlyph name="Iinvertedbreve.sc" xMin="-41" yMin="0" xMax="342" yMax="784">
      <contour>
        <pt x="52" y="577" on="1"/>
        <pt x="245" y="577" on="1"/>
        <pt x="245" y="0" on="1"/>
        <pt x="52" y="0" on="1"/>
      </contour>
      <contour>
        <pt x="217" y="627" on="1"/>
        <pt x="217" y="669" on="0"/>
        <pt x="192" y="701" on="0"/>
        <pt x="151" y="701" on="1"/>
        <pt x="109" y="701" on="0"/>
        <pt x="83" y="668" on="0"/>
        <pt x="83" y="627" on="1"/>
        <pt x="-41" y="627" on="1"/>
        <pt x="-41" y="697" on="0"/>
        <pt x="49" y="784" on="0"/>
        <pt x="151" y="784" on="1"/>
        <pt x="251" y="784" on="0"/>
        <pt x="342" y="698" on="0"/>
        <pt x="342" y="627" on="1"/>
      </contour>
    </TTGlyph>
    <TTGlyph name="Imacron" xMin="-29" yMin="0" xMax="345" yMax="968">
      <contour>
        <pt x="54" y="740" on="1"/>
        <pt x="259" y="740" on="1"/>
        <pt x="259" y="0" on="1"/>
        <pt x="54" y="0" on="1"/>
      </contour>
      <contour>
        <pt x="-29" y="968" on="1"/>
        <pt x="345" y="968" on="1"/>
        <pt x="345" y="838" on="1"/>
        <pt x="-29" y="838" on="1"/>
      </contour>
    </TTGlyph>
    <TTGlyph name="Imacron.sc" xMin="-24" yMin="0" xMax="325" yMax="774">
      <contour>
        <pt x="52" y="577" on="1"/>
        <pt x="245" y="577" on="1"/>
        <pt x="245" y="0" on="1"/>
        <pt x="52" y="0" on="1"/>
      </contour>
      <contour>
        <pt x="-24" y="774" on="1"/>
        <pt x="325" y="774" on="1"/>
        <pt x="325" y="653" on="1"/>
        <pt x="-24" y="653" on="1"/>
      </contour>
    </TTGlyph>
    <TTGlyph name="Iogonek" xMin="20" yMin="-220" xMax="260" yMax="740">
      <contour>
        <pt x="54" y="740" on="1"/>
        <pt x="259" y="740" on="1"/>
        <pt x="259" y="-5" on="1"/>
        <pt x="226" y="-18" on="0"/>
        <pt x="183" y="-43" on="0"/>
        <pt x="157" y="-66" on="0"/>
        <pt x="146" y="-86" on="0"/>
        <pt x="146" y="-93" on="1"/>
        <pt x="146" y="-103" on="0"/>
        <pt x="164" y="-111" on="0"/>
        <pt x="179" y="-111" on="1"/>
        <pt x="196" y="-111" on="0"/>
        <pt x="242" y="-102" on="0"/>
        <pt x="260" y="-97" on="1"/>
        <pt x="260" y="-208" on="1"/>
        <pt x="234" y="-213" on="0"/>
        <pt x="190" y="-220" on="0"/>
        <pt x="164" y="-220" on="1"/>
        <pt x="20" y="-220" on="0"/>
        <pt x="20" y="-118" on="1"/>
        <pt x="20" y="-86" on="0"/>
        <pt x="55" y="-29" on="0"/>
        <pt x="94" y="0" on="1"/>
        <pt x="54" y="0" on="1"/>
      </contour>
    </TTGlyph>
    <TTGlyph name="Iogonek.sc" xMin="24" yMin="-172" xMax="246" yMax="577">
      <contour>
        <pt x="53" y="577" on="1"/>
        <pt x="246" y="577" on="1"/>
        <pt x="246" y="-1" on="1"/>
        <pt x="213" y="-13" on="0"/>
        <pt x="173" y="-33" on="0"/>
        <pt x="150" y="-49" on="0"/>
        <pt x="142" y="-60" on="0"/>
        <pt x="142" y="-63" on="1"/>
        <pt x="142" y="-71" on="0"/>
        <pt x="170" y="-71" on="1"/>
        <pt x="186" y="-71" on="0"/>
        <pt x="232" y="-64" on="0"/>
        <pt x="246" y="-61" on="1"/>
        <pt x="246" y="-162" on="1"/>
        <pt x="202" y="-172" on="0"/>
        <pt x="158" y="-172" on="1"/>
        <pt x="92" y="-172" on="0"/>
        <pt x="24" y="-129" on="0"/>
        <pt x="24" y="-88" on="1"/>
        <pt x="24" y="-62" on="0"/>
        <pt x="54" y="-21" on="0"/>
        <pt x="86" y="0" on="1"/>
        <pt x="53" y="0" on="1"/>
      </contour>
    </TTGlyph>
    <TTGlyph name="Itilde" xMin="-53" yMin="0" xMax="389" yMax="977">
      <contour>
        <pt x="54" y="740" on="1"/>
        <pt x="259" y="740" on="1"/>
        <pt x="259" y="0" on="1"/>
        <pt x="54" y="0" on="1"/>
      </contour>
      <contour>
        <pt x="-53" y="840" on="1"/>
        <pt x="-19" y="909" on="0"/>
        <pt x="65" y="977" on="0"/>
        <pt x="106" y="977" on="1"/>
        <pt x="128" y="977" on="0"/>
        <pt x="171" y="965" on="0"/>
        <pt x="214" y="951" on="0"/>
        <pt x="258" y="939" on="0"/>
        <pt x="280" y="939" on="1"/>
        <pt x="301" y="939" on="0"/>
        <pt x="340" y="954" on="0"/>
        <pt x="366" y="977" on="1"/>
        <pt x="389" y="951" on="1"/>
        <pt x="355" y="882" on="0"/>
        <pt x="271" y="815" on="0"/>
        <pt x="231" y="815" on="1"/>
        <pt x="209" y="815" on="0"/>
        <pt x="165" y="827" on="0"/>
        <pt x="121" y="840" on="0"/>
        <pt x="78" y="852" on="0"/>
        <pt x="56" y="852" on="1"/>
        <pt x="34" y="852" on="0"/>
        <pt x="-5" y="837" on="0"/>
        <pt x="-30" y="815" on="1"/>
      </contour>
    </TTGlyph>
    <TTGlyph name="Itilde.sc" xMin="-47" yMin="0" xMax="364" yMax="779">
      <contour>
        <pt x="52" y="577" on="1"/>
        <pt x="245" y="577" on="1"/>
        <pt x="245" y="0" on="1"/>
        <pt x="52" y="0" on="1"/>
      </contour>
      <contour>
        <pt x="-47" y="654" on="1"/>
        <pt x="-16" y="717" on="0"/>
        <pt x="62" y="778" on="0"/>
        <pt x="100" y="778" on="1"/>
        <pt x="121" y="778" on="0"/>
        <pt x="161" y="769" on="0"/>
        <pt x="202" y="759" on="0"/>
        <pt x="242" y="750" on="0"/>
        <pt x="263" y="750" on="1"/>
        <pt x="283" y="750" on="0"/>
        <pt x="319" y="761" on="0"/>
        <pt x="343" y="779" on="1"/>
        <pt x="364" y="757" on="1"/>
        <pt x="332" y="694" on="0"/>
        <pt x="254" y="634" on="0"/>
        <pt x="217" y="634" on="1"/>
        <pt x="196" y="634" on="0"/>
        <pt x="155" y="643" on="0"/>
        <pt x="115" y="653" on="0"/>
        <pt x="74" y="662" on="0"/>
        <pt x="53" y="662" on="1"/>
        <pt x="33" y="662" on="0"/>
        <pt x="-3" y="652" on="0"/>
        <pt x="-27" y="634" on="1"/>
      </contour>
    </TTGlyph>
    <TTGlyph name="J" xMin="-19" yMin="-216" xMax="262" yMax="740">
      <contour>
        <pt x="-19" y="-159" on="1"/>
        <pt x="3" y="-109" on="0"/>
        <pt x="32" y="-24" on="0"/>
        <pt x="49" y="58" on="0"/>
        <pt x="56" y="146" on="0"/>
        <pt x="56" y="199" on="1"/>
        <pt x="56" y="740" on="1"/>
        <pt x="262" y="740" on="1"/>
        <pt x="262" y="181" on="1"/>
        <pt x="262" y="128" on="0"/>
        <pt x="246" y="35" on="0"/>
        <pt x="210" y="-59" on="0"/>
        <pt x="152" y="-158" on="0"/>
        <pt x="110" y="-216" on="1"/>
      </contour>
    </TTGlyph>
    <TTGlyph name="J.sc" xMin="-13" yMin="-176" xMax="248" yMax="577">
      <contour>
        <pt x="-13" y="-124" on="1"/>
        <pt x="6" y="-85" on="0"/>
        <pt x="32" y="-19" on="0"/>
        <pt x="48" y="47" on="0"/>
        <pt x="54" y="117" on="0"/>
        <pt x="54" y="159" on="1"/>
        <pt x="54" y="577" on="1"/>
        <pt x="248" y="577" on="1"/>
        <pt x="248" y="142" on="1"/>
        <pt x="248" y="100" on="0"/>
        <pt x="234" y="25" on="0"/>
        <pt x="201" y="-50" on="0"/>
        <pt x="148" y="-129" on="0"/>
        <pt x="109" y="-176" on="1"/>
      </contour>
    </TTGlyph>
    <TTGlyph name="Jcircumflex" xMin="-25" yMin="-216" xMax="349" yMax="993">
      <contour>
        <pt x="-19" y="-159" on="1"/>
        <pt x="3" y="-109" on="0"/>
        <pt x="32" y="-24" on="0"/>
        <pt x="49" y="58" on="0"/>
        <pt x="56" y="146" on="0"/>
        <pt x="56" y="199" on="1"/>
        <pt x="56" y="740" on="1"/>
        <pt x="262" y="740" on="1"/>
        <pt x="262" y="181" on="1"/>
        <pt x="262" y="128" on="0"/>
        <pt x="246" y="35" on="0"/>
        <pt x="210" y="-59" on="0"/>
        <pt x="152" y="-158" on="0"/>
        <pt x="110" y="-216" on="1"/>
      </contour>
      <contour>
        <pt x="-25" y="919" on="1"/>
        <pt x="162" y="993" on="1"/>
        <pt x="349" y="919" on="1"/>
        <pt x="349" y="789" on="1"/>
        <pt x="162" y="862" on="1"/>
        <pt x="-25" y="789" on="1"/>
      </contour>
    </TTGlyph>
    <TTGlyph name="Jcircumflex.sc" xMin="-20" yMin="-176" xMax="328" yMax="788">
      <contour>
        <pt x="-13" y="-124" on="1"/>
        <pt x="6" y="-85" on="0"/>
        <pt x="32" y="-19" on="0"/>
        <pt x="47" y="47" on="0"/>
        <pt x="54" y="117" on="0"/>
        <pt x="54" y="159" on="1"/>
        <pt x="54" y="577" on="1"/>
        <pt x="248" y="577" on="1"/>
        <pt x="248" y="142" on="1"/>
        <pt x="248" y="100" on="0"/>
        <pt x="234" y="25" on="0"/>
        <pt x="201" y="-50" on="0"/>
        <pt x="148" y="-129" on="0"/>
        <pt x="109" y="-176" on="1"/>
      </contour>
      <contour>
        <pt x="-20" y="730" on="1"/>
        <pt x="154" y="788" on="1"/>
        <pt x="328" y="730" on="1"/>
        <pt x="328" y="611" on="1"/>
        <pt x="154" y="669" on="1"/>
        <pt x="-20" y="611" on="1"/>
      </contour>
    </TTGlyph>
    <TTGlyph name="K" xMin="54" yMin="0" xMax="695" yMax="740">
      <contour>
        <pt x="54" y="740" on="1"/>
        <pt x="259" y="740" on="1"/>
        <pt x="259" y="459" on="1"/>
        <pt x="332" y="459" on="1"/>
        <pt x="449" y="740" on="1"/>
        <pt x="675" y="740" on="1"/>
        <pt x="522" y="411" on="1"/>
        <pt x="460" y="384" on="1"/>
        <pt x="460" y="376" on="1"/>
        <pt x="523" y="348" on="1"/>
        <pt x="695" y="0" on="1"/>
        <pt x="468" y="0" on="1"/>
        <pt x="331" y="293" on="1"/>
        <pt x="259" y="293" on="1"/>
        <pt x="259" y="0" on="1"/>
        <pt x="54" y="0" on="1"/>
      </contour>
    </TTGlyph>
    <TTGlyph name="K.sc" xMin="52" yMin="0" xMax="644" yMax="577">
      <contour>
        <pt x="52" y="577" on="1"/>
        <pt x="245" y="577" on="1"/>
        <pt x="245" y="370" on="1"/>
        <pt x="311" y="370" on="1"/>
        <pt x="414" y="577" on="1"/>
        <pt x="626" y="577" on="1"/>
        <pt x="488" y="323" on="1"/>
        <pt x="424" y="301" on="1"/>
        <pt x="424" y="294" on="1"/>
        <pt x="490" y="271" on="1"/>
        <pt x="644" y="0" on="1"/>
        <pt x="430" y="0" on="1"/>
        <pt x="311" y="216" on="1"/>
        <pt x="245" y="216" on="1"/>
        <pt x="245" y="0" on="1"/>
        <pt x="52" y="0" on="1"/>
      </contour>
    </TTGlyph>
    <TTGlyph name="Kcommaaccent" xMin="54" yMin="-220" xMax="695" yMax="740">
      <contour>
        <pt x="241" y="-70" on="1"/>
        <pt x="446" y="-70" on="1"/>
        <pt x="349" y="-220" on="1"/>
        <pt x="201" y="-220" on="1"/>
      </contour>
      <contour>
        <pt x="54" y="740" on="1"/>
        <pt x="259" y="740" on="1"/>
        <pt x="259" y="459" on="1"/>
        <pt x="332" y="459" on="1"/>
        <pt x="449" y="740" on="1"/>
        <pt x="675" y="740" on="1"/>
        <pt x="522" y="411" on="1"/>
        <pt x="460" y="384" on="1"/>
        <pt x="460" y="376" on="1"/>
        <pt x="523" y="348" on="1"/>
        <pt x="695" y="0" on="1"/>
        <pt x="468" y="0" on="1"/>
        <pt x="331" y="293" on="1"/>
        <pt x="259" y="293" on="1"/>
        <pt x="259" y="0" on="1"/>
        <pt x="54" y="0" on="1"/>
      </contour>
    </TTGlyph>
    <TTGlyph name="Kcommaaccent.sc" xMin="52" yMin="-172" xMax="644" yMax="577">
      <contour>
        <pt x="52" y="577" on="1"/>
        <pt x="245" y="577" on="1"/>
        <pt x="245" y="370" on="1"/>
        <pt x="311" y="370" on="1"/>
        <pt x="414" y="577" on="1"/>
        <pt x="626" y="577" on="1"/>
        <pt x="488" y="323" on="1"/>
        <pt x="424" y="301" on="1"/>
        <pt x="424" y="294" on="1"/>
        <pt x="490" y="271" on="1"/>
        <pt x="644" y="0" on="1"/>
        <pt x="430" y="0" on="1"/>
        <pt x="311" y="216" on="1"/>
        <pt x="245" y="216" on="1"/>
        <pt x="245" y="0" on="1"/>
        <pt x="52" y="0" on="1"/>
      </contour>
      <contour>
        <pt x="232" y="-55" on="1"/>
        <pt x="426" y="-55" on="1"/>
        <pt x="336" y="-172" on="1"/>
        <pt x="197" y="-172" on="1"/>
      </contour>
    </TTGlyph>
    <TTGlyph name="L" xMin="54" yMin="0" xMax="509" yMax="740">
      <contour>
        <pt x="54" y="740" on="1"/>
        <pt x="259" y="740" on="1"/>
        <pt x="259" y="165" on="1"/>
        <pt x="509" y="165" on="1"/>
        <pt x="509" y="0" on="1"/>
        <pt x="54" y="0" on="1"/>
      </contour>
    </TTGlyph>
    <TTGlyph name="L.sc" xMin="52" yMin="0" xMax="475" yMax="577">
      <contour>
        <pt x="52" y="577" on="1"/>
        <pt x="245" y="577" on="1"/>
        <pt x="245" y="154" on="1"/>
        <pt x="475" y="154" on="1"/>
        <pt x="475" y="0" on="1"/>
        <pt x="52" y="0" on="1"/>
      </contour>
    </TTGlyph>
    <TTGlyph name="Lacute" xMin="54" yMin="0" xMax="509" yMax="993">
      <contour>
        <pt x="84" y="804" on="1"/>
        <pt x="148" y="993" on="1"/>
        <pt x="352" y="993" on="1"/>
        <pt x="227" y="794" on="1"/>
      </contour>
      <contour>
        <pt x="54" y="740" on="1"/>
        <pt x="259" y="740" on="1"/>
        <pt x="259" y="165" on="1"/>
        <pt x="509" y="165" on="1"/>
        <pt x="509" y="0" on="1"/>
        <pt x="54" y="0" on="1"/>
      </contour>
    </TTGlyph>
    <TTGlyph name="Lacute.sc" xMin="52" yMin="0" xMax="475" yMax="790">
      <contour>
        <pt x="52" y="577" on="1"/>
        <pt x="245" y="577" on="1"/>
        <pt x="245" y="154" on="1"/>
        <pt x="475" y="154" on="1"/>
        <pt x="475" y="0" on="1"/>
        <pt x="52" y="0" on="1"/>
      </contour>
      <contour>
        <pt x="80" y="630" on="1"/>
        <pt x="137" y="790" on="1"/>
        <pt x="329" y="790" on="1"/>
        <pt x="214" y="621" on="1"/>
      </contour>
    </TTGlyph>
    <TTGlyph name="Lcaron" xMin="54" yMin="0" xMax="562" yMax="808">
      <contour>
        <pt x="406" y="808" on="1"/>
        <pt x="562" y="808" on="1"/>
        <pt x="513" y="580" on="1"/>
        <pt x="406" y="580" on="1"/>
      </contour>
      <contour>
        <pt x="54" y="740" on="1"/>
        <pt x="259" y="740" on="1"/>
        <pt x="259" y="165" on="1"/>
        <pt x="509" y="165" on="1"/>
        <pt x="509" y="0" on="1"/>
        <pt x="54" y="0" on="1"/>
      </contour>
    </TTGlyph>
    <TTGlyph name="Lcaron.sc" xMin="53" yMin="0" xMax="520" yMax="642">
      <contour>
        <pt x="53" y="577" on="1"/>
        <pt x="246" y="577" on="1"/>
        <pt x="246" y="154" on="1"/>
        <pt x="476" y="154" on="1"/>
        <pt x="476" y="0" on="1"/>
        <pt x="53" y="0" on="1"/>
      </contour>
      <contour>
        <pt x="374" y="642" on="1"/>
        <pt x="520" y="642" on="1"/>
        <pt x="475" y="465" on="1"/>
        <pt x="374" y="465" on="1"/>
      </contour>
    </TTGlyph>
    <TTGlyph name="Lcommaaccent" xMin="54" yMin="-220" xMax="509" yMax="740">
      <contour>
        <pt x="175" y="-70" on="1"/>
        <pt x="380" y="-70" on="1"/>
        <pt x="283" y="-220" on="1"/>
        <pt x="135" y="-220" on="1"/>
      </contour>
      <contour>
        <pt x="54" y="740" on="1"/>
        <pt x="259" y="740" on="1"/>
        <pt x="259" y="165" on="1"/>
        <pt x="509" y="165" on="1"/>
        <pt x="509" y="0" on="1"/>
        <pt x="54" y="0" on="1"/>
      </contour>
    </TTGlyph>
    <TTGlyph name="Lcommaaccent.sc" xMin="52" yMin="-172" xMax="475" yMax="577">
      <contour>
        <pt x="52" y="577" on="1"/>
        <pt x="245" y="577" on="1"/>
        <pt x="245" y="154" on="1"/>
        <pt x="475" y="154" on="1"/>
        <pt x="475" y="0" on="1"/>
        <pt x="52" y="0" on="1"/>
      </contour>
      <contour>
        <pt x="160" y="-55" on="1"/>
        <pt x="353" y="-55" on="1"/>
        <pt x="264" y="-172" on="1"/>
        <pt x="125" y="-172" on="1"/>
      </contour>
    </TTGlyph>
    <TTGlyph name="Ldot" xMin="54" yMin="0" xMax="540" yMax="740">
      <contour>
        <pt x="54" y="740" on="1"/>
        <pt x="259" y="740" on="1"/>
        <pt x="259" y="165" on="1"/>
        <pt x="509" y="165" on="1"/>
        <pt x="509" y="0" on="1"/>
        <pt x="54" y="0" on="1"/>
      </contour>
      <contour>
        <pt x="432" y="275" on="1"/>
        <pt x="375" y="275" on="0"/>
        <pt x="325" y="324" on="0"/>
        <pt x="325" y="379" on="1"/>
        <pt x="325" y="434" on="0"/>
        <pt x="375" y="484" on="0"/>
        <pt x="432" y="484" on="1"/>
        <pt x="489" y="484" on="0"/>
        <pt x="540" y="434" on="0"/>
        <pt x="540" y="379" on="1"/>
        <pt x="540" y="324" on="0"/>
        <pt x="489" y="275" on="0"/>
      </contour>
    </TTGlyph>
    <TTGlyph name="Ldot.sc" xMin="52" yMin="0" xMax="505" yMax="577">
      <contour>
        <pt x="52" y="577" on="1"/>
        <pt x="245" y="577" on="1"/>
        <pt x="245" y="154" on="1"/>
        <pt x="475" y="154" on="1"/>
        <pt x="475" y="0" on="1"/>
        <pt x="52" y="0" on="1"/>
      </contour>
      <contour>
        <pt x="405" y="203" on="1"/>
        <pt x="350" y="203" on="0"/>
        <pt x="305" y="248" on="0"/>
        <pt x="305" y="299" on="1"/>
        <pt x="305" y="350" on="0"/>
        <pt x="350" y="395" on="0"/>
        <pt x="405" y="395" on="1"/>
        <pt x="459" y="395" on="0"/>
        <pt x="505" y="350" on="0"/>
        <pt x="505" y="299" on="1"/>
        <pt x="505" y="248" on="0"/>
        <pt x="459" y="203" on="0"/>
      </contour>
    </TTGlyph>
    <TTGlyph name="Lslash" xMin="7" yMin="0" xMax="525" yMax="740">
      <contour>
        <pt x="7" y="370" on="1"/>
        <pt x="70" y="402" on="1"/>
        <pt x="70" y="740" on="1"/>
        <pt x="275" y="740" on="1"/>
        <pt x="275" y="506" on="1"/>
        <pt x="384" y="561" on="1"/>
        <pt x="384" y="417" on="1"/>
        <pt x="275" y="362" on="1"/>
        <pt x="275" y="165" on="1"/>
        <pt x="525" y="165" on="1"/>
        <pt x="525" y="0" on="1"/>
        <pt x="70" y="0" on="1"/>
        <pt x="70" y="258" on="1"/>
        <pt x="7" y="226" on="1"/>
      </contour>
    </TTGlyph>
    <TTGlyph name="Lslash.sc" xMin="10" yMin="0" xMax="489" yMax="577">
      <contour>
        <pt x="10" y="309" on="1"/>
        <pt x="66" y="332" on="1"/>
        <pt x="66" y="577" on="1"/>
        <pt x="259" y="577" on="1"/>
        <pt x="259" y="411" on="1"/>
        <pt x="359" y="452" on="1"/>
        <pt x="359" y="321" on="1"/>
        <pt x="259" y="279" on="1"/>
        <pt x="259" y="154" on="1"/>
        <pt x="489" y="154" on="1"/>
        <pt x="489" y="0" on="1"/>
        <pt x="66" y="0" on="1"/>
        <pt x="66" y="200" on="1"/>
        <pt x="10" y="177" on="1"/>
      </contour>
    </TTGlyph>
    <TTGlyph name="M" xMin="54" yMin="0" xMax="893" yMax="740">
      <contour>
        <pt x="54" y="740" on="1"/>
        <pt x="343" y="740" on="1"/>
        <pt x="443" y="426" on="1"/>
        <pt x="469" y="289" on="1"/>
        <pt x="477" y="289" on="1"/>
        <pt x="504" y="426" on="1"/>
        <pt x="604" y="740" on="1"/>
        <pt x="893" y="740" on="1"/>
        <pt x="893" y="0" on="1"/>
        <pt x="706" y="0" on="1"/>
        <pt x="706" y="506" on="1"/>
        <pt x="699" y="506" on="1"/>
        <pt x="657" y="352" on="1"/>
        <pt x="555" y="37" on="1"/>
        <pt x="389" y="37" on="1"/>
        <pt x="288" y="352" on="1"/>
        <pt x="245" y="506" on="1"/>
        <pt x="238" y="506" on="1"/>
        <pt x="238" y="0" on="1"/>
        <pt x="54" y="0" on="1"/>
      </contour>
    </TTGlyph>
    <TTGlyph name="M.sc" xMin="52" yMin="0" xMax="824" yMax="577">
      <contour>
        <pt x="52" y="577" on="1"/>
        <pt x="319" y="577" on="1"/>
        <pt x="408" y="348" on="1"/>
        <pt x="433" y="259" on="1"/>
        <pt x="442" y="259" on="1"/>
        <pt x="467" y="348" on="1"/>
        <pt x="556" y="577" on="1"/>
        <pt x="824" y="577" on="1"/>
        <pt x="824" y="0" on="1"/>
        <pt x="649" y="0" on="1"/>
        <pt x="649" y="370" on="1"/>
        <pt x="640" y="369" on="1"/>
        <pt x="593" y="236" on="1"/>
        <pt x="515" y="29" on="1"/>
        <pt x="361" y="29" on="1"/>
        <pt x="284" y="236" on="1"/>
        <pt x="236" y="369" on="1"/>
        <pt x="227" y="370" on="1"/>
        <pt x="227" y="0" on="1"/>
        <pt x="52" y="0" on="1"/>
      </contour>
    </TTGlyph>
    <TTGlyph name="N" xMin="54" yMin="0" xMax="684" yMax="740">
      <contour>
        <pt x="54" y="740" on="1"/>
        <pt x="219" y="740" on="1"/>
        <pt x="450" y="417" on="1"/>
        <pt x="494" y="338" on="1"/>
        <pt x="505" y="338" on="1"/>
        <pt x="505" y="740" on="1"/>
        <pt x="684" y="740" on="1"/>
        <pt x="684" y="0" on="1"/>
        <pt x="519" y="0" on="1"/>
        <pt x="290" y="323" on="1"/>
        <pt x="243" y="405" on="1"/>
        <pt x="232" y="405" on="1"/>
        <pt x="232" y="0" on="1"/>
        <pt x="54" y="0" on="1"/>
      </contour>
    </TTGlyph>
    <TTGlyph name="N.sc" xMin="52" yMin="0" xMax="625" yMax="577">
      <contour>
        <pt x="52" y="577" on="1"/>
        <pt x="204" y="577" on="1"/>
        <pt x="397" y="356" on="1"/>
        <pt x="445" y="294" on="1"/>
        <pt x="455" y="294" on="1"/>
        <pt x="455" y="577" on="1"/>
        <pt x="625" y="577" on="1"/>
        <pt x="625" y="0" on="1"/>
        <pt x="474" y="0" on="1"/>
        <pt x="283" y="220" on="1"/>
        <pt x="232" y="286" on="1"/>
        <pt x="222" y="287" on="1"/>
        <pt x="222" y="0" on="1"/>
        <pt x="52" y="0" on="1"/>
      </contour>
    </TTGlyph>
    <TTGlyph name="Nacute" xMin="54" yMin="0" xMax="684" yMax="993">
      <contour>
        <pt x="273" y="804" on="1"/>
        <pt x="337" y="993" on="1"/>
        <pt x="541" y="993" on="1"/>
        <pt x="416" y="794" on="1"/>
      </contour>
      <contour>
        <pt x="54" y="740" on="1"/>
        <pt x="219" y="740" on="1"/>
        <pt x="450" y="417" on="1"/>
        <pt x="494" y="338" on="1"/>
        <pt x="505" y="338" on="1"/>
        <pt x="505" y="740" on="1"/>
        <pt x="684" y="740" on="1"/>
        <pt x="684" y="0" on="1"/>
        <pt x="519" y="0" on="1"/>
        <pt x="290" y="323" on="1"/>
        <pt x="243" y="405" on="1"/>
        <pt x="232" y="405" on="1"/>
        <pt x="232" y="0" on="1"/>
        <pt x="54" y="0" on="1"/>
      </contour>
    </TTGlyph>
    <TTGlyph name="Nacute.sc" xMin="52" yMin="0" xMax="625" yMax="790">
      <contour>
        <pt x="52" y="577" on="1"/>
        <pt x="204" y="577" on="1"/>
        <pt x="397" y="356" on="1"/>
        <pt x="445" y="294" on="1"/>
        <pt x="455" y="294" on="1"/>
        <pt x="455" y="577" on="1"/>
        <pt x="625" y="577" on="1"/>
        <pt x="625" y="0" on="1"/>
        <pt x="474" y="0" on="1"/>
        <pt x="283" y="220" on="1"/>
        <pt x="232" y="286" on="1"/>
        <pt x="222" y="287" on="1"/>
        <pt x="222" y="0" on="1"/>
        <pt x="52" y="0" on="1"/>
      </contour>
      <contour>
        <pt x="249" y="630" on="1"/>
        <pt x="306" y="790" on="1"/>
        <pt x="498" y="790" on="1"/>
        <pt x="383" y="621" on="1"/>
      </contour>
    </TTGlyph>
    <TTGlyph name="Ncaron" xMin="54" yMin="0" xMax="684" yMax="993">
      <contour>
        <pt x="180" y="993" on="1"/>
        <pt x="367" y="919" on="1"/>
        <pt x="554" y="993" on="1"/>
        <pt x="554" y="862" on="1"/>
        <pt x="367" y="789" on="1"/>
        <pt x="180" y="862" on="1"/>
      </contour>
      <contour>
        <pt x="54" y="740" on="1"/>
        <pt x="219" y="740" on="1"/>
        <pt x="450" y="417" on="1"/>
        <pt x="494" y="338" on="1"/>
        <pt x="505" y="338" on="1"/>
        <pt x="505" y="740" on="1"/>
        <pt x="684" y="740" on="1"/>
        <pt x="684" y="0" on="1"/>
        <pt x="519" y="0" on="1"/>
        <pt x="290" y="323" on="1"/>
        <pt x="243" y="405" on="1"/>
        <pt x="232" y="405" on="1"/>
        <pt x="232" y="0" on="1"/>
        <pt x="54" y="0" on="1"/>
      </contour>
    </TTGlyph>
    <TTGlyph name="Ncaron.sc" xMin="52" yMin="0" xMax="625" yMax="791">
      <contour>
        <pt x="52" y="577" on="1"/>
        <pt x="204" y="577" on="1"/>
        <pt x="397" y="356" on="1"/>
        <pt x="445" y="294" on="1"/>
        <pt x="455" y="294" on="1"/>
        <pt x="455" y="577" on="1"/>
        <pt x="625" y="577" on="1"/>
        <pt x="625" y="0" on="1"/>
        <pt x="474" y="0" on="1"/>
        <pt x="283" y="220" on="1"/>
        <pt x="232" y="286" on="1"/>
        <pt x="222" y="287" on="1"/>
        <pt x="222" y="0" on="1"/>
        <pt x="52" y="0" on="1"/>
      </contour>
      <contour>
        <pt x="163" y="671" on="1"/>
        <pt x="163" y="791" on="1"/>
        <pt x="337" y="732" on="1"/>
        <pt x="512" y="791" on="1"/>
        <pt x="512" y="671" on="1"/>
        <pt x="337" y="613" on="1"/>
      </contour>
    </TTGlyph>
    <TTGlyph name="Ncommaaccent" xMin="54" yMin="-220" xMax="684" yMax="740">
      <contour>
        <pt x="274" y="-70" on="1"/>
        <pt x="479" y="-70" on="1"/>
        <pt x="382" y="-220" on="1"/>
        <pt x="234" y="-220" on="1"/>
      </contour>
      <contour>
        <pt x="54" y="740" on="1"/>
        <pt x="219" y="740" on="1"/>
        <pt x="450" y="417" on="1"/>
        <pt x="494" y="338" on="1"/>
        <pt x="505" y="338" on="1"/>
        <pt x="505" y="740" on="1"/>
        <pt x="684" y="740" on="1"/>
        <pt x="684" y="0" on="1"/>
        <pt x="519" y="0" on="1"/>
        <pt x="290" y="323" on="1"/>
        <pt x="243" y="405" on="1"/>
        <pt x="232" y="405" on="1"/>
        <pt x="232" y="0" on="1"/>
        <pt x="54" y="0" on="1"/>
      </contour>
    </TTGlyph>
    <TTGlyph name="Ncommaaccent.sc" xMin="52" yMin="-172" xMax="625" yMax="577">
      <contour>
        <pt x="52" y="577" on="1"/>
        <pt x="204" y="577" on="1"/>
        <pt x="397" y="356" on="1"/>
        <pt x="445" y="294" on="1"/>
        <pt x="455" y="294" on="1"/>
        <pt x="455" y="577" on="1"/>
        <pt x="625" y="577" on="1"/>
        <pt x="625" y="0" on="1"/>
        <pt x="474" y="0" on="1"/>
        <pt x="283" y="220" on="1"/>
        <pt x="232" y="286" on="1"/>
        <pt x="222" y="287" on="1"/>
        <pt x="222" y="0" on="1"/>
        <pt x="52" y="0" on="1"/>
      </contour>
      <contour>
        <pt x="248" y="-55" on="1"/>
        <pt x="441" y="-55" on="1"/>
        <pt x="352" y="-172" on="1"/>
        <pt x="213" y="-172" on="1"/>
      </contour>
    </TTGlyph>
    <TTGlyph name="Ndotaccent" xMin="54" yMin="0" xMax="684" yMax="1005">
      <contour>
        <pt x="360" y="797" on="1"/>
        <pt x="303" y="797" on="0"/>
        <pt x="253" y="846" on="0"/>
        <pt x="253" y="902" on="1"/>
        <pt x="253" y="957" on="0"/>
        <pt x="303" y="1005" on="0"/>
        <pt x="360" y="1005" on="1"/>
        <pt x="417" y="1005" on="0"/>
        <pt x="468" y="956" on="0"/>
        <pt x="468" y="902" on="1"/>
        <pt x="468" y="847" on="0"/>
        <pt x="417" y="797" on="0"/>
      </contour>
      <contour>
        <pt x="54" y="740" on="1"/>
        <pt x="219" y="740" on="1"/>
        <pt x="450" y="417" on="1"/>
        <pt x="494" y="338" on="1"/>
        <pt x="505" y="338" on="1"/>
        <pt x="505" y="740" on="1"/>
        <pt x="684" y="740" on="1"/>
        <pt x="684" y="0" on="1"/>
        <pt x="519" y="0" on="1"/>
        <pt x="290" y="323" on="1"/>
        <pt x="243" y="405" on="1"/>
        <pt x="232" y="405" on="1"/>
        <pt x="232" y="0" on="1"/>
        <pt x="54" y="0" on="1"/>
      </contour>
    </TTGlyph>
    <TTGlyph name="Ndotaccent.sc" xMin="52" yMin="0" xMax="625" yMax="811">
      <contour>
        <pt x="52" y="577" on="1"/>
        <pt x="204" y="577" on="1"/>
        <pt x="397" y="356" on="1"/>
        <pt x="445" y="294" on="1"/>
        <pt x="455" y="294" on="1"/>
        <pt x="455" y="577" on="1"/>
        <pt x="625" y="577" on="1"/>
        <pt x="625" y="0" on="1"/>
        <pt x="474" y="0" on="1"/>
        <pt x="283" y="220" on="1"/>
        <pt x="232" y="286" on="1"/>
        <pt x="222" y="287" on="1"/>
        <pt x="222" y="0" on="1"/>
        <pt x="52" y="0" on="1"/>
      </contour>
      <contour>
        <pt x="332" y="620" on="1"/>
        <pt x="278" y="620" on="0"/>
        <pt x="231" y="665" on="0"/>
        <pt x="231" y="716" on="1"/>
        <pt x="231" y="767" on="0"/>
        <pt x="278" y="811" on="0"/>
        <pt x="332" y="811" on="1"/>
        <pt x="386" y="811" on="0"/>
        <pt x="433" y="766" on="0"/>
        <pt x="433" y="716" on="1"/>
        <pt x="433" y="665" on="0"/>
        <pt x="386" y="620" on="0"/>
      </contour>
    </TTGlyph>
    <TTGlyph name="Ntilde" xMin="54" yMin="0" xMax="684" yMax="977">
      <contour>
        <pt x="150" y="840" on="1"/>
        <pt x="184" y="909" on="0"/>
        <pt x="268" y="977" on="0"/>
        <pt x="309" y="977" on="1"/>
        <pt x="331" y="977" on="0"/>
        <pt x="374" y="965" on="0"/>
        <pt x="417" y="951" on="0"/>
        <pt x="461" y="939" on="0"/>
        <pt x="483" y="939" on="1"/>
        <pt x="504" y="939" on="0"/>
        <pt x="543" y="954" on="0"/>
        <pt x="569" y="977" on="1"/>
        <pt x="592" y="951" on="1"/>
        <pt x="558" y="882" on="0"/>
        <pt x="474" y="815" on="0"/>
        <pt x="434" y="815" on="1"/>
        <pt x="412" y="815" on="0"/>
        <pt x="368" y="827" on="0"/>
        <pt x="324" y="840" on="0"/>
        <pt x="281" y="852" on="0"/>
        <pt x="259" y="852" on="1"/>
        <pt x="237" y="852" on="0"/>
        <pt x="198" y="837" on="0"/>
        <pt x="173" y="815" on="1"/>
      </contour>
      <contour>
        <pt x="54" y="740" on="1"/>
        <pt x="219" y="740" on="1"/>
        <pt x="450" y="417" on="1"/>
        <pt x="494" y="338" on="1"/>
        <pt x="505" y="338" on="1"/>
        <pt x="505" y="740" on="1"/>
        <pt x="684" y="740" on="1"/>
        <pt x="684" y="0" on="1"/>
        <pt x="519" y="0" on="1"/>
        <pt x="290" y="323" on="1"/>
        <pt x="243" y="405" on="1"/>
        <pt x="232" y="405" on="1"/>
        <pt x="232" y="0" on="1"/>
        <pt x="54" y="0" on="1"/>
      </contour>
    </TTGlyph>
    <TTGlyph name="Ntilde.sc" xMin="52" yMin="0" xMax="625" yMax="779">
      <contour>
        <pt x="136" y="654" on="1"/>
        <pt x="167" y="717" on="0"/>
        <pt x="245" y="778" on="0"/>
        <pt x="283" y="778" on="1"/>
        <pt x="303" y="778" on="0"/>
        <pt x="344" y="769" on="0"/>
        <pt x="385" y="759" on="0"/>
        <pt x="426" y="750" on="0"/>
        <pt x="447" y="750" on="1"/>
        <pt x="466" y="750" on="0"/>
        <pt x="502" y="761" on="0"/>
        <pt x="526" y="779" on="1"/>
        <pt x="547" y="757" on="1"/>
        <pt x="515" y="694" on="0"/>
        <pt x="437" y="634" on="0"/>
        <pt x="399" y="634" on="1"/>
        <pt x="379" y="634" on="0"/>
        <pt x="338" y="643" on="0"/>
        <pt x="298" y="653" on="0"/>
        <pt x="257" y="662" on="0"/>
        <pt x="236" y="662" on="1"/>
        <pt x="216" y="662" on="0"/>
        <pt x="180" y="652" on="0"/>
        <pt x="156" y="634" on="1"/>
      </contour>
      <contour>
        <pt x="52" y="577" on="1"/>
        <pt x="204" y="577" on="1"/>
        <pt x="397" y="356" on="1"/>
        <pt x="445" y="294" on="1"/>
        <pt x="455" y="294" on="1"/>
        <pt x="455" y="577" on="1"/>
        <pt x="625" y="577" on="1"/>
        <pt x="625" y="0" on="1"/>
        <pt x="474" y="0" on="1"/>
        <pt x="283" y="220" on="1"/>
        <pt x="232" y="286" on="1"/>
        <pt x="222" y="287" on="1"/>
        <pt x="222" y="0" on="1"/>
        <pt x="52" y="0" on="1"/>
      </contour>
    </TTGlyph>
</ttFont>
